G04 EAGLE Gerber RS-274X export*
G75*
%MOMM*%
%FSLAX34Y34*%
%LPD*%
%INCopper Layer 2*%
%IPPOS*%
%AMOC8*
5,1,8,0,0,1.08239X$1,22.5*%
G01*
%ADD10C,0.152400*%
%ADD11C,1.500000*%
%ADD12C,1.950000*%
%ADD13C,1.219200*%
%ADD14C,4.500000*%
%ADD15C,0.700000*%
%ADD16C,0.600000*%
%ADD17C,0.975000*%
%ADD18C,1.905000*%

G36*
X568758Y2504D02*
X568758Y2504D01*
X568777Y2502D01*
X568879Y2524D01*
X568981Y2540D01*
X568998Y2550D01*
X569018Y2554D01*
X569107Y2607D01*
X569198Y2656D01*
X569212Y2670D01*
X569229Y2680D01*
X569296Y2759D01*
X569368Y2834D01*
X569376Y2852D01*
X569389Y2867D01*
X569428Y2963D01*
X569471Y3057D01*
X569473Y3077D01*
X569481Y3095D01*
X569499Y3262D01*
X569499Y261036D01*
X570964Y262501D01*
X572000Y262501D01*
X572020Y262504D01*
X572039Y262502D01*
X572141Y262524D01*
X572243Y262540D01*
X572260Y262550D01*
X572280Y262554D01*
X572369Y262607D01*
X572460Y262656D01*
X572474Y262670D01*
X572491Y262680D01*
X572558Y262759D01*
X572630Y262834D01*
X572638Y262852D01*
X572651Y262867D01*
X572690Y262963D01*
X572733Y263057D01*
X572735Y263077D01*
X572743Y263095D01*
X572761Y263262D01*
X572761Y476738D01*
X572758Y476758D01*
X572760Y476777D01*
X572738Y476879D01*
X572722Y476981D01*
X572712Y476998D01*
X572708Y477018D01*
X572655Y477107D01*
X572606Y477198D01*
X572592Y477212D01*
X572582Y477229D01*
X572503Y477296D01*
X572428Y477368D01*
X572410Y477376D01*
X572395Y477389D01*
X572299Y477428D01*
X572205Y477471D01*
X572185Y477473D01*
X572167Y477481D01*
X572000Y477499D01*
X570964Y477499D01*
X569499Y478964D01*
X569499Y1496738D01*
X569496Y1496758D01*
X569498Y1496777D01*
X569476Y1496879D01*
X569460Y1496981D01*
X569450Y1496998D01*
X569446Y1497018D01*
X569393Y1497107D01*
X569344Y1497198D01*
X569330Y1497212D01*
X569320Y1497229D01*
X569241Y1497296D01*
X569166Y1497368D01*
X569148Y1497376D01*
X569133Y1497389D01*
X569037Y1497428D01*
X568943Y1497471D01*
X568923Y1497473D01*
X568905Y1497481D01*
X568738Y1497499D01*
X3262Y1497499D01*
X3242Y1497496D01*
X3223Y1497498D01*
X3121Y1497476D01*
X3019Y1497460D01*
X3002Y1497450D01*
X2982Y1497446D01*
X2893Y1497393D01*
X2802Y1497344D01*
X2788Y1497330D01*
X2771Y1497320D01*
X2704Y1497241D01*
X2632Y1497166D01*
X2624Y1497148D01*
X2611Y1497133D01*
X2572Y1497037D01*
X2529Y1496943D01*
X2527Y1496923D01*
X2519Y1496905D01*
X2501Y1496738D01*
X2501Y3262D01*
X2504Y3242D01*
X2502Y3223D01*
X2524Y3121D01*
X2540Y3019D01*
X2550Y3002D01*
X2554Y2982D01*
X2607Y2893D01*
X2656Y2802D01*
X2670Y2788D01*
X2680Y2771D01*
X2759Y2704D01*
X2834Y2632D01*
X2852Y2624D01*
X2867Y2611D01*
X2963Y2572D01*
X3057Y2529D01*
X3077Y2527D01*
X3095Y2519D01*
X3262Y2501D01*
X568738Y2501D01*
X568758Y2504D01*
G37*
G36*
X1183758Y1219242D02*
X1183758Y1219242D01*
X1183777Y1219240D01*
X1183879Y1219262D01*
X1183981Y1219279D01*
X1183998Y1219288D01*
X1184018Y1219292D01*
X1184107Y1219345D01*
X1184198Y1219394D01*
X1184212Y1219408D01*
X1184229Y1219418D01*
X1184296Y1219497D01*
X1184368Y1219572D01*
X1184376Y1219590D01*
X1184389Y1219605D01*
X1184428Y1219701D01*
X1184471Y1219795D01*
X1184473Y1219815D01*
X1184481Y1219833D01*
X1184499Y1220000D01*
X1184499Y1221036D01*
X1185964Y1222501D01*
X1423738Y1222501D01*
X1423758Y1222504D01*
X1423777Y1222502D01*
X1423879Y1222524D01*
X1423981Y1222540D01*
X1423998Y1222550D01*
X1424018Y1222554D01*
X1424107Y1222607D01*
X1424198Y1222656D01*
X1424212Y1222670D01*
X1424229Y1222680D01*
X1424296Y1222759D01*
X1424368Y1222834D01*
X1424376Y1222852D01*
X1424389Y1222867D01*
X1424428Y1222963D01*
X1424471Y1223057D01*
X1424473Y1223077D01*
X1424481Y1223095D01*
X1424499Y1223262D01*
X1424499Y1496738D01*
X1424496Y1496758D01*
X1424498Y1496777D01*
X1424476Y1496879D01*
X1424460Y1496981D01*
X1424450Y1496998D01*
X1424446Y1497018D01*
X1424393Y1497107D01*
X1424344Y1497198D01*
X1424330Y1497212D01*
X1424320Y1497229D01*
X1424241Y1497296D01*
X1424166Y1497368D01*
X1424148Y1497376D01*
X1424133Y1497389D01*
X1424037Y1497428D01*
X1423943Y1497471D01*
X1423923Y1497473D01*
X1423905Y1497481D01*
X1423738Y1497499D01*
X730262Y1497499D01*
X730242Y1497496D01*
X730223Y1497498D01*
X730121Y1497476D01*
X730019Y1497460D01*
X730002Y1497450D01*
X729982Y1497446D01*
X729893Y1497393D01*
X729802Y1497344D01*
X729788Y1497330D01*
X729771Y1497320D01*
X729704Y1497241D01*
X729632Y1497166D01*
X729624Y1497148D01*
X729611Y1497133D01*
X729572Y1497037D01*
X729529Y1496943D01*
X729527Y1496923D01*
X729519Y1496905D01*
X729501Y1496738D01*
X729501Y1223262D01*
X729504Y1223242D01*
X729502Y1223223D01*
X729524Y1223121D01*
X729540Y1223019D01*
X729550Y1223002D01*
X729554Y1222982D01*
X729607Y1222893D01*
X729656Y1222802D01*
X729670Y1222788D01*
X729680Y1222771D01*
X729759Y1222704D01*
X729834Y1222632D01*
X729852Y1222624D01*
X729867Y1222611D01*
X729963Y1222572D01*
X730057Y1222529D01*
X730077Y1222527D01*
X730095Y1222519D01*
X730262Y1222501D01*
X968036Y1222501D01*
X969501Y1221036D01*
X969501Y1220000D01*
X969504Y1219980D01*
X969502Y1219961D01*
X969524Y1219859D01*
X969540Y1219757D01*
X969550Y1219740D01*
X969554Y1219720D01*
X969607Y1219631D01*
X969656Y1219540D01*
X969670Y1219526D01*
X969680Y1219509D01*
X969759Y1219442D01*
X969834Y1219371D01*
X969852Y1219362D01*
X969867Y1219349D01*
X969963Y1219310D01*
X970057Y1219267D01*
X970077Y1219265D01*
X970095Y1219257D01*
X970262Y1219239D01*
X1183738Y1219239D01*
X1183758Y1219242D01*
G37*
%LPC*%
G36*
X65226Y235999D02*
X65226Y235999D01*
X56405Y239653D01*
X49653Y246405D01*
X45999Y255226D01*
X45999Y264774D01*
X49653Y273595D01*
X56405Y280347D01*
X65226Y284001D01*
X74774Y284001D01*
X83595Y280347D01*
X90347Y273595D01*
X94001Y264774D01*
X94001Y255226D01*
X90347Y246405D01*
X83595Y239653D01*
X74774Y235999D01*
X65226Y235999D01*
G37*
%LPD*%
%LPC*%
G36*
X1365226Y1335999D02*
X1365226Y1335999D01*
X1356405Y1339653D01*
X1349653Y1346405D01*
X1345999Y1355226D01*
X1345999Y1364774D01*
X1349653Y1373595D01*
X1356405Y1380347D01*
X1365226Y1384001D01*
X1374774Y1384001D01*
X1383595Y1380347D01*
X1390347Y1373595D01*
X1394001Y1364774D01*
X1394001Y1355226D01*
X1390347Y1346405D01*
X1383595Y1339653D01*
X1374774Y1335999D01*
X1365226Y1335999D01*
G37*
%LPD*%
%LPC*%
G36*
X792226Y1335999D02*
X792226Y1335999D01*
X783405Y1339653D01*
X776653Y1346405D01*
X772999Y1355226D01*
X772999Y1364774D01*
X776653Y1373595D01*
X783405Y1380347D01*
X792226Y1384001D01*
X801774Y1384001D01*
X810595Y1380347D01*
X817347Y1373595D01*
X821001Y1364774D01*
X821001Y1355226D01*
X817347Y1346405D01*
X810595Y1339653D01*
X801774Y1335999D01*
X792226Y1335999D01*
G37*
%LPD*%
%LPC*%
G36*
X490226Y1410999D02*
X490226Y1410999D01*
X481405Y1414653D01*
X474653Y1421405D01*
X470999Y1430226D01*
X470999Y1439774D01*
X474653Y1448595D01*
X481405Y1455347D01*
X490226Y1459001D01*
X499774Y1459001D01*
X508595Y1455347D01*
X515347Y1448595D01*
X519001Y1439774D01*
X519001Y1430226D01*
X515347Y1421405D01*
X508595Y1414653D01*
X499774Y1410999D01*
X490226Y1410999D01*
G37*
%LPD*%
%LPC*%
G36*
X65226Y1260999D02*
X65226Y1260999D01*
X56405Y1264653D01*
X49653Y1271405D01*
X45999Y1280226D01*
X45999Y1289774D01*
X49653Y1298595D01*
X56405Y1305347D01*
X65226Y1309001D01*
X74774Y1309001D01*
X83595Y1305347D01*
X90347Y1298595D01*
X94001Y1289774D01*
X94001Y1280226D01*
X90347Y1271405D01*
X83595Y1264653D01*
X74774Y1260999D01*
X65226Y1260999D01*
G37*
%LPD*%
%LPC*%
G36*
X475226Y40999D02*
X475226Y40999D01*
X466405Y44653D01*
X459653Y51405D01*
X455999Y60226D01*
X455999Y69774D01*
X459653Y78595D01*
X466405Y85347D01*
X475226Y89001D01*
X484774Y89001D01*
X493595Y85347D01*
X500347Y78595D01*
X504001Y69774D01*
X504001Y60226D01*
X500347Y51405D01*
X493595Y44653D01*
X484774Y40999D01*
X475226Y40999D01*
G37*
%LPD*%
%LPC*%
G36*
X28762Y630249D02*
X28762Y630249D01*
X24627Y631962D01*
X21462Y635127D01*
X19749Y639262D01*
X19749Y643738D01*
X21462Y647873D01*
X24627Y651038D01*
X28762Y652751D01*
X33238Y652751D01*
X37373Y651038D01*
X40538Y647873D01*
X42251Y643738D01*
X42251Y639262D01*
X40538Y635127D01*
X37373Y631962D01*
X33238Y630249D01*
X28762Y630249D01*
G37*
%LPD*%
%LPC*%
G36*
X77762Y481249D02*
X77762Y481249D01*
X73627Y482962D01*
X70462Y486127D01*
X68749Y490262D01*
X68749Y494738D01*
X70462Y498873D01*
X73627Y502038D01*
X77762Y503751D01*
X82238Y503751D01*
X86373Y502038D01*
X89538Y498873D01*
X91251Y494738D01*
X91251Y490262D01*
X89538Y486127D01*
X86373Y482962D01*
X82238Y481249D01*
X77762Y481249D01*
G37*
%LPD*%
%LPC*%
G36*
X77762Y936249D02*
X77762Y936249D01*
X73627Y937962D01*
X70462Y941127D01*
X68749Y945262D01*
X68749Y949738D01*
X70462Y953873D01*
X73627Y957038D01*
X77762Y958751D01*
X82238Y958751D01*
X86373Y957038D01*
X89538Y953873D01*
X91251Y949738D01*
X91251Y945262D01*
X89538Y941127D01*
X86373Y937962D01*
X82238Y936249D01*
X77762Y936249D01*
G37*
%LPD*%
%LPC*%
G36*
X28762Y330249D02*
X28762Y330249D01*
X24627Y331962D01*
X21462Y335127D01*
X19749Y339262D01*
X19749Y343738D01*
X21462Y347873D01*
X24627Y351038D01*
X28762Y352751D01*
X33238Y352751D01*
X37373Y351038D01*
X40538Y347873D01*
X42251Y343738D01*
X42251Y339262D01*
X40538Y335127D01*
X37373Y331962D01*
X33238Y330249D01*
X28762Y330249D01*
G37*
%LPD*%
%LPC*%
G36*
X28762Y487249D02*
X28762Y487249D01*
X24627Y488962D01*
X21462Y492127D01*
X19749Y496262D01*
X19749Y500738D01*
X21462Y504873D01*
X24627Y508038D01*
X28762Y509751D01*
X33238Y509751D01*
X37373Y508038D01*
X40538Y504873D01*
X42251Y500738D01*
X42251Y496262D01*
X40538Y492127D01*
X37373Y488962D01*
X33238Y487249D01*
X28762Y487249D01*
G37*
%LPD*%
%LPC*%
G36*
X77762Y156249D02*
X77762Y156249D01*
X73627Y157962D01*
X70462Y161127D01*
X68749Y165262D01*
X68749Y169738D01*
X70462Y173873D01*
X73627Y177038D01*
X77762Y178751D01*
X82238Y178751D01*
X86373Y177038D01*
X89538Y173873D01*
X91251Y169738D01*
X91251Y165262D01*
X89538Y161127D01*
X86373Y157962D01*
X82238Y156249D01*
X77762Y156249D01*
G37*
%LPD*%
%LPC*%
G36*
X28762Y162249D02*
X28762Y162249D01*
X24627Y163962D01*
X21462Y167127D01*
X19749Y171262D01*
X19749Y175738D01*
X21462Y179873D01*
X24627Y183038D01*
X28762Y184751D01*
X33238Y184751D01*
X37373Y183038D01*
X40538Y179873D01*
X42251Y175738D01*
X42251Y171262D01*
X40538Y167127D01*
X37373Y163962D01*
X33238Y162249D01*
X28762Y162249D01*
G37*
%LPD*%
%LPC*%
G36*
X28762Y930249D02*
X28762Y930249D01*
X24627Y931962D01*
X21462Y935127D01*
X19749Y939262D01*
X19749Y943738D01*
X21462Y947873D01*
X24627Y951038D01*
X28762Y952751D01*
X33238Y952751D01*
X37373Y951038D01*
X40538Y947873D01*
X42251Y943738D01*
X42251Y939262D01*
X40538Y935127D01*
X37373Y931962D01*
X33238Y930249D01*
X28762Y930249D01*
G37*
%LPD*%
%LPC*%
G36*
X77762Y336249D02*
X77762Y336249D01*
X73627Y337962D01*
X70462Y341127D01*
X68749Y345262D01*
X68749Y349738D01*
X70462Y353873D01*
X73627Y357038D01*
X77762Y358751D01*
X82238Y358751D01*
X86373Y357038D01*
X89538Y353873D01*
X91251Y349738D01*
X91251Y345262D01*
X89538Y341127D01*
X86373Y337962D01*
X82238Y336249D01*
X77762Y336249D01*
G37*
%LPD*%
%LPC*%
G36*
X77762Y636249D02*
X77762Y636249D01*
X73627Y637962D01*
X70462Y641127D01*
X68749Y645262D01*
X68749Y649738D01*
X70462Y653873D01*
X73627Y657038D01*
X77762Y658751D01*
X82238Y658751D01*
X86373Y657038D01*
X89538Y653873D01*
X91251Y649738D01*
X91251Y645262D01*
X89538Y641127D01*
X86373Y637962D01*
X82238Y636249D01*
X77762Y636249D01*
G37*
%LPD*%
%LPC*%
G36*
X77762Y781249D02*
X77762Y781249D01*
X73627Y782962D01*
X70462Y786127D01*
X68749Y790262D01*
X68749Y794738D01*
X70462Y798873D01*
X73627Y802038D01*
X77762Y803751D01*
X82238Y803751D01*
X86373Y802038D01*
X89538Y798873D01*
X91251Y794738D01*
X91251Y790262D01*
X89538Y786127D01*
X86373Y782962D01*
X82238Y781249D01*
X77762Y781249D01*
G37*
%LPD*%
%LPC*%
G36*
X28762Y5249D02*
X28762Y5249D01*
X24627Y6962D01*
X21462Y10127D01*
X19749Y14262D01*
X19749Y18738D01*
X21462Y22873D01*
X24627Y26038D01*
X28762Y27751D01*
X33238Y27751D01*
X37373Y26038D01*
X40538Y22873D01*
X42251Y18738D01*
X42251Y14262D01*
X40538Y10127D01*
X37373Y6962D01*
X33238Y5249D01*
X28762Y5249D01*
G37*
%LPD*%
%LPC*%
G36*
X77762Y11249D02*
X77762Y11249D01*
X73627Y12962D01*
X70462Y16127D01*
X68749Y20262D01*
X68749Y24738D01*
X70462Y28873D01*
X73627Y32038D01*
X77762Y33751D01*
X82238Y33751D01*
X86373Y32038D01*
X89538Y28873D01*
X91251Y24738D01*
X91251Y20262D01*
X89538Y16127D01*
X86373Y12962D01*
X82238Y11249D01*
X77762Y11249D01*
G37*
%LPD*%
%LPC*%
G36*
X28762Y1087249D02*
X28762Y1087249D01*
X24627Y1088962D01*
X21462Y1092127D01*
X19749Y1096262D01*
X19749Y1100738D01*
X21462Y1104873D01*
X24627Y1108038D01*
X28762Y1109751D01*
X33238Y1109751D01*
X37373Y1108038D01*
X40538Y1104873D01*
X42251Y1100738D01*
X42251Y1096262D01*
X40538Y1092127D01*
X37373Y1088962D01*
X33238Y1087249D01*
X28762Y1087249D01*
G37*
%LPD*%
%LPC*%
G36*
X77762Y1081249D02*
X77762Y1081249D01*
X73627Y1082962D01*
X70462Y1086127D01*
X68749Y1090262D01*
X68749Y1094738D01*
X70462Y1098873D01*
X73627Y1102038D01*
X77762Y1103751D01*
X82238Y1103751D01*
X86373Y1102038D01*
X89538Y1098873D01*
X91251Y1094738D01*
X91251Y1090262D01*
X89538Y1086127D01*
X86373Y1082962D01*
X82238Y1081249D01*
X77762Y1081249D01*
G37*
%LPD*%
%LPC*%
G36*
X28762Y787249D02*
X28762Y787249D01*
X24627Y788962D01*
X21462Y792127D01*
X19749Y796262D01*
X19749Y800738D01*
X21462Y804873D01*
X24627Y808038D01*
X28762Y809751D01*
X33238Y809751D01*
X37373Y808038D01*
X40538Y804873D01*
X42251Y800738D01*
X42251Y796262D01*
X40538Y792127D01*
X37373Y788962D01*
X33238Y787249D01*
X28762Y787249D01*
G37*
%LPD*%
%LPC*%
G36*
X539807Y278974D02*
X539807Y278974D01*
X535754Y280653D01*
X532653Y283754D01*
X530974Y287807D01*
X530974Y292193D01*
X532653Y296246D01*
X535754Y299347D01*
X539807Y301026D01*
X544193Y301026D01*
X548246Y299347D01*
X551347Y296246D01*
X553026Y292193D01*
X553026Y287807D01*
X551347Y283754D01*
X548246Y280653D01*
X544193Y278974D01*
X539807Y278974D01*
G37*
%LPD*%
%LPC*%
G36*
X432807Y309974D02*
X432807Y309974D01*
X428754Y311653D01*
X425653Y314754D01*
X423974Y318807D01*
X423974Y323193D01*
X425653Y327246D01*
X428754Y330347D01*
X432807Y332026D01*
X437193Y332026D01*
X441246Y330347D01*
X444347Y327246D01*
X446026Y323193D01*
X446026Y318807D01*
X444347Y314754D01*
X441246Y311653D01*
X437193Y309974D01*
X432807Y309974D01*
G37*
%LPD*%
%LPC*%
G36*
X435807Y337974D02*
X435807Y337974D01*
X431754Y339653D01*
X428653Y342754D01*
X426974Y346807D01*
X426974Y351193D01*
X428653Y355246D01*
X431754Y358347D01*
X435807Y360026D01*
X440193Y360026D01*
X444246Y358347D01*
X447347Y355246D01*
X449026Y351193D01*
X449026Y346807D01*
X447347Y342754D01*
X444246Y339653D01*
X440193Y337974D01*
X435807Y337974D01*
G37*
%LPD*%
%LPC*%
G36*
X1154807Y1238974D02*
X1154807Y1238974D01*
X1150754Y1240653D01*
X1147653Y1243754D01*
X1145974Y1247807D01*
X1145974Y1252193D01*
X1147653Y1256246D01*
X1150754Y1259347D01*
X1154807Y1261026D01*
X1159193Y1261026D01*
X1163246Y1259347D01*
X1166347Y1256246D01*
X1168026Y1252193D01*
X1168026Y1247807D01*
X1166347Y1243754D01*
X1163246Y1240653D01*
X1159193Y1238974D01*
X1154807Y1238974D01*
G37*
%LPD*%
%LPC*%
G36*
X519807Y368974D02*
X519807Y368974D01*
X515754Y370653D01*
X512653Y373754D01*
X510974Y377807D01*
X510974Y382193D01*
X512653Y386246D01*
X515754Y389347D01*
X519807Y391026D01*
X524193Y391026D01*
X528246Y389347D01*
X531347Y386246D01*
X533026Y382193D01*
X533026Y377807D01*
X531347Y373754D01*
X528246Y370653D01*
X524193Y368974D01*
X519807Y368974D01*
G37*
%LPD*%
%LPC*%
G36*
X539807Y438974D02*
X539807Y438974D01*
X535754Y440653D01*
X532653Y443754D01*
X530974Y447807D01*
X530974Y452193D01*
X532653Y456246D01*
X535754Y459347D01*
X539807Y461026D01*
X544193Y461026D01*
X548246Y459347D01*
X551347Y456246D01*
X553026Y452193D01*
X553026Y447807D01*
X551347Y443754D01*
X548246Y440653D01*
X544193Y438974D01*
X539807Y438974D01*
G37*
%LPD*%
%LPC*%
G36*
X993807Y1238974D02*
X993807Y1238974D01*
X989754Y1240653D01*
X986653Y1243754D01*
X984974Y1247807D01*
X984974Y1252193D01*
X986653Y1256246D01*
X989754Y1259347D01*
X993807Y1261026D01*
X998193Y1261026D01*
X1002246Y1259347D01*
X1005347Y1256246D01*
X1007026Y1252193D01*
X1007026Y1247807D01*
X1005347Y1243754D01*
X1002246Y1240653D01*
X998193Y1238974D01*
X993807Y1238974D01*
G37*
%LPD*%
%LPC*%
G36*
X1048807Y1239974D02*
X1048807Y1239974D01*
X1044754Y1241653D01*
X1041653Y1244754D01*
X1039974Y1248807D01*
X1039974Y1253193D01*
X1041653Y1257246D01*
X1044754Y1260347D01*
X1048807Y1262026D01*
X1053193Y1262026D01*
X1057246Y1260347D01*
X1060347Y1257246D01*
X1062026Y1253193D01*
X1062026Y1248807D01*
X1060347Y1244754D01*
X1057246Y1241653D01*
X1053193Y1239974D01*
X1048807Y1239974D01*
G37*
%LPD*%
%LPC*%
G36*
X1075807Y1239974D02*
X1075807Y1239974D01*
X1071754Y1241653D01*
X1068653Y1244754D01*
X1066974Y1248807D01*
X1066974Y1253193D01*
X1068653Y1257246D01*
X1071754Y1260347D01*
X1075807Y1262026D01*
X1080193Y1262026D01*
X1084246Y1260347D01*
X1087347Y1257246D01*
X1089026Y1253193D01*
X1089026Y1248807D01*
X1087347Y1244754D01*
X1084246Y1241653D01*
X1080193Y1239974D01*
X1075807Y1239974D01*
G37*
%LPD*%
%LPC*%
G36*
X1101807Y1239974D02*
X1101807Y1239974D01*
X1097754Y1241653D01*
X1094653Y1244754D01*
X1092974Y1248807D01*
X1092974Y1253193D01*
X1094653Y1257246D01*
X1097754Y1260347D01*
X1101807Y1262026D01*
X1106193Y1262026D01*
X1110246Y1260347D01*
X1113347Y1257246D01*
X1115026Y1253193D01*
X1115026Y1248807D01*
X1113347Y1244754D01*
X1110246Y1241653D01*
X1106193Y1239974D01*
X1101807Y1239974D01*
G37*
%LPD*%
%LPC*%
G36*
X103210Y1342999D02*
X103210Y1342999D01*
X99901Y1344370D01*
X97370Y1346901D01*
X95999Y1350210D01*
X95999Y1353790D01*
X97370Y1357099D01*
X99901Y1359630D01*
X103210Y1361001D01*
X106790Y1361001D01*
X110099Y1359630D01*
X112630Y1357099D01*
X114001Y1353790D01*
X114001Y1350210D01*
X112630Y1346901D01*
X110099Y1344370D01*
X106790Y1342999D01*
X103210Y1342999D01*
G37*
%LPD*%
%LPC*%
G36*
X134210Y1390999D02*
X134210Y1390999D01*
X130901Y1392370D01*
X128370Y1394901D01*
X126999Y1398210D01*
X126999Y1401790D01*
X128370Y1405099D01*
X130901Y1407630D01*
X134210Y1409001D01*
X137790Y1409001D01*
X141099Y1407630D01*
X143630Y1405099D01*
X145001Y1401790D01*
X145001Y1398210D01*
X143630Y1394901D01*
X141099Y1392370D01*
X137790Y1390999D01*
X134210Y1390999D01*
G37*
%LPD*%
%LPC*%
G36*
X810389Y1446403D02*
X810389Y1446403D01*
X807597Y1447560D01*
X805460Y1449697D01*
X804303Y1452489D01*
X804303Y1455511D01*
X805460Y1458303D01*
X807597Y1460440D01*
X810389Y1461597D01*
X813411Y1461597D01*
X816203Y1460440D01*
X818340Y1458303D01*
X819497Y1455511D01*
X819497Y1452489D01*
X818340Y1449697D01*
X816203Y1447560D01*
X813411Y1446403D01*
X810389Y1446403D01*
G37*
%LPD*%
%LPC*%
G36*
X886589Y1446403D02*
X886589Y1446403D01*
X883797Y1447560D01*
X881660Y1449697D01*
X880503Y1452489D01*
X880503Y1455511D01*
X881660Y1458303D01*
X883797Y1460440D01*
X886589Y1461597D01*
X889611Y1461597D01*
X892403Y1460440D01*
X894540Y1458303D01*
X895697Y1455511D01*
X895697Y1452489D01*
X894540Y1449697D01*
X892403Y1447560D01*
X889611Y1446403D01*
X886589Y1446403D01*
G37*
%LPD*%
%LPC*%
G36*
X525933Y1301445D02*
X525933Y1301445D01*
X525874Y1301458D01*
X525861Y1301463D01*
X525249Y1302075D01*
X525230Y1302089D01*
X525203Y1302117D01*
X524546Y1302676D01*
X524537Y1302710D01*
X524505Y1302761D01*
X524499Y1302774D01*
X524499Y1303640D01*
X524496Y1303662D01*
X524497Y1303701D01*
X524427Y1304561D01*
X524445Y1304591D01*
X524458Y1304650D01*
X524463Y1304663D01*
X525075Y1305275D01*
X525088Y1305294D01*
X525117Y1305321D01*
X532021Y1313443D01*
X532048Y1313487D01*
X532082Y1313526D01*
X532111Y1313592D01*
X532148Y1313654D01*
X532159Y1313704D01*
X532180Y1313752D01*
X532182Y1313769D01*
X532763Y1314322D01*
X532779Y1314344D01*
X532818Y1314380D01*
X533133Y1314751D01*
X533149Y1314777D01*
X533170Y1314798D01*
X533253Y1314944D01*
X533441Y1315384D01*
X533449Y1315415D01*
X533464Y1315443D01*
X533499Y1315607D01*
X533526Y1315877D01*
X533526Y1315881D01*
X533527Y1315886D01*
X533527Y1315920D01*
X533530Y1315954D01*
X533525Y1315985D01*
X533524Y1316053D01*
X533488Y1316323D01*
X533469Y1316385D01*
X533460Y1316450D01*
X533427Y1316526D01*
X533417Y1316558D01*
X533406Y1316574D01*
X533393Y1316604D01*
X533124Y1317070D01*
X533050Y1317160D01*
X532980Y1317249D01*
X532972Y1317255D01*
X532968Y1317260D01*
X532949Y1317272D01*
X532845Y1317349D01*
X532379Y1317618D01*
X532318Y1317641D01*
X532261Y1317673D01*
X532180Y1317693D01*
X532149Y1317705D01*
X532129Y1317706D01*
X532098Y1317713D01*
X531828Y1317749D01*
X531823Y1317749D01*
X531817Y1317750D01*
X531649Y1317751D01*
X531192Y1317703D01*
X531158Y1317694D01*
X531122Y1317692D01*
X530962Y1317641D01*
X530127Y1317269D01*
X530064Y1317228D01*
X529996Y1317194D01*
X529948Y1317151D01*
X529921Y1317134D01*
X529905Y1317114D01*
X529871Y1317083D01*
X529259Y1316403D01*
X529240Y1316373D01*
X529214Y1316348D01*
X529130Y1316203D01*
X528943Y1315783D01*
X528936Y1315756D01*
X528915Y1315708D01*
X528626Y1314817D01*
X526956Y1313964D01*
X525173Y1314542D01*
X524321Y1316211D01*
X524609Y1317103D01*
X525100Y1318617D01*
X527229Y1320985D01*
X530137Y1322281D01*
X533424Y1322281D01*
X536361Y1320585D01*
X538056Y1317649D01*
X538056Y1314594D01*
X536984Y1312093D01*
X536114Y1311264D01*
X536098Y1311242D01*
X536059Y1311206D01*
X532721Y1307279D01*
X532700Y1307244D01*
X532672Y1307214D01*
X532637Y1307139D01*
X532594Y1307068D01*
X532585Y1307028D01*
X532568Y1306991D01*
X532559Y1306909D01*
X532541Y1306828D01*
X532545Y1306787D01*
X532541Y1306747D01*
X532559Y1306666D01*
X532567Y1306584D01*
X532584Y1306546D01*
X532593Y1306506D01*
X532636Y1306435D01*
X532670Y1306360D01*
X532698Y1306330D01*
X532719Y1306295D01*
X532782Y1306241D01*
X532839Y1306181D01*
X532875Y1306162D01*
X532906Y1306135D01*
X532983Y1306104D01*
X533056Y1306065D01*
X533096Y1306059D01*
X533134Y1306043D01*
X533293Y1306026D01*
X533298Y1306025D01*
X533300Y1306025D01*
X533301Y1306025D01*
X536730Y1306025D01*
X538056Y1304699D01*
X538056Y1302825D01*
X536730Y1301499D01*
X526884Y1301499D01*
X526862Y1301496D01*
X526823Y1301497D01*
X525963Y1301427D01*
X525933Y1301445D01*
G37*
%LPD*%
%LPC*%
G36*
X290929Y304999D02*
X290929Y304999D01*
X287999Y307929D01*
X287999Y312071D01*
X290929Y315001D01*
X295071Y315001D01*
X297962Y312110D01*
X297978Y312099D01*
X297990Y312083D01*
X298078Y312027D01*
X298161Y311967D01*
X298180Y311961D01*
X298197Y311950D01*
X298298Y311925D01*
X298397Y311894D01*
X298416Y311895D01*
X298436Y311890D01*
X298539Y311898D01*
X298642Y311901D01*
X298661Y311908D01*
X298681Y311909D01*
X298776Y311950D01*
X298873Y311985D01*
X298889Y311998D01*
X298907Y312006D01*
X299038Y312110D01*
X301929Y315001D01*
X306071Y315001D01*
X309001Y312071D01*
X309001Y307929D01*
X306071Y304999D01*
X301929Y304999D01*
X299038Y307890D01*
X299022Y307901D01*
X299010Y307917D01*
X298922Y307973D01*
X298839Y308033D01*
X298820Y308039D01*
X298803Y308050D01*
X298702Y308075D01*
X298603Y308106D01*
X298584Y308105D01*
X298564Y308110D01*
X298461Y308102D01*
X298358Y308099D01*
X298339Y308092D01*
X298319Y308091D01*
X298224Y308050D01*
X298127Y308015D01*
X298111Y308002D01*
X298093Y307994D01*
X297962Y307890D01*
X295071Y304999D01*
X290929Y304999D01*
G37*
%LPD*%
%LPC*%
G36*
X176929Y56999D02*
X176929Y56999D01*
X173999Y59929D01*
X173999Y64071D01*
X176890Y66962D01*
X176901Y66978D01*
X176917Y66990D01*
X176973Y67078D01*
X177033Y67161D01*
X177039Y67180D01*
X177050Y67197D01*
X177075Y67298D01*
X177106Y67397D01*
X177105Y67416D01*
X177110Y67436D01*
X177102Y67539D01*
X177099Y67642D01*
X177092Y67661D01*
X177091Y67681D01*
X177050Y67776D01*
X177015Y67873D01*
X177002Y67889D01*
X176994Y67907D01*
X176890Y68038D01*
X173999Y70929D01*
X173999Y75071D01*
X176929Y78001D01*
X181071Y78001D01*
X184001Y75071D01*
X184001Y70929D01*
X181110Y68038D01*
X181099Y68022D01*
X181083Y68010D01*
X181027Y67922D01*
X180967Y67839D01*
X180961Y67820D01*
X180950Y67803D01*
X180925Y67702D01*
X180894Y67603D01*
X180895Y67584D01*
X180890Y67564D01*
X180898Y67461D01*
X180901Y67358D01*
X180908Y67339D01*
X180909Y67319D01*
X180950Y67224D01*
X180985Y67127D01*
X180998Y67111D01*
X181006Y67093D01*
X181110Y66962D01*
X184001Y64071D01*
X184001Y59929D01*
X181071Y56999D01*
X176929Y56999D01*
G37*
%LPD*%
%LPC*%
G36*
X228929Y42999D02*
X228929Y42999D01*
X225999Y45929D01*
X225999Y50071D01*
X228929Y53001D01*
X231089Y53001D01*
X231160Y53012D01*
X231232Y53014D01*
X231281Y53032D01*
X231332Y53040D01*
X231395Y53074D01*
X231463Y53099D01*
X231503Y53131D01*
X231549Y53156D01*
X231599Y53208D01*
X231655Y53252D01*
X231683Y53296D01*
X231719Y53334D01*
X231749Y53399D01*
X231788Y53459D01*
X231801Y53510D01*
X231822Y53557D01*
X231830Y53628D01*
X231848Y53698D01*
X231844Y53750D01*
X231850Y53801D01*
X231834Y53872D01*
X231829Y53943D01*
X231808Y53991D01*
X231797Y54042D01*
X231761Y54103D01*
X231732Y54169D01*
X231688Y54225D01*
X231671Y54253D01*
X231653Y54268D01*
X231628Y54300D01*
X229999Y55929D01*
X229999Y60071D01*
X232929Y63001D01*
X237071Y63001D01*
X240001Y60071D01*
X240001Y55929D01*
X237071Y52999D01*
X234911Y52999D01*
X234840Y52988D01*
X234768Y52986D01*
X234719Y52968D01*
X234668Y52960D01*
X234605Y52926D01*
X234537Y52901D01*
X234497Y52869D01*
X234451Y52844D01*
X234401Y52792D01*
X234345Y52748D01*
X234317Y52704D01*
X234281Y52666D01*
X234251Y52601D01*
X234212Y52541D01*
X234199Y52490D01*
X234178Y52443D01*
X234170Y52372D01*
X234152Y52302D01*
X234156Y52250D01*
X234150Y52199D01*
X234166Y52128D01*
X234171Y52057D01*
X234192Y52009D01*
X234203Y51958D01*
X234239Y51897D01*
X234268Y51831D01*
X234312Y51775D01*
X234329Y51747D01*
X234347Y51732D01*
X234372Y51700D01*
X236001Y50071D01*
X236001Y45929D01*
X233071Y42999D01*
X228929Y42999D01*
G37*
%LPD*%
%LPC*%
G36*
X131929Y72999D02*
X131929Y72999D01*
X128999Y75929D01*
X128999Y80071D01*
X131390Y82462D01*
X131401Y82478D01*
X131417Y82490D01*
X131473Y82578D01*
X131533Y82661D01*
X131539Y82680D01*
X131550Y82697D01*
X131575Y82798D01*
X131606Y82897D01*
X131605Y82916D01*
X131610Y82936D01*
X131602Y83039D01*
X131599Y83142D01*
X131592Y83161D01*
X131591Y83181D01*
X131550Y83276D01*
X131515Y83373D01*
X131502Y83389D01*
X131494Y83407D01*
X131390Y83538D01*
X128999Y85929D01*
X128999Y90071D01*
X131929Y93001D01*
X136071Y93001D01*
X139001Y90071D01*
X139001Y85929D01*
X136610Y83538D01*
X136599Y83522D01*
X136583Y83510D01*
X136527Y83422D01*
X136467Y83339D01*
X136461Y83320D01*
X136450Y83303D01*
X136425Y83202D01*
X136394Y83103D01*
X136395Y83084D01*
X136390Y83064D01*
X136398Y82961D01*
X136401Y82858D01*
X136408Y82839D01*
X136409Y82819D01*
X136450Y82724D01*
X136485Y82627D01*
X136498Y82611D01*
X136506Y82593D01*
X136610Y82462D01*
X139001Y80071D01*
X139001Y75929D01*
X136071Y72999D01*
X131929Y72999D01*
G37*
%LPD*%
%LPC*%
G36*
X117136Y132499D02*
X117136Y132499D01*
X114499Y135136D01*
X114499Y138864D01*
X115835Y140200D01*
X115877Y140258D01*
X115926Y140310D01*
X115948Y140357D01*
X115978Y140399D01*
X115999Y140468D01*
X116030Y140533D01*
X116035Y140585D01*
X116051Y140635D01*
X116049Y140706D01*
X116057Y140777D01*
X116046Y140828D01*
X116044Y140880D01*
X116020Y140948D01*
X116004Y141018D01*
X115978Y141063D01*
X115960Y141111D01*
X115915Y141167D01*
X115878Y141229D01*
X115839Y141263D01*
X115806Y141303D01*
X115746Y141342D01*
X115691Y141389D01*
X115643Y141408D01*
X115599Y141436D01*
X115530Y141454D01*
X115463Y141481D01*
X115392Y141489D01*
X115361Y141497D01*
X115337Y141495D01*
X115296Y141499D01*
X115136Y141499D01*
X112499Y144136D01*
X112499Y147864D01*
X115136Y150501D01*
X118864Y150501D01*
X121501Y147864D01*
X121501Y144136D01*
X120165Y142800D01*
X120123Y142742D01*
X120074Y142690D01*
X120052Y142643D01*
X120022Y142601D01*
X120001Y142532D01*
X119970Y142467D01*
X119965Y142415D01*
X119949Y142365D01*
X119951Y142294D01*
X119943Y142223D01*
X119954Y142172D01*
X119956Y142120D01*
X119980Y142052D01*
X119996Y141982D01*
X120022Y141937D01*
X120040Y141889D01*
X120085Y141833D01*
X120122Y141771D01*
X120161Y141737D01*
X120194Y141697D01*
X120254Y141658D01*
X120309Y141611D01*
X120357Y141592D01*
X120401Y141564D01*
X120470Y141546D01*
X120537Y141519D01*
X120608Y141511D01*
X120639Y141503D01*
X120663Y141505D01*
X120704Y141501D01*
X120864Y141501D01*
X123501Y138864D01*
X123501Y135136D01*
X120864Y132499D01*
X117136Y132499D01*
G37*
%LPD*%
%LPC*%
G36*
X1180732Y1279624D02*
X1180732Y1279624D01*
X1178388Y1280595D01*
X1176595Y1282388D01*
X1175624Y1284732D01*
X1175624Y1287268D01*
X1176595Y1289612D01*
X1178388Y1291405D01*
X1180732Y1292376D01*
X1183268Y1292376D01*
X1185612Y1291405D01*
X1187405Y1289612D01*
X1188376Y1287268D01*
X1188376Y1284732D01*
X1187405Y1282388D01*
X1185612Y1280595D01*
X1183268Y1279624D01*
X1180732Y1279624D01*
G37*
%LPD*%
%LPC*%
G36*
X1103732Y1355624D02*
X1103732Y1355624D01*
X1101388Y1356595D01*
X1099595Y1358388D01*
X1098624Y1360732D01*
X1098624Y1363268D01*
X1099595Y1365612D01*
X1101388Y1367405D01*
X1103732Y1368376D01*
X1106268Y1368376D01*
X1108612Y1367405D01*
X1110405Y1365612D01*
X1111376Y1363268D01*
X1111376Y1360732D01*
X1110405Y1358388D01*
X1108612Y1356595D01*
X1106268Y1355624D01*
X1103732Y1355624D01*
G37*
%LPD*%
%LPC*%
G36*
X1214732Y1349624D02*
X1214732Y1349624D01*
X1212388Y1350595D01*
X1210595Y1352388D01*
X1209624Y1354732D01*
X1209624Y1357268D01*
X1210595Y1359612D01*
X1212388Y1361405D01*
X1214732Y1362376D01*
X1217268Y1362376D01*
X1219612Y1361405D01*
X1221405Y1359612D01*
X1222376Y1357268D01*
X1222376Y1354732D01*
X1221405Y1352388D01*
X1219612Y1350595D01*
X1217268Y1349624D01*
X1214732Y1349624D01*
G37*
%LPD*%
%LPC*%
G36*
X1002732Y1323624D02*
X1002732Y1323624D01*
X1000388Y1324595D01*
X998595Y1326388D01*
X997624Y1328732D01*
X997624Y1331268D01*
X998595Y1333612D01*
X1000388Y1335405D01*
X1002732Y1336376D01*
X1005268Y1336376D01*
X1007612Y1335405D01*
X1009405Y1333612D01*
X1010376Y1331268D01*
X1010376Y1328732D01*
X1009405Y1326388D01*
X1007612Y1324595D01*
X1005268Y1323624D01*
X1002732Y1323624D01*
G37*
%LPD*%
%LPC*%
G36*
X1076732Y1317624D02*
X1076732Y1317624D01*
X1074388Y1318595D01*
X1072595Y1320388D01*
X1071624Y1322732D01*
X1071624Y1325268D01*
X1072595Y1327612D01*
X1074388Y1329405D01*
X1076732Y1330376D01*
X1079268Y1330376D01*
X1081612Y1329405D01*
X1083405Y1327612D01*
X1084376Y1325268D01*
X1084376Y1322732D01*
X1083405Y1320388D01*
X1081612Y1318595D01*
X1079268Y1317624D01*
X1076732Y1317624D01*
G37*
%LPD*%
%LPC*%
G36*
X306732Y1395624D02*
X306732Y1395624D01*
X304388Y1396595D01*
X302595Y1398388D01*
X301624Y1400732D01*
X301624Y1403268D01*
X302595Y1405612D01*
X304388Y1407405D01*
X306732Y1408376D01*
X309268Y1408376D01*
X311612Y1407405D01*
X313405Y1405612D01*
X314376Y1403268D01*
X314376Y1400732D01*
X313405Y1398388D01*
X311612Y1396595D01*
X309268Y1395624D01*
X306732Y1395624D01*
G37*
%LPD*%
%LPC*%
G36*
X283732Y1394624D02*
X283732Y1394624D01*
X281388Y1395595D01*
X279595Y1397388D01*
X278624Y1399732D01*
X278624Y1402268D01*
X279595Y1404612D01*
X281388Y1406405D01*
X283732Y1407376D01*
X286268Y1407376D01*
X288612Y1406405D01*
X290405Y1404612D01*
X291376Y1402268D01*
X291376Y1399732D01*
X290405Y1397388D01*
X288612Y1395595D01*
X286268Y1394624D01*
X283732Y1394624D01*
G37*
%LPD*%
%LPC*%
G36*
X220732Y1458624D02*
X220732Y1458624D01*
X218388Y1459595D01*
X216595Y1461388D01*
X215624Y1463732D01*
X215624Y1466268D01*
X216595Y1468612D01*
X218388Y1470405D01*
X220732Y1471376D01*
X223268Y1471376D01*
X225612Y1470405D01*
X227405Y1468612D01*
X228376Y1466268D01*
X228376Y1463732D01*
X227405Y1461388D01*
X225612Y1459595D01*
X223268Y1458624D01*
X220732Y1458624D01*
G37*
%LPD*%
%LPC*%
G36*
X1351732Y1454624D02*
X1351732Y1454624D01*
X1349388Y1455595D01*
X1347595Y1457388D01*
X1346624Y1459732D01*
X1346624Y1462268D01*
X1347595Y1464612D01*
X1349388Y1466405D01*
X1351732Y1467376D01*
X1354268Y1467376D01*
X1356612Y1466405D01*
X1358405Y1464612D01*
X1359376Y1462268D01*
X1359376Y1459732D01*
X1358405Y1457388D01*
X1356612Y1455595D01*
X1354268Y1454624D01*
X1351732Y1454624D01*
G37*
%LPD*%
%LPC*%
G36*
X1074732Y1291624D02*
X1074732Y1291624D01*
X1072388Y1292595D01*
X1070595Y1294388D01*
X1069624Y1296732D01*
X1069624Y1299268D01*
X1070595Y1301612D01*
X1072388Y1303405D01*
X1074732Y1304376D01*
X1077268Y1304376D01*
X1079612Y1303405D01*
X1081405Y1301612D01*
X1082376Y1299268D01*
X1082376Y1296732D01*
X1081405Y1294388D01*
X1079612Y1292595D01*
X1077268Y1291624D01*
X1074732Y1291624D01*
G37*
%LPD*%
%LPC*%
G36*
X306732Y1413624D02*
X306732Y1413624D01*
X304388Y1414595D01*
X302595Y1416388D01*
X301624Y1418732D01*
X301624Y1421268D01*
X302595Y1423612D01*
X304388Y1425405D01*
X306732Y1426376D01*
X309268Y1426376D01*
X311612Y1425405D01*
X313405Y1423612D01*
X314376Y1421268D01*
X314376Y1418732D01*
X313405Y1416388D01*
X311612Y1414595D01*
X309268Y1413624D01*
X306732Y1413624D01*
G37*
%LPD*%
%LPC*%
G36*
X284732Y1413624D02*
X284732Y1413624D01*
X282388Y1414595D01*
X280595Y1416388D01*
X279624Y1418732D01*
X279624Y1421268D01*
X280595Y1423612D01*
X282388Y1425405D01*
X284732Y1426376D01*
X287268Y1426376D01*
X289612Y1425405D01*
X291405Y1423612D01*
X292376Y1421268D01*
X292376Y1418732D01*
X291405Y1416388D01*
X289612Y1414595D01*
X287268Y1413624D01*
X284732Y1413624D01*
G37*
%LPD*%
%LPC*%
G36*
X306732Y1374624D02*
X306732Y1374624D01*
X304388Y1375595D01*
X302595Y1377388D01*
X301624Y1379732D01*
X301624Y1382268D01*
X302595Y1384612D01*
X304388Y1386405D01*
X306732Y1387376D01*
X309268Y1387376D01*
X311612Y1386405D01*
X313405Y1384612D01*
X314376Y1382268D01*
X314376Y1379732D01*
X313405Y1377388D01*
X311612Y1375595D01*
X309268Y1374624D01*
X306732Y1374624D01*
G37*
%LPD*%
%LPC*%
G36*
X283732Y1373624D02*
X283732Y1373624D01*
X281388Y1374595D01*
X279595Y1376388D01*
X278624Y1378732D01*
X278624Y1381268D01*
X279595Y1383612D01*
X281388Y1385405D01*
X283732Y1386376D01*
X286268Y1386376D01*
X288612Y1385405D01*
X290405Y1383612D01*
X291376Y1381268D01*
X291376Y1378732D01*
X290405Y1376388D01*
X288612Y1374595D01*
X286268Y1373624D01*
X283732Y1373624D01*
G37*
%LPD*%
%LPC*%
G36*
X117136Y118499D02*
X117136Y118499D01*
X114359Y121276D01*
X114285Y121329D01*
X114215Y121389D01*
X114185Y121401D01*
X114159Y121420D01*
X114072Y121447D01*
X113987Y121481D01*
X113946Y121485D01*
X113924Y121492D01*
X113892Y121491D01*
X113820Y121499D01*
X110136Y121499D01*
X107499Y124136D01*
X107499Y127864D01*
X110136Y130501D01*
X113864Y130501D01*
X116641Y127724D01*
X116715Y127671D01*
X116785Y127611D01*
X116815Y127599D01*
X116841Y127580D01*
X116928Y127553D01*
X117013Y127519D01*
X117054Y127515D01*
X117076Y127508D01*
X117108Y127509D01*
X117180Y127501D01*
X120864Y127501D01*
X123501Y124864D01*
X123501Y121136D01*
X120864Y118499D01*
X117136Y118499D01*
G37*
%LPD*%
%LPC*%
G36*
X320929Y206999D02*
X320929Y206999D01*
X317999Y209929D01*
X317999Y214071D01*
X320929Y217001D01*
X325071Y217001D01*
X328001Y214071D01*
X328001Y209929D01*
X325071Y206999D01*
X320929Y206999D01*
G37*
%LPD*%
%LPC*%
G36*
X358929Y199999D02*
X358929Y199999D01*
X355999Y202929D01*
X355999Y207071D01*
X358929Y210001D01*
X363071Y210001D01*
X366001Y207071D01*
X366001Y202929D01*
X363071Y199999D01*
X358929Y199999D01*
G37*
%LPD*%
%LPC*%
G36*
X135929Y101999D02*
X135929Y101999D01*
X132999Y104929D01*
X132999Y109071D01*
X135929Y112001D01*
X140071Y112001D01*
X143001Y109071D01*
X143001Y104929D01*
X140071Y101999D01*
X135929Y101999D01*
G37*
%LPD*%
%LPC*%
G36*
X163929Y107999D02*
X163929Y107999D01*
X160999Y110929D01*
X160999Y115071D01*
X163929Y118001D01*
X168071Y118001D01*
X171001Y115071D01*
X171001Y110929D01*
X168071Y107999D01*
X163929Y107999D01*
G37*
%LPD*%
%LPC*%
G36*
X248929Y238999D02*
X248929Y238999D01*
X245999Y241929D01*
X245999Y246071D01*
X248929Y249001D01*
X253071Y249001D01*
X256001Y246071D01*
X256001Y241929D01*
X253071Y238999D01*
X248929Y238999D01*
G37*
%LPD*%
%LPC*%
G36*
X248929Y255999D02*
X248929Y255999D01*
X245999Y258929D01*
X245999Y263071D01*
X248929Y266001D01*
X253071Y266001D01*
X256001Y263071D01*
X256001Y258929D01*
X253071Y255999D01*
X248929Y255999D01*
G37*
%LPD*%
%LPC*%
G36*
X289136Y379499D02*
X289136Y379499D01*
X286499Y382136D01*
X286499Y385864D01*
X289136Y388501D01*
X292864Y388501D01*
X295501Y385864D01*
X295501Y382136D01*
X292864Y379499D01*
X289136Y379499D01*
G37*
%LPD*%
%LPC*%
G36*
X169136Y1371499D02*
X169136Y1371499D01*
X166499Y1374136D01*
X166499Y1377864D01*
X169136Y1380501D01*
X172864Y1380501D01*
X175501Y1377864D01*
X175501Y1374136D01*
X172864Y1371499D01*
X169136Y1371499D01*
G37*
%LPD*%
%LPC*%
G36*
X134136Y1369499D02*
X134136Y1369499D01*
X131499Y1372136D01*
X131499Y1375864D01*
X134136Y1378501D01*
X137864Y1378501D01*
X140501Y1375864D01*
X140501Y1372136D01*
X137864Y1369499D01*
X134136Y1369499D01*
G37*
%LPD*%
%LPC*%
G36*
X73136Y1367499D02*
X73136Y1367499D01*
X70499Y1370136D01*
X70499Y1373864D01*
X73136Y1376501D01*
X76864Y1376501D01*
X79501Y1373864D01*
X79501Y1370136D01*
X76864Y1367499D01*
X73136Y1367499D01*
G37*
%LPD*%
%LPC*%
G36*
X334136Y355499D02*
X334136Y355499D01*
X331499Y358136D01*
X331499Y361864D01*
X334136Y364501D01*
X337864Y364501D01*
X340501Y361864D01*
X340501Y358136D01*
X337864Y355499D01*
X334136Y355499D01*
G37*
%LPD*%
%LPC*%
G36*
X304136Y355499D02*
X304136Y355499D01*
X301499Y358136D01*
X301499Y361864D01*
X304136Y364501D01*
X307864Y364501D01*
X310501Y361864D01*
X310501Y358136D01*
X307864Y355499D01*
X304136Y355499D01*
G37*
%LPD*%
%LPC*%
G36*
X376136Y307499D02*
X376136Y307499D01*
X373499Y310136D01*
X373499Y313864D01*
X376136Y316501D01*
X379864Y316501D01*
X382501Y313864D01*
X382501Y310136D01*
X379864Y307499D01*
X376136Y307499D01*
G37*
%LPD*%
%LPC*%
G36*
X353136Y303499D02*
X353136Y303499D01*
X350499Y306136D01*
X350499Y309864D01*
X353136Y312501D01*
X356864Y312501D01*
X359501Y309864D01*
X359501Y306136D01*
X356864Y303499D01*
X353136Y303499D01*
G37*
%LPD*%
%LPC*%
G36*
X368136Y300499D02*
X368136Y300499D01*
X365499Y303136D01*
X365499Y306864D01*
X368136Y309501D01*
X371864Y309501D01*
X374501Y306864D01*
X374501Y303136D01*
X371864Y300499D01*
X368136Y300499D01*
G37*
%LPD*%
%LPC*%
G36*
X866136Y1309499D02*
X866136Y1309499D01*
X863499Y1312136D01*
X863499Y1315864D01*
X866136Y1318501D01*
X869864Y1318501D01*
X872501Y1315864D01*
X872501Y1312136D01*
X869864Y1309499D01*
X866136Y1309499D01*
G37*
%LPD*%
%LPC*%
G36*
X827136Y1301499D02*
X827136Y1301499D01*
X824499Y1304136D01*
X824499Y1307864D01*
X827136Y1310501D01*
X830864Y1310501D01*
X833501Y1307864D01*
X833501Y1304136D01*
X830864Y1301499D01*
X827136Y1301499D01*
G37*
%LPD*%
%LPC*%
G36*
X360136Y269499D02*
X360136Y269499D01*
X357499Y272136D01*
X357499Y275864D01*
X360136Y278501D01*
X363864Y278501D01*
X366501Y275864D01*
X366501Y272136D01*
X363864Y269499D01*
X360136Y269499D01*
G37*
%LPD*%
%LPC*%
G36*
X316136Y255499D02*
X316136Y255499D01*
X313499Y258136D01*
X313499Y261864D01*
X316136Y264501D01*
X319864Y264501D01*
X322501Y261864D01*
X322501Y258136D01*
X319864Y255499D01*
X316136Y255499D01*
G37*
%LPD*%
%LPC*%
G36*
X104136Y104499D02*
X104136Y104499D01*
X101499Y107136D01*
X101499Y110864D01*
X104136Y113501D01*
X107864Y113501D01*
X110501Y110864D01*
X110501Y107136D01*
X107864Y104499D01*
X104136Y104499D01*
G37*
%LPD*%
%LPC*%
G36*
X124136Y1051499D02*
X124136Y1051499D01*
X121499Y1054136D01*
X121499Y1057864D01*
X124136Y1060501D01*
X127864Y1060501D01*
X130501Y1057864D01*
X130501Y1054136D01*
X127864Y1051499D01*
X124136Y1051499D01*
G37*
%LPD*%
%LPC*%
G36*
X123136Y1034499D02*
X123136Y1034499D01*
X120499Y1037136D01*
X120499Y1040864D01*
X123136Y1043501D01*
X126864Y1043501D01*
X129501Y1040864D01*
X129501Y1037136D01*
X126864Y1034499D01*
X123136Y1034499D01*
G37*
%LPD*%
%LPC*%
G36*
X109136Y1030499D02*
X109136Y1030499D01*
X106499Y1033136D01*
X106499Y1036864D01*
X109136Y1039501D01*
X112864Y1039501D01*
X115501Y1036864D01*
X115501Y1033136D01*
X112864Y1030499D01*
X109136Y1030499D01*
G37*
%LPD*%
%LPC*%
G36*
X131136Y943499D02*
X131136Y943499D01*
X128499Y946136D01*
X128499Y949864D01*
X131136Y952501D01*
X134864Y952501D01*
X137501Y949864D01*
X137501Y946136D01*
X134864Y943499D01*
X131136Y943499D01*
G37*
%LPD*%
%LPC*%
G36*
X107136Y902499D02*
X107136Y902499D01*
X104499Y905136D01*
X104499Y908864D01*
X107136Y911501D01*
X110864Y911501D01*
X113501Y908864D01*
X113501Y905136D01*
X110864Y902499D01*
X107136Y902499D01*
G37*
%LPD*%
%LPC*%
G36*
X143136Y791499D02*
X143136Y791499D01*
X140499Y794136D01*
X140499Y797864D01*
X143136Y800501D01*
X146864Y800501D01*
X149501Y797864D01*
X149501Y794136D01*
X146864Y791499D01*
X143136Y791499D01*
G37*
%LPD*%
%LPC*%
G36*
X788136Y1449499D02*
X788136Y1449499D01*
X785499Y1452136D01*
X785499Y1455864D01*
X788136Y1458501D01*
X791864Y1458501D01*
X794501Y1455864D01*
X794501Y1452136D01*
X791864Y1449499D01*
X788136Y1449499D01*
G37*
%LPD*%
%LPC*%
G36*
X125136Y753499D02*
X125136Y753499D01*
X122499Y756136D01*
X122499Y759864D01*
X125136Y762501D01*
X128864Y762501D01*
X131501Y759864D01*
X131501Y756136D01*
X128864Y753499D01*
X125136Y753499D01*
G37*
%LPD*%
%LPC*%
G36*
X143136Y747499D02*
X143136Y747499D01*
X140499Y750136D01*
X140499Y753864D01*
X143136Y756501D01*
X146864Y756501D01*
X149501Y753864D01*
X149501Y750136D01*
X146864Y747499D01*
X143136Y747499D01*
G37*
%LPD*%
%LPC*%
G36*
X231136Y1444499D02*
X231136Y1444499D01*
X228499Y1447136D01*
X228499Y1450864D01*
X231136Y1453501D01*
X234864Y1453501D01*
X237501Y1450864D01*
X237501Y1447136D01*
X234864Y1444499D01*
X231136Y1444499D01*
G37*
%LPD*%
%LPC*%
G36*
X108136Y746499D02*
X108136Y746499D01*
X105499Y749136D01*
X105499Y752864D01*
X108136Y755501D01*
X111864Y755501D01*
X114501Y752864D01*
X114501Y749136D01*
X111864Y746499D01*
X108136Y746499D01*
G37*
%LPD*%
%LPC*%
G36*
X148136Y1374499D02*
X148136Y1374499D01*
X145499Y1377136D01*
X145499Y1380864D01*
X148136Y1383501D01*
X151864Y1383501D01*
X154501Y1380864D01*
X154501Y1377136D01*
X151864Y1374499D01*
X148136Y1374499D01*
G37*
%LPD*%
%LPC*%
G36*
X106136Y729499D02*
X106136Y729499D01*
X103499Y732136D01*
X103499Y735864D01*
X106136Y738501D01*
X109864Y738501D01*
X112501Y735864D01*
X112501Y732136D01*
X109864Y729499D01*
X106136Y729499D01*
G37*
%LPD*%
%LPC*%
G36*
X360136Y482499D02*
X360136Y482499D01*
X357499Y485136D01*
X357499Y488864D01*
X360136Y491501D01*
X363864Y491501D01*
X366501Y488864D01*
X366501Y485136D01*
X363864Y482499D01*
X360136Y482499D01*
G37*
%LPD*%
%LPC*%
G36*
X106136Y451499D02*
X106136Y451499D01*
X103499Y454136D01*
X103499Y457864D01*
X106136Y460501D01*
X109864Y460501D01*
X112501Y457864D01*
X112501Y454136D01*
X109864Y451499D01*
X106136Y451499D01*
G37*
%LPD*%
%LPC*%
G36*
X73136Y1422499D02*
X73136Y1422499D01*
X70499Y1425136D01*
X70499Y1428864D01*
X73136Y1431501D01*
X76864Y1431501D01*
X79501Y1428864D01*
X79501Y1425136D01*
X76864Y1422499D01*
X73136Y1422499D01*
G37*
%LPD*%
%LPC*%
G36*
X134136Y1421499D02*
X134136Y1421499D01*
X131499Y1424136D01*
X131499Y1427864D01*
X134136Y1430501D01*
X137864Y1430501D01*
X140501Y1427864D01*
X140501Y1424136D01*
X137864Y1421499D01*
X134136Y1421499D01*
G37*
%LPD*%
%LPC*%
G36*
X90136Y1415499D02*
X90136Y1415499D01*
X87499Y1418136D01*
X87499Y1421864D01*
X90136Y1424501D01*
X93864Y1424501D01*
X96501Y1421864D01*
X96501Y1418136D01*
X93864Y1415499D01*
X90136Y1415499D01*
G37*
%LPD*%
%LPC*%
G36*
X56136Y1414499D02*
X56136Y1414499D01*
X53499Y1417136D01*
X53499Y1420864D01*
X56136Y1423501D01*
X59864Y1423501D01*
X62501Y1420864D01*
X62501Y1417136D01*
X59864Y1414499D01*
X56136Y1414499D01*
G37*
%LPD*%
%LPC*%
G36*
X339136Y439499D02*
X339136Y439499D01*
X336499Y442136D01*
X336499Y445864D01*
X339136Y448501D01*
X342864Y448501D01*
X345501Y445864D01*
X345501Y442136D01*
X342864Y439499D01*
X339136Y439499D01*
G37*
%LPD*%
%LPC*%
G36*
X369136Y439499D02*
X369136Y439499D01*
X366499Y442136D01*
X366499Y445864D01*
X369136Y448501D01*
X372864Y448501D01*
X375501Y445864D01*
X375501Y442136D01*
X372864Y439499D01*
X369136Y439499D01*
G37*
%LPD*%
%LPC*%
G36*
X150136Y1413499D02*
X150136Y1413499D01*
X147499Y1416136D01*
X147499Y1419864D01*
X150136Y1422501D01*
X153864Y1422501D01*
X156501Y1419864D01*
X156501Y1416136D01*
X153864Y1413499D01*
X150136Y1413499D01*
G37*
%LPD*%
%LPC*%
G36*
X119136Y1410499D02*
X119136Y1410499D01*
X116499Y1413136D01*
X116499Y1416864D01*
X119136Y1419501D01*
X122864Y1419501D01*
X125501Y1416864D01*
X125501Y1413136D01*
X122864Y1410499D01*
X119136Y1410499D01*
G37*
%LPD*%
%LPC*%
G36*
X308136Y439499D02*
X308136Y439499D01*
X305499Y442136D01*
X305499Y445864D01*
X308136Y448501D01*
X311864Y448501D01*
X314501Y445864D01*
X314501Y442136D01*
X311864Y439499D01*
X308136Y439499D01*
G37*
%LPD*%
%LPC*%
G36*
X107136Y431499D02*
X107136Y431499D01*
X104499Y434136D01*
X104499Y437864D01*
X107136Y440501D01*
X110864Y440501D01*
X113501Y437864D01*
X113501Y434136D01*
X110864Y431499D01*
X107136Y431499D01*
G37*
%LPD*%
%LPC*%
G36*
X212136Y428499D02*
X212136Y428499D01*
X209499Y431136D01*
X209499Y434864D01*
X212136Y437501D01*
X215864Y437501D01*
X218501Y434864D01*
X218501Y431136D01*
X215864Y428499D01*
X212136Y428499D01*
G37*
%LPD*%
%LPC*%
G36*
X179136Y428499D02*
X179136Y428499D01*
X176499Y431136D01*
X176499Y434864D01*
X179136Y437501D01*
X182864Y437501D01*
X185501Y434864D01*
X185501Y431136D01*
X182864Y428499D01*
X179136Y428499D01*
G37*
%LPD*%
%LPC*%
G36*
X55136Y1395499D02*
X55136Y1395499D01*
X52499Y1398136D01*
X52499Y1401864D01*
X55136Y1404501D01*
X58864Y1404501D01*
X61501Y1401864D01*
X61501Y1398136D01*
X58864Y1395499D01*
X55136Y1395499D01*
G37*
%LPD*%
%LPC*%
G36*
X91136Y1395499D02*
X91136Y1395499D01*
X88499Y1398136D01*
X88499Y1401864D01*
X91136Y1404501D01*
X94864Y1404501D01*
X97501Y1401864D01*
X97501Y1398136D01*
X94864Y1395499D01*
X91136Y1395499D01*
G37*
%LPD*%
%LPC*%
G36*
X153136Y1395499D02*
X153136Y1395499D01*
X150499Y1398136D01*
X150499Y1401864D01*
X153136Y1404501D01*
X156864Y1404501D01*
X159501Y1401864D01*
X159501Y1398136D01*
X156864Y1395499D01*
X153136Y1395499D01*
G37*
%LPD*%
%LPC*%
G36*
X117136Y1394499D02*
X117136Y1394499D01*
X114499Y1397136D01*
X114499Y1400864D01*
X117136Y1403501D01*
X120864Y1403501D01*
X123501Y1400864D01*
X123501Y1397136D01*
X120864Y1394499D01*
X117136Y1394499D01*
G37*
%LPD*%
%LPC*%
G36*
X373136Y424499D02*
X373136Y424499D01*
X370499Y427136D01*
X370499Y430864D01*
X373136Y433501D01*
X376864Y433501D01*
X379501Y430864D01*
X379501Y427136D01*
X376864Y424499D01*
X373136Y424499D01*
G37*
%LPD*%
%LPC*%
G36*
X289136Y409499D02*
X289136Y409499D01*
X286499Y412136D01*
X286499Y415864D01*
X289136Y418501D01*
X292864Y418501D01*
X295501Y415864D01*
X295501Y412136D01*
X292864Y409499D01*
X289136Y409499D01*
G37*
%LPD*%
%LPC*%
G36*
X373136Y394499D02*
X373136Y394499D01*
X370499Y397136D01*
X370499Y400864D01*
X373136Y403501D01*
X376864Y403501D01*
X379501Y400864D01*
X379501Y397136D01*
X376864Y394499D01*
X373136Y394499D01*
G37*
%LPD*%
%LPC*%
G36*
X56136Y1376499D02*
X56136Y1376499D01*
X53499Y1379136D01*
X53499Y1382864D01*
X56136Y1385501D01*
X59864Y1385501D01*
X62501Y1382864D01*
X62501Y1379136D01*
X59864Y1376499D01*
X56136Y1376499D01*
G37*
%LPD*%
%LPC*%
G36*
X90136Y1376499D02*
X90136Y1376499D01*
X87499Y1379136D01*
X87499Y1382864D01*
X90136Y1385501D01*
X93864Y1385501D01*
X96501Y1382864D01*
X96501Y1379136D01*
X93864Y1376499D01*
X90136Y1376499D01*
G37*
%LPD*%
%LPC*%
G36*
X118136Y1375499D02*
X118136Y1375499D01*
X115499Y1378136D01*
X115499Y1381864D01*
X118136Y1384501D01*
X121864Y1384501D01*
X124501Y1381864D01*
X124501Y1378136D01*
X121864Y1375499D01*
X118136Y1375499D01*
G37*
%LPD*%
%LPC*%
G36*
X76523Y1401523D02*
X76523Y1401523D01*
X76523Y1409384D01*
X77771Y1409136D01*
X79500Y1408419D01*
X81056Y1407380D01*
X82380Y1406056D01*
X83419Y1404500D01*
X84136Y1402771D01*
X84384Y1401523D01*
X76523Y1401523D01*
G37*
%LPD*%
%LPC*%
G36*
X76523Y1398477D02*
X76523Y1398477D01*
X84384Y1398477D01*
X84136Y1397229D01*
X83419Y1395500D01*
X82380Y1393944D01*
X81056Y1392620D01*
X79500Y1391581D01*
X77771Y1390864D01*
X76523Y1390616D01*
X76523Y1398477D01*
G37*
%LPD*%
%LPC*%
G36*
X65616Y1401523D02*
X65616Y1401523D01*
X65864Y1402771D01*
X66581Y1404500D01*
X67620Y1406056D01*
X68944Y1407380D01*
X70500Y1408419D01*
X72229Y1409136D01*
X73477Y1409384D01*
X73477Y1401523D01*
X65616Y1401523D01*
G37*
%LPD*%
%LPC*%
G36*
X72229Y1390864D02*
X72229Y1390864D01*
X70500Y1391581D01*
X68944Y1392620D01*
X67620Y1393944D01*
X66581Y1395500D01*
X65864Y1397229D01*
X65616Y1398477D01*
X73477Y1398477D01*
X73477Y1390616D01*
X72229Y1390864D01*
G37*
%LPD*%
%LPC*%
G36*
X1044523Y1478523D02*
X1044523Y1478523D01*
X1044523Y1483707D01*
X1045006Y1483611D01*
X1046257Y1483093D01*
X1047383Y1482341D01*
X1048341Y1481383D01*
X1049093Y1480257D01*
X1049611Y1479006D01*
X1049707Y1478523D01*
X1044523Y1478523D01*
G37*
%LPD*%
%LPC*%
G36*
X1249523Y1476523D02*
X1249523Y1476523D01*
X1249523Y1481707D01*
X1250006Y1481611D01*
X1251257Y1481093D01*
X1252383Y1480341D01*
X1253341Y1479383D01*
X1254093Y1478257D01*
X1254611Y1477006D01*
X1254707Y1476523D01*
X1249523Y1476523D01*
G37*
%LPD*%
%LPC*%
G36*
X1150523Y1474523D02*
X1150523Y1474523D01*
X1150523Y1479707D01*
X1151006Y1479611D01*
X1152257Y1479093D01*
X1153383Y1478341D01*
X1154341Y1477383D01*
X1155093Y1476257D01*
X1155611Y1475006D01*
X1155707Y1474523D01*
X1150523Y1474523D01*
G37*
%LPD*%
%LPC*%
G36*
X288523Y1467523D02*
X288523Y1467523D01*
X288523Y1472707D01*
X289006Y1472611D01*
X290257Y1472093D01*
X291383Y1471341D01*
X292341Y1470383D01*
X293093Y1469257D01*
X293611Y1468006D01*
X293707Y1467523D01*
X288523Y1467523D01*
G37*
%LPD*%
%LPC*%
G36*
X1178523Y1325523D02*
X1178523Y1325523D01*
X1178523Y1330707D01*
X1179006Y1330611D01*
X1180257Y1330093D01*
X1181383Y1329341D01*
X1182341Y1328383D01*
X1183093Y1327257D01*
X1183611Y1326006D01*
X1183707Y1325523D01*
X1178523Y1325523D01*
G37*
%LPD*%
%LPC*%
G36*
X1036293Y1478523D02*
X1036293Y1478523D01*
X1036389Y1479006D01*
X1036907Y1480257D01*
X1037659Y1481383D01*
X1038617Y1482341D01*
X1039743Y1483093D01*
X1040994Y1483611D01*
X1041477Y1483707D01*
X1041477Y1478523D01*
X1036293Y1478523D01*
G37*
%LPD*%
%LPC*%
G36*
X1241293Y1476523D02*
X1241293Y1476523D01*
X1241389Y1477006D01*
X1241907Y1478257D01*
X1242659Y1479383D01*
X1243617Y1480341D01*
X1244743Y1481093D01*
X1245994Y1481611D01*
X1246477Y1481707D01*
X1246477Y1476523D01*
X1241293Y1476523D01*
G37*
%LPD*%
%LPC*%
G36*
X1142293Y1474523D02*
X1142293Y1474523D01*
X1142389Y1475006D01*
X1142907Y1476257D01*
X1143659Y1477383D01*
X1144617Y1478341D01*
X1145743Y1479093D01*
X1146994Y1479611D01*
X1147477Y1479707D01*
X1147477Y1474523D01*
X1142293Y1474523D01*
G37*
%LPD*%
%LPC*%
G36*
X280293Y1467523D02*
X280293Y1467523D01*
X280389Y1468006D01*
X280907Y1469257D01*
X281659Y1470383D01*
X282617Y1471341D01*
X283743Y1472093D01*
X284994Y1472611D01*
X285477Y1472707D01*
X285477Y1467523D01*
X280293Y1467523D01*
G37*
%LPD*%
%LPC*%
G36*
X288523Y1464477D02*
X288523Y1464477D01*
X293707Y1464477D01*
X293611Y1463994D01*
X293093Y1462743D01*
X292341Y1461617D01*
X291383Y1460659D01*
X290257Y1459907D01*
X289006Y1459389D01*
X288523Y1459293D01*
X288523Y1464477D01*
G37*
%LPD*%
%LPC*%
G36*
X1249523Y1473477D02*
X1249523Y1473477D01*
X1254707Y1473477D01*
X1254611Y1472994D01*
X1254093Y1471743D01*
X1253341Y1470617D01*
X1252383Y1469659D01*
X1251257Y1468907D01*
X1250006Y1468389D01*
X1249523Y1468293D01*
X1249523Y1473477D01*
G37*
%LPD*%
%LPC*%
G36*
X1150523Y1471477D02*
X1150523Y1471477D01*
X1155707Y1471477D01*
X1155611Y1470994D01*
X1155093Y1469743D01*
X1154341Y1468617D01*
X1153383Y1467659D01*
X1152257Y1466907D01*
X1151006Y1466389D01*
X1150523Y1466293D01*
X1150523Y1471477D01*
G37*
%LPD*%
%LPC*%
G36*
X1170293Y1325523D02*
X1170293Y1325523D01*
X1170389Y1326006D01*
X1170907Y1327257D01*
X1171659Y1328383D01*
X1172617Y1329341D01*
X1173743Y1330093D01*
X1174994Y1330611D01*
X1175477Y1330707D01*
X1175477Y1325523D01*
X1170293Y1325523D01*
G37*
%LPD*%
%LPC*%
G36*
X1178523Y1322477D02*
X1178523Y1322477D01*
X1183707Y1322477D01*
X1183611Y1321994D01*
X1183093Y1320743D01*
X1182341Y1319617D01*
X1181383Y1318659D01*
X1180257Y1317907D01*
X1179006Y1317389D01*
X1178523Y1317293D01*
X1178523Y1322477D01*
G37*
%LPD*%
%LPC*%
G36*
X1044523Y1475477D02*
X1044523Y1475477D01*
X1049707Y1475477D01*
X1049611Y1474994D01*
X1049093Y1473743D01*
X1048341Y1472617D01*
X1047383Y1471659D01*
X1046257Y1470907D01*
X1045006Y1470389D01*
X1044523Y1470293D01*
X1044523Y1475477D01*
G37*
%LPD*%
%LPC*%
G36*
X284994Y1459389D02*
X284994Y1459389D01*
X283743Y1459907D01*
X282617Y1460659D01*
X281659Y1461617D01*
X280907Y1462743D01*
X280389Y1463994D01*
X280293Y1464477D01*
X285477Y1464477D01*
X285477Y1459293D01*
X284994Y1459389D01*
G37*
%LPD*%
%LPC*%
G36*
X1245994Y1468389D02*
X1245994Y1468389D01*
X1244743Y1468907D01*
X1243617Y1469659D01*
X1242659Y1470617D01*
X1241907Y1471743D01*
X1241389Y1472994D01*
X1241293Y1473477D01*
X1246477Y1473477D01*
X1246477Y1468293D01*
X1245994Y1468389D01*
G37*
%LPD*%
%LPC*%
G36*
X1174994Y1317389D02*
X1174994Y1317389D01*
X1173743Y1317907D01*
X1172617Y1318659D01*
X1171659Y1319617D01*
X1170907Y1320743D01*
X1170389Y1321994D01*
X1170293Y1322477D01*
X1175477Y1322477D01*
X1175477Y1317293D01*
X1174994Y1317389D01*
G37*
%LPD*%
%LPC*%
G36*
X1146994Y1466389D02*
X1146994Y1466389D01*
X1145743Y1466907D01*
X1144617Y1467659D01*
X1143659Y1468617D01*
X1142907Y1469743D01*
X1142389Y1470994D01*
X1142293Y1471477D01*
X1147477Y1471477D01*
X1147477Y1466293D01*
X1146994Y1466389D01*
G37*
%LPD*%
%LPC*%
G36*
X1040994Y1470389D02*
X1040994Y1470389D01*
X1039743Y1470907D01*
X1038617Y1471659D01*
X1037659Y1472617D01*
X1036907Y1473743D01*
X1036389Y1474994D01*
X1036293Y1475477D01*
X1041477Y1475477D01*
X1041477Y1470293D01*
X1040994Y1470389D01*
G37*
%LPD*%
%LPC*%
G36*
X171874Y1435874D02*
X171874Y1435874D01*
X171874Y1439943D01*
X172930Y1439660D01*
X174071Y1439002D01*
X175002Y1438071D01*
X175660Y1436930D01*
X175943Y1435874D01*
X171874Y1435874D01*
G37*
%LPD*%
%LPC*%
G36*
X321874Y360874D02*
X321874Y360874D01*
X321874Y364943D01*
X322930Y364660D01*
X324071Y364002D01*
X325002Y363071D01*
X325660Y361930D01*
X325943Y360874D01*
X321874Y360874D01*
G37*
%LPD*%
%LPC*%
G36*
X74874Y1022874D02*
X74874Y1022874D01*
X74874Y1026943D01*
X75930Y1026660D01*
X77071Y1026002D01*
X78002Y1025071D01*
X78660Y1023930D01*
X78943Y1022874D01*
X74874Y1022874D01*
G37*
%LPD*%
%LPC*%
G36*
X924874Y1418874D02*
X924874Y1418874D01*
X924874Y1422943D01*
X925930Y1422660D01*
X927071Y1422002D01*
X928002Y1421071D01*
X928660Y1419930D01*
X928943Y1418874D01*
X924874Y1418874D01*
G37*
%LPD*%
%LPC*%
G36*
X351874Y360874D02*
X351874Y360874D01*
X351874Y364943D01*
X352930Y364660D01*
X354071Y364002D01*
X355002Y363071D01*
X355660Y361930D01*
X355943Y360874D01*
X351874Y360874D01*
G37*
%LPD*%
%LPC*%
G36*
X74874Y752874D02*
X74874Y752874D01*
X74874Y756943D01*
X75930Y756660D01*
X77071Y756002D01*
X78002Y755071D01*
X78660Y753930D01*
X78943Y752874D01*
X74874Y752874D01*
G37*
%LPD*%
%LPC*%
G36*
X74874Y377874D02*
X74874Y377874D01*
X74874Y381943D01*
X75930Y381660D01*
X77071Y381002D01*
X78002Y380071D01*
X78660Y378930D01*
X78943Y377874D01*
X74874Y377874D01*
G37*
%LPD*%
%LPC*%
G36*
X74874Y67874D02*
X74874Y67874D01*
X74874Y71943D01*
X75930Y71660D01*
X77071Y71002D01*
X78002Y70071D01*
X78660Y68930D01*
X78943Y67874D01*
X74874Y67874D01*
G37*
%LPD*%
%LPC*%
G36*
X74874Y82874D02*
X74874Y82874D01*
X74874Y86943D01*
X75930Y86660D01*
X77071Y86002D01*
X78002Y85071D01*
X78660Y83930D01*
X78943Y82874D01*
X74874Y82874D01*
G37*
%LPD*%
%LPC*%
G36*
X74874Y1007874D02*
X74874Y1007874D01*
X74874Y1011943D01*
X75930Y1011660D01*
X77071Y1011002D01*
X78002Y1010071D01*
X78660Y1008930D01*
X78943Y1007874D01*
X74874Y1007874D01*
G37*
%LPD*%
%LPC*%
G36*
X74874Y97874D02*
X74874Y97874D01*
X74874Y101943D01*
X75930Y101660D01*
X77071Y101002D01*
X78002Y100071D01*
X78660Y98930D01*
X78943Y97874D01*
X74874Y97874D01*
G37*
%LPD*%
%LPC*%
G36*
X291874Y399874D02*
X291874Y399874D01*
X291874Y403943D01*
X292930Y403660D01*
X294071Y403002D01*
X295002Y402071D01*
X295660Y400930D01*
X295943Y399874D01*
X291874Y399874D01*
G37*
%LPD*%
%LPC*%
G36*
X74874Y977874D02*
X74874Y977874D01*
X74874Y981943D01*
X75930Y981660D01*
X77071Y981002D01*
X78002Y980071D01*
X78660Y978930D01*
X78943Y977874D01*
X74874Y977874D01*
G37*
%LPD*%
%LPC*%
G36*
X74874Y1052874D02*
X74874Y1052874D01*
X74874Y1056943D01*
X75930Y1056660D01*
X77071Y1056002D01*
X78002Y1055071D01*
X78660Y1053930D01*
X78943Y1052874D01*
X74874Y1052874D01*
G37*
%LPD*%
%LPC*%
G36*
X74874Y707874D02*
X74874Y707874D01*
X74874Y711943D01*
X75930Y711660D01*
X77071Y711002D01*
X78002Y710071D01*
X78660Y708930D01*
X78943Y707874D01*
X74874Y707874D01*
G37*
%LPD*%
%LPC*%
G36*
X249874Y327874D02*
X249874Y327874D01*
X249874Y331943D01*
X250930Y331660D01*
X252071Y331002D01*
X253002Y330071D01*
X253660Y328930D01*
X253943Y327874D01*
X249874Y327874D01*
G37*
%LPD*%
%LPC*%
G36*
X277874Y1450874D02*
X277874Y1450874D01*
X277874Y1454943D01*
X278930Y1454660D01*
X280071Y1454002D01*
X281002Y1453071D01*
X281660Y1451930D01*
X281943Y1450874D01*
X277874Y1450874D01*
G37*
%LPD*%
%LPC*%
G36*
X74874Y127874D02*
X74874Y127874D01*
X74874Y131943D01*
X75930Y131660D01*
X77071Y131002D01*
X78002Y130071D01*
X78660Y128930D01*
X78943Y127874D01*
X74874Y127874D01*
G37*
%LPD*%
%LPC*%
G36*
X829874Y1266874D02*
X829874Y1266874D01*
X829874Y1270943D01*
X830930Y1270660D01*
X832071Y1270002D01*
X833002Y1269071D01*
X833660Y1267930D01*
X833943Y1266874D01*
X829874Y1266874D01*
G37*
%LPD*%
%LPC*%
G36*
X375874Y414874D02*
X375874Y414874D01*
X375874Y418943D01*
X376930Y418660D01*
X378071Y418002D01*
X379002Y417071D01*
X379660Y415930D01*
X379943Y414874D01*
X375874Y414874D01*
G37*
%LPD*%
%LPC*%
G36*
X74874Y992874D02*
X74874Y992874D01*
X74874Y996943D01*
X75930Y996660D01*
X77071Y996002D01*
X78002Y995071D01*
X78660Y993930D01*
X78943Y992874D01*
X74874Y992874D01*
G37*
%LPD*%
%LPC*%
G36*
X74874Y722874D02*
X74874Y722874D01*
X74874Y726943D01*
X75930Y726660D01*
X77071Y726002D01*
X78002Y725071D01*
X78660Y723930D01*
X78943Y722874D01*
X74874Y722874D01*
G37*
%LPD*%
%LPC*%
G36*
X291874Y429874D02*
X291874Y429874D01*
X291874Y433943D01*
X292930Y433660D01*
X294071Y433002D01*
X295002Y432071D01*
X295660Y430930D01*
X295943Y429874D01*
X291874Y429874D01*
G37*
%LPD*%
%LPC*%
G36*
X74874Y407874D02*
X74874Y407874D01*
X74874Y411943D01*
X75930Y411660D01*
X77071Y411002D01*
X78002Y410071D01*
X78660Y408930D01*
X78943Y407874D01*
X74874Y407874D01*
G37*
%LPD*%
%LPC*%
G36*
X74874Y452874D02*
X74874Y452874D01*
X74874Y456943D01*
X75930Y456660D01*
X77071Y456002D01*
X78002Y455071D01*
X78660Y453930D01*
X78943Y452874D01*
X74874Y452874D01*
G37*
%LPD*%
%LPC*%
G36*
X74874Y692874D02*
X74874Y692874D01*
X74874Y696943D01*
X75930Y696660D01*
X77071Y696002D01*
X78002Y695071D01*
X78660Y693930D01*
X78943Y692874D01*
X74874Y692874D01*
G37*
%LPD*%
%LPC*%
G36*
X74874Y392874D02*
X74874Y392874D01*
X74874Y396943D01*
X75930Y396660D01*
X77071Y396002D01*
X78002Y395071D01*
X78660Y393930D01*
X78943Y392874D01*
X74874Y392874D01*
G37*
%LPD*%
%LPC*%
G36*
X74874Y677874D02*
X74874Y677874D01*
X74874Y681943D01*
X75930Y681660D01*
X77071Y681002D01*
X78002Y680071D01*
X78660Y678930D01*
X78943Y677874D01*
X74874Y677874D01*
G37*
%LPD*%
%LPC*%
G36*
X325874Y444874D02*
X325874Y444874D01*
X325874Y448943D01*
X326930Y448660D01*
X328071Y448002D01*
X329002Y447071D01*
X329660Y445930D01*
X329943Y444874D01*
X325874Y444874D01*
G37*
%LPD*%
%LPC*%
G36*
X291874Y369874D02*
X291874Y369874D01*
X291874Y373943D01*
X292930Y373660D01*
X294071Y373002D01*
X295002Y372071D01*
X295660Y370930D01*
X295943Y369874D01*
X291874Y369874D01*
G37*
%LPD*%
%LPC*%
G36*
X74874Y422874D02*
X74874Y422874D01*
X74874Y426943D01*
X75930Y426660D01*
X77071Y426002D01*
X78002Y425071D01*
X78660Y423930D01*
X78943Y422874D01*
X74874Y422874D01*
G37*
%LPD*%
%LPC*%
G36*
X869874Y1257874D02*
X869874Y1257874D01*
X869874Y1261943D01*
X870930Y1261660D01*
X872071Y1261002D01*
X873002Y1260071D01*
X873660Y1258930D01*
X873943Y1257874D01*
X869874Y1257874D01*
G37*
%LPD*%
%LPC*%
G36*
X74874Y52874D02*
X74874Y52874D01*
X74874Y56943D01*
X75930Y56660D01*
X77071Y56002D01*
X78002Y55071D01*
X78660Y53930D01*
X78943Y52874D01*
X74874Y52874D01*
G37*
%LPD*%
%LPC*%
G36*
X171874Y1434126D02*
X171874Y1434126D01*
X175943Y1434126D01*
X175660Y1433070D01*
X175002Y1431929D01*
X174071Y1430998D01*
X172930Y1430340D01*
X171874Y1430057D01*
X171874Y1434126D01*
G37*
%LPD*%
%LPC*%
G36*
X919057Y1418874D02*
X919057Y1418874D01*
X919340Y1419930D01*
X919998Y1421071D01*
X920929Y1422002D01*
X922070Y1422660D01*
X923126Y1422943D01*
X923126Y1418874D01*
X919057Y1418874D01*
G37*
%LPD*%
%LPC*%
G36*
X924874Y1417126D02*
X924874Y1417126D01*
X928943Y1417126D01*
X928660Y1416070D01*
X928002Y1414929D01*
X927071Y1413998D01*
X925930Y1413340D01*
X924874Y1413057D01*
X924874Y1417126D01*
G37*
%LPD*%
%LPC*%
G36*
X166057Y1435874D02*
X166057Y1435874D01*
X166340Y1436930D01*
X166998Y1438071D01*
X167929Y1439002D01*
X169070Y1439660D01*
X170126Y1439943D01*
X170126Y1435874D01*
X166057Y1435874D01*
G37*
%LPD*%
%LPC*%
G36*
X824057Y1266874D02*
X824057Y1266874D01*
X824340Y1267930D01*
X824998Y1269071D01*
X825929Y1270002D01*
X827070Y1270660D01*
X828126Y1270943D01*
X828126Y1266874D01*
X824057Y1266874D01*
G37*
%LPD*%
%LPC*%
G36*
X74874Y976126D02*
X74874Y976126D01*
X78943Y976126D01*
X78660Y975070D01*
X78002Y973929D01*
X77071Y972998D01*
X75930Y972340D01*
X74874Y972057D01*
X74874Y976126D01*
G37*
%LPD*%
%LPC*%
G36*
X69057Y722874D02*
X69057Y722874D01*
X69340Y723930D01*
X69998Y725071D01*
X70929Y726002D01*
X72070Y726660D01*
X73126Y726943D01*
X73126Y722874D01*
X69057Y722874D01*
G37*
%LPD*%
%LPC*%
G36*
X69057Y452874D02*
X69057Y452874D01*
X69340Y453930D01*
X69998Y455071D01*
X70929Y456002D01*
X72070Y456660D01*
X73126Y456943D01*
X73126Y452874D01*
X69057Y452874D01*
G37*
%LPD*%
%LPC*%
G36*
X74874Y451126D02*
X74874Y451126D01*
X78943Y451126D01*
X78660Y450070D01*
X78002Y448929D01*
X77071Y447998D01*
X75930Y447340D01*
X74874Y447057D01*
X74874Y451126D01*
G37*
%LPD*%
%LPC*%
G36*
X320057Y444874D02*
X320057Y444874D01*
X320340Y445930D01*
X320998Y447071D01*
X321929Y448002D01*
X323070Y448660D01*
X324126Y448943D01*
X324126Y444874D01*
X320057Y444874D01*
G37*
%LPD*%
%LPC*%
G36*
X74874Y721126D02*
X74874Y721126D01*
X78943Y721126D01*
X78660Y720070D01*
X78002Y718929D01*
X77071Y717998D01*
X75930Y717340D01*
X74874Y717057D01*
X74874Y721126D01*
G37*
%LPD*%
%LPC*%
G36*
X325874Y443126D02*
X325874Y443126D01*
X329943Y443126D01*
X329660Y442070D01*
X329002Y440929D01*
X328071Y439998D01*
X326930Y439340D01*
X325874Y439057D01*
X325874Y443126D01*
G37*
%LPD*%
%LPC*%
G36*
X69057Y707874D02*
X69057Y707874D01*
X69340Y708930D01*
X69998Y710071D01*
X70929Y711002D01*
X72070Y711660D01*
X73126Y711943D01*
X73126Y707874D01*
X69057Y707874D01*
G37*
%LPD*%
%LPC*%
G36*
X74874Y706126D02*
X74874Y706126D01*
X78943Y706126D01*
X78660Y705070D01*
X78002Y703929D01*
X77071Y702998D01*
X75930Y702340D01*
X74874Y702057D01*
X74874Y706126D01*
G37*
%LPD*%
%LPC*%
G36*
X286057Y399874D02*
X286057Y399874D01*
X286340Y400930D01*
X286998Y402071D01*
X287929Y403002D01*
X289070Y403660D01*
X290126Y403943D01*
X290126Y399874D01*
X286057Y399874D01*
G37*
%LPD*%
%LPC*%
G36*
X286057Y429874D02*
X286057Y429874D01*
X286340Y430930D01*
X286998Y432071D01*
X287929Y433002D01*
X289070Y433660D01*
X290126Y433943D01*
X290126Y429874D01*
X286057Y429874D01*
G37*
%LPD*%
%LPC*%
G36*
X291874Y428126D02*
X291874Y428126D01*
X295943Y428126D01*
X295660Y427070D01*
X295002Y425929D01*
X294071Y424998D01*
X292930Y424340D01*
X291874Y424057D01*
X291874Y428126D01*
G37*
%LPD*%
%LPC*%
G36*
X69057Y422874D02*
X69057Y422874D01*
X69340Y423930D01*
X69998Y425071D01*
X70929Y426002D01*
X72070Y426660D01*
X73126Y426943D01*
X73126Y422874D01*
X69057Y422874D01*
G37*
%LPD*%
%LPC*%
G36*
X74874Y421126D02*
X74874Y421126D01*
X78943Y421126D01*
X78660Y420070D01*
X78002Y418929D01*
X77071Y417998D01*
X75930Y417340D01*
X74874Y417057D01*
X74874Y421126D01*
G37*
%LPD*%
%LPC*%
G36*
X370057Y414874D02*
X370057Y414874D01*
X370340Y415930D01*
X370998Y417071D01*
X371929Y418002D01*
X373070Y418660D01*
X374126Y418943D01*
X374126Y414874D01*
X370057Y414874D01*
G37*
%LPD*%
%LPC*%
G36*
X69057Y692874D02*
X69057Y692874D01*
X69340Y693930D01*
X69998Y695071D01*
X70929Y696002D01*
X72070Y696660D01*
X73126Y696943D01*
X73126Y692874D01*
X69057Y692874D01*
G37*
%LPD*%
%LPC*%
G36*
X375874Y413126D02*
X375874Y413126D01*
X379943Y413126D01*
X379660Y412070D01*
X379002Y410929D01*
X378071Y409998D01*
X376930Y409340D01*
X375874Y409057D01*
X375874Y413126D01*
G37*
%LPD*%
%LPC*%
G36*
X69057Y407874D02*
X69057Y407874D01*
X69340Y408930D01*
X69998Y410071D01*
X70929Y411002D01*
X72070Y411660D01*
X73126Y411943D01*
X73126Y407874D01*
X69057Y407874D01*
G37*
%LPD*%
%LPC*%
G36*
X74874Y406126D02*
X74874Y406126D01*
X78943Y406126D01*
X78660Y405070D01*
X78002Y403929D01*
X77071Y402998D01*
X75930Y402340D01*
X74874Y402057D01*
X74874Y406126D01*
G37*
%LPD*%
%LPC*%
G36*
X316057Y360874D02*
X316057Y360874D01*
X316340Y361930D01*
X316998Y363071D01*
X317929Y364002D01*
X319070Y364660D01*
X320126Y364943D01*
X320126Y360874D01*
X316057Y360874D01*
G37*
%LPD*%
%LPC*%
G36*
X74874Y691126D02*
X74874Y691126D01*
X78943Y691126D01*
X78660Y690070D01*
X78002Y688929D01*
X77071Y687998D01*
X75930Y687340D01*
X74874Y687057D01*
X74874Y691126D01*
G37*
%LPD*%
%LPC*%
G36*
X291874Y398126D02*
X291874Y398126D01*
X295943Y398126D01*
X295660Y397070D01*
X295002Y395929D01*
X294071Y394998D01*
X292930Y394340D01*
X291874Y394057D01*
X291874Y398126D01*
G37*
%LPD*%
%LPC*%
G36*
X69057Y392874D02*
X69057Y392874D01*
X69340Y393930D01*
X69998Y395071D01*
X70929Y396002D01*
X72070Y396660D01*
X73126Y396943D01*
X73126Y392874D01*
X69057Y392874D01*
G37*
%LPD*%
%LPC*%
G36*
X74874Y391126D02*
X74874Y391126D01*
X78943Y391126D01*
X78660Y390070D01*
X78002Y388929D01*
X77071Y387998D01*
X75930Y387340D01*
X74874Y387057D01*
X74874Y391126D01*
G37*
%LPD*%
%LPC*%
G36*
X69057Y977874D02*
X69057Y977874D01*
X69340Y978930D01*
X69998Y980071D01*
X70929Y981002D01*
X72070Y981660D01*
X73126Y981943D01*
X73126Y977874D01*
X69057Y977874D01*
G37*
%LPD*%
%LPC*%
G36*
X69057Y377874D02*
X69057Y377874D01*
X69340Y378930D01*
X69998Y380071D01*
X70929Y381002D01*
X72070Y381660D01*
X73126Y381943D01*
X73126Y377874D01*
X69057Y377874D01*
G37*
%LPD*%
%LPC*%
G36*
X74874Y376126D02*
X74874Y376126D01*
X78943Y376126D01*
X78660Y375070D01*
X78002Y373929D01*
X77071Y372998D01*
X75930Y372340D01*
X74874Y372057D01*
X74874Y376126D01*
G37*
%LPD*%
%LPC*%
G36*
X286057Y369874D02*
X286057Y369874D01*
X286340Y370930D01*
X286998Y372071D01*
X287929Y373002D01*
X289070Y373660D01*
X290126Y373943D01*
X290126Y369874D01*
X286057Y369874D01*
G37*
%LPD*%
%LPC*%
G36*
X291874Y368126D02*
X291874Y368126D01*
X295943Y368126D01*
X295660Y367070D01*
X295002Y365929D01*
X294071Y364998D01*
X292930Y364340D01*
X291874Y364057D01*
X291874Y368126D01*
G37*
%LPD*%
%LPC*%
G36*
X346057Y360874D02*
X346057Y360874D01*
X346340Y361930D01*
X346998Y363071D01*
X347929Y364002D01*
X349070Y364660D01*
X350126Y364943D01*
X350126Y360874D01*
X346057Y360874D01*
G37*
%LPD*%
%LPC*%
G36*
X69057Y677874D02*
X69057Y677874D01*
X69340Y678930D01*
X69998Y680071D01*
X70929Y681002D01*
X72070Y681660D01*
X73126Y681943D01*
X73126Y677874D01*
X69057Y677874D01*
G37*
%LPD*%
%LPC*%
G36*
X321874Y359126D02*
X321874Y359126D01*
X325943Y359126D01*
X325660Y358070D01*
X325002Y356929D01*
X324071Y355998D01*
X322930Y355340D01*
X321874Y355057D01*
X321874Y359126D01*
G37*
%LPD*%
%LPC*%
G36*
X351874Y359126D02*
X351874Y359126D01*
X355943Y359126D01*
X355660Y358070D01*
X355002Y356929D01*
X354071Y355998D01*
X352930Y355340D01*
X351874Y355057D01*
X351874Y359126D01*
G37*
%LPD*%
%LPC*%
G36*
X74874Y991126D02*
X74874Y991126D01*
X78943Y991126D01*
X78660Y990070D01*
X78002Y988929D01*
X77071Y987998D01*
X75930Y987340D01*
X74874Y987057D01*
X74874Y991126D01*
G37*
%LPD*%
%LPC*%
G36*
X69057Y992874D02*
X69057Y992874D01*
X69340Y993930D01*
X69998Y995071D01*
X70929Y996002D01*
X72070Y996660D01*
X73126Y996943D01*
X73126Y992874D01*
X69057Y992874D01*
G37*
%LPD*%
%LPC*%
G36*
X244057Y327874D02*
X244057Y327874D01*
X244340Y328930D01*
X244998Y330071D01*
X245929Y331002D01*
X247070Y331660D01*
X248126Y331943D01*
X248126Y327874D01*
X244057Y327874D01*
G37*
%LPD*%
%LPC*%
G36*
X249874Y326126D02*
X249874Y326126D01*
X253943Y326126D01*
X253660Y325070D01*
X253002Y323929D01*
X252071Y322998D01*
X250930Y322340D01*
X249874Y322057D01*
X249874Y326126D01*
G37*
%LPD*%
%LPC*%
G36*
X74874Y1006126D02*
X74874Y1006126D01*
X78943Y1006126D01*
X78660Y1005070D01*
X78002Y1003929D01*
X77071Y1002998D01*
X75930Y1002340D01*
X74874Y1002057D01*
X74874Y1006126D01*
G37*
%LPD*%
%LPC*%
G36*
X74874Y676126D02*
X74874Y676126D01*
X78943Y676126D01*
X78660Y675070D01*
X78002Y673929D01*
X77071Y672998D01*
X75930Y672340D01*
X74874Y672057D01*
X74874Y676126D01*
G37*
%LPD*%
%LPC*%
G36*
X74874Y751126D02*
X74874Y751126D01*
X78943Y751126D01*
X78660Y750070D01*
X78002Y748929D01*
X77071Y747998D01*
X75930Y747340D01*
X74874Y747057D01*
X74874Y751126D01*
G37*
%LPD*%
%LPC*%
G36*
X69057Y97874D02*
X69057Y97874D01*
X69340Y98930D01*
X69998Y100071D01*
X70929Y101002D01*
X72070Y101660D01*
X73126Y101943D01*
X73126Y97874D01*
X69057Y97874D01*
G37*
%LPD*%
%LPC*%
G36*
X69057Y1007874D02*
X69057Y1007874D01*
X69340Y1008930D01*
X69998Y1010071D01*
X70929Y1011002D01*
X72070Y1011660D01*
X73126Y1011943D01*
X73126Y1007874D01*
X69057Y1007874D01*
G37*
%LPD*%
%LPC*%
G36*
X69057Y752874D02*
X69057Y752874D01*
X69340Y753930D01*
X69998Y755071D01*
X70929Y756002D01*
X72070Y756660D01*
X73126Y756943D01*
X73126Y752874D01*
X69057Y752874D01*
G37*
%LPD*%
%LPC*%
G36*
X74874Y1021126D02*
X74874Y1021126D01*
X78943Y1021126D01*
X78660Y1020070D01*
X78002Y1018929D01*
X77071Y1017998D01*
X75930Y1017340D01*
X74874Y1017057D01*
X74874Y1021126D01*
G37*
%LPD*%
%LPC*%
G36*
X69057Y1022874D02*
X69057Y1022874D01*
X69340Y1023930D01*
X69998Y1025071D01*
X70929Y1026002D01*
X72070Y1026660D01*
X73126Y1026943D01*
X73126Y1022874D01*
X69057Y1022874D01*
G37*
%LPD*%
%LPC*%
G36*
X69057Y127874D02*
X69057Y127874D01*
X69340Y128930D01*
X69998Y130071D01*
X70929Y131002D01*
X72070Y131660D01*
X73126Y131943D01*
X73126Y127874D01*
X69057Y127874D01*
G37*
%LPD*%
%LPC*%
G36*
X74874Y1051126D02*
X74874Y1051126D01*
X78943Y1051126D01*
X78660Y1050070D01*
X78002Y1048929D01*
X77071Y1047998D01*
X75930Y1047340D01*
X74874Y1047057D01*
X74874Y1051126D01*
G37*
%LPD*%
%LPC*%
G36*
X74874Y126126D02*
X74874Y126126D01*
X78943Y126126D01*
X78660Y125070D01*
X78002Y123929D01*
X77071Y122998D01*
X75930Y122340D01*
X74874Y122057D01*
X74874Y126126D01*
G37*
%LPD*%
%LPC*%
G36*
X69057Y1052874D02*
X69057Y1052874D01*
X69340Y1053930D01*
X69998Y1055071D01*
X70929Y1056002D01*
X72070Y1056660D01*
X73126Y1056943D01*
X73126Y1052874D01*
X69057Y1052874D01*
G37*
%LPD*%
%LPC*%
G36*
X74874Y96126D02*
X74874Y96126D01*
X78943Y96126D01*
X78660Y95070D01*
X78002Y93929D01*
X77071Y92998D01*
X75930Y92340D01*
X74874Y92057D01*
X74874Y96126D01*
G37*
%LPD*%
%LPC*%
G36*
X869874Y1256126D02*
X869874Y1256126D01*
X873943Y1256126D01*
X873660Y1255070D01*
X873002Y1253929D01*
X872071Y1252998D01*
X870930Y1252340D01*
X869874Y1252057D01*
X869874Y1256126D01*
G37*
%LPD*%
%LPC*%
G36*
X69057Y82874D02*
X69057Y82874D01*
X69340Y83930D01*
X69998Y85071D01*
X70929Y86002D01*
X72070Y86660D01*
X73126Y86943D01*
X73126Y82874D01*
X69057Y82874D01*
G37*
%LPD*%
%LPC*%
G36*
X74874Y81126D02*
X74874Y81126D01*
X78943Y81126D01*
X78660Y80070D01*
X78002Y78929D01*
X77071Y77998D01*
X75930Y77340D01*
X74874Y77057D01*
X74874Y81126D01*
G37*
%LPD*%
%LPC*%
G36*
X864057Y1257874D02*
X864057Y1257874D01*
X864340Y1258930D01*
X864998Y1260071D01*
X865929Y1261002D01*
X867070Y1261660D01*
X868126Y1261943D01*
X868126Y1257874D01*
X864057Y1257874D01*
G37*
%LPD*%
%LPC*%
G36*
X69057Y67874D02*
X69057Y67874D01*
X69340Y68930D01*
X69998Y70071D01*
X70929Y71002D01*
X72070Y71660D01*
X73126Y71943D01*
X73126Y67874D01*
X69057Y67874D01*
G37*
%LPD*%
%LPC*%
G36*
X74874Y66126D02*
X74874Y66126D01*
X78943Y66126D01*
X78660Y65070D01*
X78002Y63929D01*
X77071Y62998D01*
X75930Y62340D01*
X74874Y62057D01*
X74874Y66126D01*
G37*
%LPD*%
%LPC*%
G36*
X272057Y1450874D02*
X272057Y1450874D01*
X272340Y1451930D01*
X272998Y1453071D01*
X273929Y1454002D01*
X275070Y1454660D01*
X276126Y1454943D01*
X276126Y1450874D01*
X272057Y1450874D01*
G37*
%LPD*%
%LPC*%
G36*
X277874Y1449126D02*
X277874Y1449126D01*
X281943Y1449126D01*
X281660Y1448070D01*
X281002Y1446929D01*
X280071Y1445998D01*
X278930Y1445340D01*
X277874Y1445057D01*
X277874Y1449126D01*
G37*
%LPD*%
%LPC*%
G36*
X69057Y52874D02*
X69057Y52874D01*
X69340Y53930D01*
X69998Y55071D01*
X70929Y56002D01*
X72070Y56660D01*
X73126Y56943D01*
X73126Y52874D01*
X69057Y52874D01*
G37*
%LPD*%
%LPC*%
G36*
X74874Y51126D02*
X74874Y51126D01*
X78943Y51126D01*
X78660Y50070D01*
X78002Y48929D01*
X77071Y47998D01*
X75930Y47340D01*
X74874Y47057D01*
X74874Y51126D01*
G37*
%LPD*%
%LPC*%
G36*
X829874Y1265126D02*
X829874Y1265126D01*
X833943Y1265126D01*
X833660Y1264070D01*
X833002Y1262929D01*
X832071Y1261998D01*
X830930Y1261340D01*
X829874Y1261057D01*
X829874Y1265126D01*
G37*
%LPD*%
%LPC*%
G36*
X72070Y402340D02*
X72070Y402340D01*
X70929Y402998D01*
X69998Y403929D01*
X69340Y405070D01*
X69057Y406126D01*
X73126Y406126D01*
X73126Y402057D01*
X72070Y402340D01*
G37*
%LPD*%
%LPC*%
G36*
X72070Y47340D02*
X72070Y47340D01*
X70929Y47998D01*
X69998Y48929D01*
X69340Y50070D01*
X69057Y51126D01*
X73126Y51126D01*
X73126Y47057D01*
X72070Y47340D01*
G37*
%LPD*%
%LPC*%
G36*
X922070Y1413340D02*
X922070Y1413340D01*
X920929Y1413998D01*
X919998Y1414929D01*
X919340Y1416070D01*
X919057Y1417126D01*
X923126Y1417126D01*
X923126Y1413057D01*
X922070Y1413340D01*
G37*
%LPD*%
%LPC*%
G36*
X72070Y1017340D02*
X72070Y1017340D01*
X70929Y1017998D01*
X69998Y1018929D01*
X69340Y1020070D01*
X69057Y1021126D01*
X73126Y1021126D01*
X73126Y1017057D01*
X72070Y1017340D01*
G37*
%LPD*%
%LPC*%
G36*
X72070Y747340D02*
X72070Y747340D01*
X70929Y747998D01*
X69998Y748929D01*
X69340Y750070D01*
X69057Y751126D01*
X73126Y751126D01*
X73126Y747057D01*
X72070Y747340D01*
G37*
%LPD*%
%LPC*%
G36*
X72070Y987340D02*
X72070Y987340D01*
X70929Y987998D01*
X69998Y988929D01*
X69340Y990070D01*
X69057Y991126D01*
X73126Y991126D01*
X73126Y987057D01*
X72070Y987340D01*
G37*
%LPD*%
%LPC*%
G36*
X349070Y355340D02*
X349070Y355340D01*
X347929Y355998D01*
X346998Y356929D01*
X346340Y358070D01*
X346057Y359126D01*
X350126Y359126D01*
X350126Y355057D01*
X349070Y355340D01*
G37*
%LPD*%
%LPC*%
G36*
X169070Y1430340D02*
X169070Y1430340D01*
X167929Y1430998D01*
X166998Y1431929D01*
X166340Y1433070D01*
X166057Y1434126D01*
X170126Y1434126D01*
X170126Y1430057D01*
X169070Y1430340D01*
G37*
%LPD*%
%LPC*%
G36*
X72070Y1047340D02*
X72070Y1047340D01*
X70929Y1047998D01*
X69998Y1048929D01*
X69340Y1050070D01*
X69057Y1051126D01*
X73126Y1051126D01*
X73126Y1047057D01*
X72070Y1047340D01*
G37*
%LPD*%
%LPC*%
G36*
X275070Y1445340D02*
X275070Y1445340D01*
X273929Y1445998D01*
X272998Y1446929D01*
X272340Y1448070D01*
X272057Y1449126D01*
X276126Y1449126D01*
X276126Y1445057D01*
X275070Y1445340D01*
G37*
%LPD*%
%LPC*%
G36*
X72070Y417340D02*
X72070Y417340D01*
X70929Y417998D01*
X69998Y418929D01*
X69340Y420070D01*
X69057Y421126D01*
X73126Y421126D01*
X73126Y417057D01*
X72070Y417340D01*
G37*
%LPD*%
%LPC*%
G36*
X319070Y355340D02*
X319070Y355340D01*
X317929Y355998D01*
X316998Y356929D01*
X316340Y358070D01*
X316057Y359126D01*
X320126Y359126D01*
X320126Y355057D01*
X319070Y355340D01*
G37*
%LPD*%
%LPC*%
G36*
X72070Y387340D02*
X72070Y387340D01*
X70929Y387998D01*
X69998Y388929D01*
X69340Y390070D01*
X69057Y391126D01*
X73126Y391126D01*
X73126Y387057D01*
X72070Y387340D01*
G37*
%LPD*%
%LPC*%
G36*
X72070Y122340D02*
X72070Y122340D01*
X70929Y122998D01*
X69998Y123929D01*
X69340Y125070D01*
X69057Y126126D01*
X73126Y126126D01*
X73126Y122057D01*
X72070Y122340D01*
G37*
%LPD*%
%LPC*%
G36*
X289070Y424340D02*
X289070Y424340D01*
X287929Y424998D01*
X286998Y425929D01*
X286340Y427070D01*
X286057Y428126D01*
X290126Y428126D01*
X290126Y424057D01*
X289070Y424340D01*
G37*
%LPD*%
%LPC*%
G36*
X72070Y972340D02*
X72070Y972340D01*
X70929Y972998D01*
X69998Y973929D01*
X69340Y975070D01*
X69057Y976126D01*
X73126Y976126D01*
X73126Y972057D01*
X72070Y972340D01*
G37*
%LPD*%
%LPC*%
G36*
X72070Y447340D02*
X72070Y447340D01*
X70929Y447998D01*
X69998Y448929D01*
X69340Y450070D01*
X69057Y451126D01*
X73126Y451126D01*
X73126Y447057D01*
X72070Y447340D01*
G37*
%LPD*%
%LPC*%
G36*
X72070Y372340D02*
X72070Y372340D01*
X70929Y372998D01*
X69998Y373929D01*
X69340Y375070D01*
X69057Y376126D01*
X73126Y376126D01*
X73126Y372057D01*
X72070Y372340D01*
G37*
%LPD*%
%LPC*%
G36*
X72070Y1002340D02*
X72070Y1002340D01*
X70929Y1002998D01*
X69998Y1003929D01*
X69340Y1005070D01*
X69057Y1006126D01*
X73126Y1006126D01*
X73126Y1002057D01*
X72070Y1002340D01*
G37*
%LPD*%
%LPC*%
G36*
X72070Y92340D02*
X72070Y92340D01*
X70929Y92998D01*
X69998Y93929D01*
X69340Y95070D01*
X69057Y96126D01*
X73126Y96126D01*
X73126Y92057D01*
X72070Y92340D01*
G37*
%LPD*%
%LPC*%
G36*
X289070Y394340D02*
X289070Y394340D01*
X287929Y394998D01*
X286998Y395929D01*
X286340Y397070D01*
X286057Y398126D01*
X290126Y398126D01*
X290126Y394057D01*
X289070Y394340D01*
G37*
%LPD*%
%LPC*%
G36*
X867070Y1252340D02*
X867070Y1252340D01*
X865929Y1252998D01*
X864998Y1253929D01*
X864340Y1255070D01*
X864057Y1256126D01*
X868126Y1256126D01*
X868126Y1252057D01*
X867070Y1252340D01*
G37*
%LPD*%
%LPC*%
G36*
X827070Y1261340D02*
X827070Y1261340D01*
X825929Y1261998D01*
X824998Y1262929D01*
X824340Y1264070D01*
X824057Y1265126D01*
X828126Y1265126D01*
X828126Y1261057D01*
X827070Y1261340D01*
G37*
%LPD*%
%LPC*%
G36*
X72070Y687340D02*
X72070Y687340D01*
X70929Y687998D01*
X69998Y688929D01*
X69340Y690070D01*
X69057Y691126D01*
X73126Y691126D01*
X73126Y687057D01*
X72070Y687340D01*
G37*
%LPD*%
%LPC*%
G36*
X72070Y77340D02*
X72070Y77340D01*
X70929Y77998D01*
X69998Y78929D01*
X69340Y80070D01*
X69057Y81126D01*
X73126Y81126D01*
X73126Y77057D01*
X72070Y77340D01*
G37*
%LPD*%
%LPC*%
G36*
X289070Y364340D02*
X289070Y364340D01*
X287929Y364998D01*
X286998Y365929D01*
X286340Y367070D01*
X286057Y368126D01*
X290126Y368126D01*
X290126Y364057D01*
X289070Y364340D01*
G37*
%LPD*%
%LPC*%
G36*
X247070Y322340D02*
X247070Y322340D01*
X245929Y322998D01*
X244998Y323929D01*
X244340Y325070D01*
X244057Y326126D01*
X248126Y326126D01*
X248126Y322057D01*
X247070Y322340D01*
G37*
%LPD*%
%LPC*%
G36*
X72070Y672340D02*
X72070Y672340D01*
X70929Y672998D01*
X69998Y673929D01*
X69340Y675070D01*
X69057Y676126D01*
X73126Y676126D01*
X73126Y672057D01*
X72070Y672340D01*
G37*
%LPD*%
%LPC*%
G36*
X72070Y62340D02*
X72070Y62340D01*
X70929Y62998D01*
X69998Y63929D01*
X69340Y65070D01*
X69057Y66126D01*
X73126Y66126D01*
X73126Y62057D01*
X72070Y62340D01*
G37*
%LPD*%
%LPC*%
G36*
X323070Y439340D02*
X323070Y439340D01*
X321929Y439998D01*
X320998Y440929D01*
X320340Y442070D01*
X320057Y443126D01*
X324126Y443126D01*
X324126Y439057D01*
X323070Y439340D01*
G37*
%LPD*%
%LPC*%
G36*
X72070Y717340D02*
X72070Y717340D01*
X70929Y717998D01*
X69998Y718929D01*
X69340Y720070D01*
X69057Y721126D01*
X73126Y721126D01*
X73126Y717057D01*
X72070Y717340D01*
G37*
%LPD*%
%LPC*%
G36*
X72070Y702340D02*
X72070Y702340D01*
X70929Y702998D01*
X69998Y703929D01*
X69340Y705070D01*
X69057Y706126D01*
X73126Y706126D01*
X73126Y702057D01*
X72070Y702340D01*
G37*
%LPD*%
%LPC*%
G36*
X373070Y409340D02*
X373070Y409340D01*
X371929Y409998D01*
X370998Y410929D01*
X370340Y412070D01*
X370057Y413126D01*
X374126Y413126D01*
X374126Y409057D01*
X373070Y409340D01*
G37*
%LPD*%
%LPC*%
G36*
X74999Y1399999D02*
X74999Y1399999D01*
X74999Y1400001D01*
X75001Y1400001D01*
X75001Y1399999D01*
X74999Y1399999D01*
G37*
%LPD*%
%LPC*%
G36*
X286999Y1465999D02*
X286999Y1465999D01*
X286999Y1466001D01*
X287001Y1466001D01*
X287001Y1465999D01*
X286999Y1465999D01*
G37*
%LPD*%
%LPC*%
G36*
X1148999Y1472999D02*
X1148999Y1472999D01*
X1148999Y1473001D01*
X1149001Y1473001D01*
X1149001Y1472999D01*
X1148999Y1472999D01*
G37*
%LPD*%
%LPC*%
G36*
X1247999Y1474999D02*
X1247999Y1474999D01*
X1247999Y1475001D01*
X1248001Y1475001D01*
X1248001Y1474999D01*
X1247999Y1474999D01*
G37*
%LPD*%
%LPC*%
G36*
X1042999Y1476999D02*
X1042999Y1476999D01*
X1042999Y1477001D01*
X1043001Y1477001D01*
X1043001Y1476999D01*
X1042999Y1476999D01*
G37*
%LPD*%
%LPC*%
G36*
X1176999Y1323999D02*
X1176999Y1323999D01*
X1176999Y1324001D01*
X1177001Y1324001D01*
X1177001Y1323999D01*
X1176999Y1323999D01*
G37*
%LPD*%
D10*
X535793Y1315954D02*
X535791Y1316079D01*
X535785Y1316204D01*
X535776Y1316329D01*
X535762Y1316453D01*
X535745Y1316577D01*
X535724Y1316701D01*
X535699Y1316823D01*
X535670Y1316945D01*
X535638Y1317066D01*
X535602Y1317186D01*
X535562Y1317305D01*
X535519Y1317422D01*
X535472Y1317538D01*
X535421Y1317653D01*
X535367Y1317765D01*
X535309Y1317877D01*
X535249Y1317986D01*
X535184Y1318093D01*
X535117Y1318199D01*
X535046Y1318302D01*
X534972Y1318403D01*
X534895Y1318502D01*
X534815Y1318598D01*
X534732Y1318692D01*
X534647Y1318783D01*
X534558Y1318872D01*
X534467Y1318957D01*
X534373Y1319040D01*
X534277Y1319120D01*
X534178Y1319197D01*
X534077Y1319271D01*
X533974Y1319342D01*
X533868Y1319409D01*
X533761Y1319474D01*
X533652Y1319534D01*
X533540Y1319592D01*
X533428Y1319646D01*
X533313Y1319697D01*
X533197Y1319744D01*
X533080Y1319787D01*
X532961Y1319827D01*
X532841Y1319863D01*
X532720Y1319895D01*
X532598Y1319924D01*
X532476Y1319949D01*
X532352Y1319970D01*
X532228Y1319987D01*
X532104Y1320001D01*
X531979Y1320010D01*
X531854Y1320016D01*
X531729Y1320018D01*
X531586Y1320016D01*
X531444Y1320010D01*
X531301Y1320000D01*
X531159Y1319987D01*
X531018Y1319969D01*
X530876Y1319948D01*
X530736Y1319923D01*
X530596Y1319894D01*
X530457Y1319861D01*
X530319Y1319824D01*
X530182Y1319784D01*
X530047Y1319740D01*
X529912Y1319692D01*
X529779Y1319640D01*
X529647Y1319585D01*
X529517Y1319526D01*
X529389Y1319464D01*
X529262Y1319398D01*
X529137Y1319329D01*
X529014Y1319257D01*
X528894Y1319181D01*
X528775Y1319102D01*
X528658Y1319019D01*
X528544Y1318934D01*
X528432Y1318845D01*
X528323Y1318754D01*
X528216Y1318659D01*
X528111Y1318562D01*
X528010Y1318461D01*
X527911Y1318358D01*
X527815Y1318253D01*
X527722Y1318144D01*
X527632Y1318033D01*
X527545Y1317920D01*
X527461Y1317805D01*
X527381Y1317687D01*
X527303Y1317567D01*
X527229Y1317445D01*
X527159Y1317321D01*
X527091Y1317195D01*
X527028Y1317067D01*
X526967Y1316938D01*
X526910Y1316807D01*
X526857Y1316675D01*
X526808Y1316541D01*
X526762Y1316406D01*
X534438Y1312793D02*
X534532Y1312885D01*
X534622Y1312979D01*
X534710Y1313076D01*
X534795Y1313176D01*
X534877Y1313278D01*
X534956Y1313383D01*
X535031Y1313490D01*
X535103Y1313599D01*
X535172Y1313710D01*
X535238Y1313824D01*
X535300Y1313939D01*
X535359Y1314056D01*
X535414Y1314175D01*
X535465Y1314295D01*
X535513Y1314417D01*
X535558Y1314540D01*
X535598Y1314664D01*
X535635Y1314790D01*
X535668Y1314917D01*
X535697Y1315044D01*
X535723Y1315173D01*
X535744Y1315302D01*
X535762Y1315432D01*
X535775Y1315562D01*
X535785Y1315692D01*
X535791Y1315823D01*
X535793Y1315954D01*
X534438Y1312793D02*
X526762Y1303762D01*
X535793Y1303762D01*
D11*
X136000Y1400000D03*
X75000Y1400000D03*
X105000Y1352000D03*
D12*
X80000Y1092500D03*
X80000Y947500D03*
X31000Y941500D03*
X31000Y1098500D03*
X80000Y792500D03*
X80000Y647500D03*
X31000Y641500D03*
X31000Y798500D03*
X80000Y492500D03*
X80000Y347500D03*
X31000Y341500D03*
X31000Y498500D03*
X80000Y167500D03*
X80000Y22500D03*
X31000Y16500D03*
X31000Y173500D03*
D13*
X888100Y1454000D03*
X811900Y1454000D03*
D14*
X797000Y1360000D03*
X1370000Y1360000D03*
X495000Y1435000D03*
X70000Y1285000D03*
X70000Y260000D03*
X480000Y65000D03*
D15*
X231000Y48000D03*
X293000Y310000D03*
X235000Y58000D03*
X304000Y310000D03*
X179000Y62000D03*
X251000Y261000D03*
X179000Y73000D03*
X251000Y244000D03*
X134000Y78000D03*
X138000Y107000D03*
X134000Y88000D03*
X166000Y113000D03*
X361000Y205000D03*
X323000Y212000D03*
D16*
X117000Y146000D03*
X378000Y312000D03*
X214000Y433000D03*
X362000Y487000D03*
X110000Y751000D03*
X145000Y752000D03*
X125000Y1039000D03*
X133000Y948000D03*
X112000Y126000D03*
X370000Y305000D03*
X119000Y123000D03*
X355000Y308000D03*
X325000Y444000D03*
X291000Y429000D03*
X291000Y369000D03*
X321000Y360000D03*
X351000Y360000D03*
X375000Y414000D03*
X291000Y399000D03*
X249000Y327000D03*
X74000Y377000D03*
X74000Y392000D03*
X74000Y407000D03*
X74000Y422000D03*
X74000Y452000D03*
X74000Y52000D03*
X74000Y67000D03*
X74000Y82000D03*
X74000Y97000D03*
X74000Y127000D03*
X74000Y752000D03*
X74000Y722000D03*
X74000Y707000D03*
X74000Y692000D03*
X74000Y677000D03*
X74000Y1052000D03*
X74000Y1022000D03*
X74000Y1007000D03*
X74000Y992000D03*
X74000Y977000D03*
X171000Y1435000D03*
X924000Y1418000D03*
D17*
X1177000Y1324000D03*
X1043000Y1477000D03*
X1248000Y1475000D03*
X1149000Y1473000D03*
X287000Y1466000D03*
D16*
X277000Y1450000D03*
X829000Y1266000D03*
X869000Y1257000D03*
X341000Y444000D03*
X310000Y444000D03*
X291000Y414000D03*
X291000Y384000D03*
X306000Y360000D03*
X336000Y360000D03*
X375000Y399000D03*
X375000Y429000D03*
D18*
X542000Y450000D03*
X542000Y290000D03*
X1157000Y1250000D03*
X996000Y1250000D03*
D16*
X790000Y1454000D03*
D17*
X1078000Y1324000D03*
X1004000Y1330000D03*
X1353000Y1461000D03*
X222000Y1465000D03*
D16*
X233000Y1449000D03*
D17*
X286000Y1420000D03*
X308000Y1420000D03*
X308000Y1402000D03*
X308000Y1381000D03*
X285000Y1380000D03*
X285000Y1401000D03*
D16*
X362000Y274000D03*
X318000Y260000D03*
X829000Y1306000D03*
X868000Y1314000D03*
D18*
X438000Y349000D03*
X1078000Y1251000D03*
X435000Y321000D03*
X1104000Y1251000D03*
X522000Y380000D03*
X1051000Y1251000D03*
D16*
X106000Y109000D03*
X109000Y436000D03*
X108000Y734000D03*
X111000Y1035000D03*
D17*
X1182000Y1286000D03*
X1216000Y1356000D03*
X1076000Y1298000D03*
X1105000Y1362000D03*
D16*
X371000Y444000D03*
X108000Y456000D03*
X171000Y1376000D03*
X119000Y137000D03*
X127000Y758000D03*
X126000Y1056000D03*
X181000Y433000D03*
X109000Y907000D03*
X145000Y796000D03*
X93000Y1400000D03*
X75000Y1427000D03*
X57000Y1400000D03*
X75000Y1372000D03*
X92000Y1381000D03*
X58000Y1381000D03*
X58000Y1419000D03*
X92000Y1420000D03*
X119000Y1399000D03*
X121000Y1415000D03*
X136000Y1426000D03*
X152000Y1418000D03*
X155000Y1400000D03*
X150000Y1379000D03*
X136000Y1374000D03*
X120000Y1380000D03*
M02*
