G04 EAGLE Gerber RS-274X export*
G75*
%MOMM*%
%FSLAX34Y34*%
%LPD*%
%IN*%
%IPPOS*%
%AMOC8*
5,1,8,0,0,1.08239X$1,22.5*%
G01*
%ADD10C,0.254000*%


D10*
X0Y0D02*
X572000Y0D01*
X572000Y260000D01*
X952000Y260000D01*
X972482Y260894D01*
X992807Y263570D01*
X1012822Y268007D01*
X1032375Y274172D01*
X1051315Y282018D01*
X1069500Y291484D01*
X1086790Y302499D01*
X1103055Y314980D01*
X1118170Y328830D01*
X1132020Y343945D01*
X1144501Y360210D01*
X1155516Y377500D01*
X1164982Y395685D01*
X1172828Y414625D01*
X1178993Y434178D01*
X1183430Y454193D01*
X1186106Y474518D01*
X1187000Y495000D01*
X1187000Y1220000D01*
X1427000Y1220000D01*
X1427000Y1500000D01*
X727000Y1500000D01*
X727000Y1220000D01*
X967000Y1220000D01*
X967000Y560000D01*
X966696Y553028D01*
X965785Y546108D01*
X964274Y539294D01*
X962175Y532638D01*
X959505Y526191D01*
X956282Y520000D01*
X952532Y514114D01*
X948284Y508577D01*
X943569Y503431D01*
X938423Y498716D01*
X932886Y494468D01*
X927000Y490718D01*
X920809Y487495D01*
X914362Y484825D01*
X907706Y482726D01*
X900892Y481215D01*
X893972Y480304D01*
X887000Y480000D01*
X572000Y480000D01*
X572000Y1500000D01*
X0Y1500000D01*
X0Y0D01*
X70000Y1386000D02*
X80000Y1386000D01*
X80000Y1414000D01*
X70000Y1414000D01*
X70000Y1386000D01*
X131000Y1383500D02*
X141000Y1383500D01*
X141000Y1416500D01*
X131000Y1416500D01*
X131000Y1383500D01*
X91000Y1347000D02*
X119000Y1347000D01*
X119000Y1357000D01*
X91000Y1357000D01*
X91000Y1347000D01*
M02*
