G04 EAGLE Gerber RS-274X export*
G75*
%MOMM*%
%FSLAX34Y34*%
%LPD*%
%INSoldermask Top*%
%IPPOS*%
%AMOC8*
5,1,8,0,0,1.08239X$1,22.5*%
G01*
%ADD10R,0.700000X0.900000*%
%ADD11R,0.900000X0.700000*%
%ADD12R,1.400000X1.600000*%
%ADD13R,1.600000X1.400000*%
%ADD14C,2.000000*%
%ADD15C,1.000000*%
%ADD16C,0.500000*%
%ADD17R,1.900000X0.300000*%
%ADD18C,1.950000*%
%ADD19R,2.200000X0.600000*%
%ADD20R,6.200000X5.800000*%
%ADD21R,3.000000X1.600000*%
%ADD22R,0.700000X0.600000*%
%ADD23R,1.500000X1.300000*%
%ADD24R,1.300000X1.500000*%
%ADD25C,1.219200*%
%ADD26C,6.451600*%
%ADD27R,1.651900X0.280000*%
%ADD28R,0.280000X1.651900*%
%ADD29C,0.975000*%
%ADD30C,1.905000*%


D10*
X248500Y1450000D03*
X261500Y1450000D03*
D11*
X200000Y1398500D03*
X200000Y1411500D03*
D12*
X868000Y1300000D03*
X868000Y1270000D03*
D11*
X829000Y1291500D03*
X829000Y1278500D03*
D13*
X240000Y1465000D03*
X270000Y1465000D03*
D12*
X171300Y1390700D03*
X171300Y1420700D03*
D14*
X136000Y1410000D02*
X136000Y1390000D01*
X75000Y1390000D02*
X75000Y1410000D01*
X95000Y1352000D02*
X115000Y1352000D01*
D15*
X1399400Y1477400D03*
D16*
X1399400Y1484900D02*
X1399219Y1484898D01*
X1399038Y1484891D01*
X1398857Y1484880D01*
X1398676Y1484865D01*
X1398496Y1484845D01*
X1398316Y1484821D01*
X1398137Y1484793D01*
X1397959Y1484760D01*
X1397782Y1484723D01*
X1397605Y1484682D01*
X1397430Y1484637D01*
X1397255Y1484587D01*
X1397082Y1484533D01*
X1396911Y1484475D01*
X1396740Y1484413D01*
X1396572Y1484346D01*
X1396405Y1484276D01*
X1396239Y1484202D01*
X1396076Y1484123D01*
X1395915Y1484041D01*
X1395755Y1483955D01*
X1395598Y1483865D01*
X1395443Y1483771D01*
X1395290Y1483674D01*
X1395140Y1483572D01*
X1394992Y1483468D01*
X1394846Y1483359D01*
X1394704Y1483248D01*
X1394564Y1483132D01*
X1394427Y1483014D01*
X1394292Y1482892D01*
X1394161Y1482767D01*
X1394033Y1482639D01*
X1393908Y1482508D01*
X1393786Y1482373D01*
X1393668Y1482236D01*
X1393552Y1482096D01*
X1393441Y1481954D01*
X1393332Y1481808D01*
X1393228Y1481660D01*
X1393126Y1481510D01*
X1393029Y1481357D01*
X1392935Y1481202D01*
X1392845Y1481045D01*
X1392759Y1480885D01*
X1392677Y1480724D01*
X1392598Y1480561D01*
X1392524Y1480395D01*
X1392454Y1480228D01*
X1392387Y1480060D01*
X1392325Y1479889D01*
X1392267Y1479718D01*
X1392213Y1479545D01*
X1392163Y1479370D01*
X1392118Y1479195D01*
X1392077Y1479018D01*
X1392040Y1478841D01*
X1392007Y1478663D01*
X1391979Y1478484D01*
X1391955Y1478304D01*
X1391935Y1478124D01*
X1391920Y1477943D01*
X1391909Y1477762D01*
X1391902Y1477581D01*
X1391900Y1477400D01*
X1399400Y1484900D02*
X1399581Y1484898D01*
X1399762Y1484891D01*
X1399943Y1484880D01*
X1400124Y1484865D01*
X1400304Y1484845D01*
X1400484Y1484821D01*
X1400663Y1484793D01*
X1400841Y1484760D01*
X1401018Y1484723D01*
X1401195Y1484682D01*
X1401370Y1484637D01*
X1401545Y1484587D01*
X1401718Y1484533D01*
X1401889Y1484475D01*
X1402060Y1484413D01*
X1402228Y1484346D01*
X1402395Y1484276D01*
X1402561Y1484202D01*
X1402724Y1484123D01*
X1402885Y1484041D01*
X1403045Y1483955D01*
X1403202Y1483865D01*
X1403357Y1483771D01*
X1403510Y1483674D01*
X1403660Y1483572D01*
X1403808Y1483468D01*
X1403954Y1483359D01*
X1404096Y1483248D01*
X1404236Y1483132D01*
X1404373Y1483014D01*
X1404508Y1482892D01*
X1404639Y1482767D01*
X1404767Y1482639D01*
X1404892Y1482508D01*
X1405014Y1482373D01*
X1405132Y1482236D01*
X1405248Y1482096D01*
X1405359Y1481954D01*
X1405468Y1481808D01*
X1405572Y1481660D01*
X1405674Y1481510D01*
X1405771Y1481357D01*
X1405865Y1481202D01*
X1405955Y1481045D01*
X1406041Y1480885D01*
X1406123Y1480724D01*
X1406202Y1480561D01*
X1406276Y1480395D01*
X1406346Y1480228D01*
X1406413Y1480060D01*
X1406475Y1479889D01*
X1406533Y1479718D01*
X1406587Y1479545D01*
X1406637Y1479370D01*
X1406682Y1479195D01*
X1406723Y1479018D01*
X1406760Y1478841D01*
X1406793Y1478663D01*
X1406821Y1478484D01*
X1406845Y1478304D01*
X1406865Y1478124D01*
X1406880Y1477943D01*
X1406891Y1477762D01*
X1406898Y1477581D01*
X1406900Y1477400D01*
X1406898Y1477219D01*
X1406891Y1477038D01*
X1406880Y1476857D01*
X1406865Y1476676D01*
X1406845Y1476496D01*
X1406821Y1476316D01*
X1406793Y1476137D01*
X1406760Y1475959D01*
X1406723Y1475782D01*
X1406682Y1475605D01*
X1406637Y1475430D01*
X1406587Y1475255D01*
X1406533Y1475082D01*
X1406475Y1474911D01*
X1406413Y1474740D01*
X1406346Y1474572D01*
X1406276Y1474405D01*
X1406202Y1474239D01*
X1406123Y1474076D01*
X1406041Y1473915D01*
X1405955Y1473755D01*
X1405865Y1473598D01*
X1405771Y1473443D01*
X1405674Y1473290D01*
X1405572Y1473140D01*
X1405468Y1472992D01*
X1405359Y1472846D01*
X1405248Y1472704D01*
X1405132Y1472564D01*
X1405014Y1472427D01*
X1404892Y1472292D01*
X1404767Y1472161D01*
X1404639Y1472033D01*
X1404508Y1471908D01*
X1404373Y1471786D01*
X1404236Y1471668D01*
X1404096Y1471552D01*
X1403954Y1471441D01*
X1403808Y1471332D01*
X1403660Y1471228D01*
X1403510Y1471126D01*
X1403357Y1471029D01*
X1403202Y1470935D01*
X1403045Y1470845D01*
X1402885Y1470759D01*
X1402724Y1470677D01*
X1402561Y1470598D01*
X1402395Y1470524D01*
X1402228Y1470454D01*
X1402060Y1470387D01*
X1401889Y1470325D01*
X1401718Y1470267D01*
X1401545Y1470213D01*
X1401370Y1470163D01*
X1401195Y1470118D01*
X1401018Y1470077D01*
X1400841Y1470040D01*
X1400663Y1470007D01*
X1400484Y1469979D01*
X1400304Y1469955D01*
X1400124Y1469935D01*
X1399943Y1469920D01*
X1399762Y1469909D01*
X1399581Y1469902D01*
X1399400Y1469900D01*
X1399219Y1469902D01*
X1399038Y1469909D01*
X1398857Y1469920D01*
X1398676Y1469935D01*
X1398496Y1469955D01*
X1398316Y1469979D01*
X1398137Y1470007D01*
X1397959Y1470040D01*
X1397782Y1470077D01*
X1397605Y1470118D01*
X1397430Y1470163D01*
X1397255Y1470213D01*
X1397082Y1470267D01*
X1396911Y1470325D01*
X1396740Y1470387D01*
X1396572Y1470454D01*
X1396405Y1470524D01*
X1396239Y1470598D01*
X1396076Y1470677D01*
X1395915Y1470759D01*
X1395755Y1470845D01*
X1395598Y1470935D01*
X1395443Y1471029D01*
X1395290Y1471126D01*
X1395140Y1471228D01*
X1394992Y1471332D01*
X1394846Y1471441D01*
X1394704Y1471552D01*
X1394564Y1471668D01*
X1394427Y1471786D01*
X1394292Y1471908D01*
X1394161Y1472033D01*
X1394033Y1472161D01*
X1393908Y1472292D01*
X1393786Y1472427D01*
X1393668Y1472564D01*
X1393552Y1472704D01*
X1393441Y1472846D01*
X1393332Y1472992D01*
X1393228Y1473140D01*
X1393126Y1473290D01*
X1393029Y1473443D01*
X1392935Y1473598D01*
X1392845Y1473755D01*
X1392759Y1473915D01*
X1392677Y1474076D01*
X1392598Y1474239D01*
X1392524Y1474405D01*
X1392454Y1474572D01*
X1392387Y1474740D01*
X1392325Y1474911D01*
X1392267Y1475082D01*
X1392213Y1475255D01*
X1392163Y1475430D01*
X1392118Y1475605D01*
X1392077Y1475782D01*
X1392040Y1475959D01*
X1392007Y1476137D01*
X1391979Y1476316D01*
X1391955Y1476496D01*
X1391935Y1476676D01*
X1391920Y1476857D01*
X1391909Y1477038D01*
X1391902Y1477219D01*
X1391900Y1477400D01*
D15*
X1396000Y1244400D03*
D16*
X1396000Y1251900D02*
X1395819Y1251898D01*
X1395638Y1251891D01*
X1395457Y1251880D01*
X1395276Y1251865D01*
X1395096Y1251845D01*
X1394916Y1251821D01*
X1394737Y1251793D01*
X1394559Y1251760D01*
X1394382Y1251723D01*
X1394205Y1251682D01*
X1394030Y1251637D01*
X1393855Y1251587D01*
X1393682Y1251533D01*
X1393511Y1251475D01*
X1393340Y1251413D01*
X1393172Y1251346D01*
X1393005Y1251276D01*
X1392839Y1251202D01*
X1392676Y1251123D01*
X1392515Y1251041D01*
X1392355Y1250955D01*
X1392198Y1250865D01*
X1392043Y1250771D01*
X1391890Y1250674D01*
X1391740Y1250572D01*
X1391592Y1250468D01*
X1391446Y1250359D01*
X1391304Y1250248D01*
X1391164Y1250132D01*
X1391027Y1250014D01*
X1390892Y1249892D01*
X1390761Y1249767D01*
X1390633Y1249639D01*
X1390508Y1249508D01*
X1390386Y1249373D01*
X1390268Y1249236D01*
X1390152Y1249096D01*
X1390041Y1248954D01*
X1389932Y1248808D01*
X1389828Y1248660D01*
X1389726Y1248510D01*
X1389629Y1248357D01*
X1389535Y1248202D01*
X1389445Y1248045D01*
X1389359Y1247885D01*
X1389277Y1247724D01*
X1389198Y1247561D01*
X1389124Y1247395D01*
X1389054Y1247228D01*
X1388987Y1247060D01*
X1388925Y1246889D01*
X1388867Y1246718D01*
X1388813Y1246545D01*
X1388763Y1246370D01*
X1388718Y1246195D01*
X1388677Y1246018D01*
X1388640Y1245841D01*
X1388607Y1245663D01*
X1388579Y1245484D01*
X1388555Y1245304D01*
X1388535Y1245124D01*
X1388520Y1244943D01*
X1388509Y1244762D01*
X1388502Y1244581D01*
X1388500Y1244400D01*
X1396000Y1251900D02*
X1396181Y1251898D01*
X1396362Y1251891D01*
X1396543Y1251880D01*
X1396724Y1251865D01*
X1396904Y1251845D01*
X1397084Y1251821D01*
X1397263Y1251793D01*
X1397441Y1251760D01*
X1397618Y1251723D01*
X1397795Y1251682D01*
X1397970Y1251637D01*
X1398145Y1251587D01*
X1398318Y1251533D01*
X1398489Y1251475D01*
X1398660Y1251413D01*
X1398828Y1251346D01*
X1398995Y1251276D01*
X1399161Y1251202D01*
X1399324Y1251123D01*
X1399485Y1251041D01*
X1399645Y1250955D01*
X1399802Y1250865D01*
X1399957Y1250771D01*
X1400110Y1250674D01*
X1400260Y1250572D01*
X1400408Y1250468D01*
X1400554Y1250359D01*
X1400696Y1250248D01*
X1400836Y1250132D01*
X1400973Y1250014D01*
X1401108Y1249892D01*
X1401239Y1249767D01*
X1401367Y1249639D01*
X1401492Y1249508D01*
X1401614Y1249373D01*
X1401732Y1249236D01*
X1401848Y1249096D01*
X1401959Y1248954D01*
X1402068Y1248808D01*
X1402172Y1248660D01*
X1402274Y1248510D01*
X1402371Y1248357D01*
X1402465Y1248202D01*
X1402555Y1248045D01*
X1402641Y1247885D01*
X1402723Y1247724D01*
X1402802Y1247561D01*
X1402876Y1247395D01*
X1402946Y1247228D01*
X1403013Y1247060D01*
X1403075Y1246889D01*
X1403133Y1246718D01*
X1403187Y1246545D01*
X1403237Y1246370D01*
X1403282Y1246195D01*
X1403323Y1246018D01*
X1403360Y1245841D01*
X1403393Y1245663D01*
X1403421Y1245484D01*
X1403445Y1245304D01*
X1403465Y1245124D01*
X1403480Y1244943D01*
X1403491Y1244762D01*
X1403498Y1244581D01*
X1403500Y1244400D01*
X1403498Y1244219D01*
X1403491Y1244038D01*
X1403480Y1243857D01*
X1403465Y1243676D01*
X1403445Y1243496D01*
X1403421Y1243316D01*
X1403393Y1243137D01*
X1403360Y1242959D01*
X1403323Y1242782D01*
X1403282Y1242605D01*
X1403237Y1242430D01*
X1403187Y1242255D01*
X1403133Y1242082D01*
X1403075Y1241911D01*
X1403013Y1241740D01*
X1402946Y1241572D01*
X1402876Y1241405D01*
X1402802Y1241239D01*
X1402723Y1241076D01*
X1402641Y1240915D01*
X1402555Y1240755D01*
X1402465Y1240598D01*
X1402371Y1240443D01*
X1402274Y1240290D01*
X1402172Y1240140D01*
X1402068Y1239992D01*
X1401959Y1239846D01*
X1401848Y1239704D01*
X1401732Y1239564D01*
X1401614Y1239427D01*
X1401492Y1239292D01*
X1401367Y1239161D01*
X1401239Y1239033D01*
X1401108Y1238908D01*
X1400973Y1238786D01*
X1400836Y1238668D01*
X1400696Y1238552D01*
X1400554Y1238441D01*
X1400408Y1238332D01*
X1400260Y1238228D01*
X1400110Y1238126D01*
X1399957Y1238029D01*
X1399802Y1237935D01*
X1399645Y1237845D01*
X1399485Y1237759D01*
X1399324Y1237677D01*
X1399161Y1237598D01*
X1398995Y1237524D01*
X1398828Y1237454D01*
X1398660Y1237387D01*
X1398489Y1237325D01*
X1398318Y1237267D01*
X1398145Y1237213D01*
X1397970Y1237163D01*
X1397795Y1237118D01*
X1397618Y1237077D01*
X1397441Y1237040D01*
X1397263Y1237007D01*
X1397084Y1236979D01*
X1396904Y1236955D01*
X1396724Y1236935D01*
X1396543Y1236920D01*
X1396362Y1236909D01*
X1396181Y1236902D01*
X1396000Y1236900D01*
X1395819Y1236902D01*
X1395638Y1236909D01*
X1395457Y1236920D01*
X1395276Y1236935D01*
X1395096Y1236955D01*
X1394916Y1236979D01*
X1394737Y1237007D01*
X1394559Y1237040D01*
X1394382Y1237077D01*
X1394205Y1237118D01*
X1394030Y1237163D01*
X1393855Y1237213D01*
X1393682Y1237267D01*
X1393511Y1237325D01*
X1393340Y1237387D01*
X1393172Y1237454D01*
X1393005Y1237524D01*
X1392839Y1237598D01*
X1392676Y1237677D01*
X1392515Y1237759D01*
X1392355Y1237845D01*
X1392198Y1237935D01*
X1392043Y1238029D01*
X1391890Y1238126D01*
X1391740Y1238228D01*
X1391592Y1238332D01*
X1391446Y1238441D01*
X1391304Y1238552D01*
X1391164Y1238668D01*
X1391027Y1238786D01*
X1390892Y1238908D01*
X1390761Y1239033D01*
X1390633Y1239161D01*
X1390508Y1239292D01*
X1390386Y1239427D01*
X1390268Y1239564D01*
X1390152Y1239704D01*
X1390041Y1239846D01*
X1389932Y1239992D01*
X1389828Y1240140D01*
X1389726Y1240290D01*
X1389629Y1240443D01*
X1389535Y1240598D01*
X1389445Y1240755D01*
X1389359Y1240915D01*
X1389277Y1241076D01*
X1389198Y1241239D01*
X1389124Y1241405D01*
X1389054Y1241572D01*
X1388987Y1241740D01*
X1388925Y1241911D01*
X1388867Y1242082D01*
X1388813Y1242255D01*
X1388763Y1242430D01*
X1388718Y1242605D01*
X1388677Y1242782D01*
X1388640Y1242959D01*
X1388607Y1243137D01*
X1388579Y1243316D01*
X1388555Y1243496D01*
X1388535Y1243676D01*
X1388520Y1243857D01*
X1388509Y1244038D01*
X1388502Y1244219D01*
X1388500Y1244400D01*
D15*
X543000Y26000D03*
D16*
X535500Y26000D02*
X535502Y25819D01*
X535509Y25638D01*
X535520Y25457D01*
X535535Y25276D01*
X535555Y25096D01*
X535579Y24916D01*
X535607Y24737D01*
X535640Y24559D01*
X535677Y24382D01*
X535718Y24205D01*
X535763Y24030D01*
X535813Y23855D01*
X535867Y23682D01*
X535925Y23511D01*
X535987Y23340D01*
X536054Y23172D01*
X536124Y23005D01*
X536198Y22839D01*
X536277Y22676D01*
X536359Y22515D01*
X536445Y22355D01*
X536535Y22198D01*
X536629Y22043D01*
X536726Y21890D01*
X536828Y21740D01*
X536932Y21592D01*
X537041Y21446D01*
X537152Y21304D01*
X537268Y21164D01*
X537386Y21027D01*
X537508Y20892D01*
X537633Y20761D01*
X537761Y20633D01*
X537892Y20508D01*
X538027Y20386D01*
X538164Y20268D01*
X538304Y20152D01*
X538446Y20041D01*
X538592Y19932D01*
X538740Y19828D01*
X538890Y19726D01*
X539043Y19629D01*
X539198Y19535D01*
X539355Y19445D01*
X539515Y19359D01*
X539676Y19277D01*
X539839Y19198D01*
X540005Y19124D01*
X540172Y19054D01*
X540340Y18987D01*
X540511Y18925D01*
X540682Y18867D01*
X540855Y18813D01*
X541030Y18763D01*
X541205Y18718D01*
X541382Y18677D01*
X541559Y18640D01*
X541737Y18607D01*
X541916Y18579D01*
X542096Y18555D01*
X542276Y18535D01*
X542457Y18520D01*
X542638Y18509D01*
X542819Y18502D01*
X543000Y18500D01*
X535500Y26000D02*
X535502Y26181D01*
X535509Y26362D01*
X535520Y26543D01*
X535535Y26724D01*
X535555Y26904D01*
X535579Y27084D01*
X535607Y27263D01*
X535640Y27441D01*
X535677Y27618D01*
X535718Y27795D01*
X535763Y27970D01*
X535813Y28145D01*
X535867Y28318D01*
X535925Y28489D01*
X535987Y28660D01*
X536054Y28828D01*
X536124Y28995D01*
X536198Y29161D01*
X536277Y29324D01*
X536359Y29485D01*
X536445Y29645D01*
X536535Y29802D01*
X536629Y29957D01*
X536726Y30110D01*
X536828Y30260D01*
X536932Y30408D01*
X537041Y30554D01*
X537152Y30696D01*
X537268Y30836D01*
X537386Y30973D01*
X537508Y31108D01*
X537633Y31239D01*
X537761Y31367D01*
X537892Y31492D01*
X538027Y31614D01*
X538164Y31732D01*
X538304Y31848D01*
X538446Y31959D01*
X538592Y32068D01*
X538740Y32172D01*
X538890Y32274D01*
X539043Y32371D01*
X539198Y32465D01*
X539355Y32555D01*
X539515Y32641D01*
X539676Y32723D01*
X539839Y32802D01*
X540005Y32876D01*
X540172Y32946D01*
X540340Y33013D01*
X540511Y33075D01*
X540682Y33133D01*
X540855Y33187D01*
X541030Y33237D01*
X541205Y33282D01*
X541382Y33323D01*
X541559Y33360D01*
X541737Y33393D01*
X541916Y33421D01*
X542096Y33445D01*
X542276Y33465D01*
X542457Y33480D01*
X542638Y33491D01*
X542819Y33498D01*
X543000Y33500D01*
X543181Y33498D01*
X543362Y33491D01*
X543543Y33480D01*
X543724Y33465D01*
X543904Y33445D01*
X544084Y33421D01*
X544263Y33393D01*
X544441Y33360D01*
X544618Y33323D01*
X544795Y33282D01*
X544970Y33237D01*
X545145Y33187D01*
X545318Y33133D01*
X545489Y33075D01*
X545660Y33013D01*
X545828Y32946D01*
X545995Y32876D01*
X546161Y32802D01*
X546324Y32723D01*
X546485Y32641D01*
X546645Y32555D01*
X546802Y32465D01*
X546957Y32371D01*
X547110Y32274D01*
X547260Y32172D01*
X547408Y32068D01*
X547554Y31959D01*
X547696Y31848D01*
X547836Y31732D01*
X547973Y31614D01*
X548108Y31492D01*
X548239Y31367D01*
X548367Y31239D01*
X548492Y31108D01*
X548614Y30973D01*
X548732Y30836D01*
X548848Y30696D01*
X548959Y30554D01*
X549068Y30408D01*
X549172Y30260D01*
X549274Y30110D01*
X549371Y29957D01*
X549465Y29802D01*
X549555Y29645D01*
X549641Y29485D01*
X549723Y29324D01*
X549802Y29161D01*
X549876Y28995D01*
X549946Y28828D01*
X550013Y28660D01*
X550075Y28489D01*
X550133Y28318D01*
X550187Y28145D01*
X550237Y27970D01*
X550282Y27795D01*
X550323Y27618D01*
X550360Y27441D01*
X550393Y27263D01*
X550421Y27084D01*
X550445Y26904D01*
X550465Y26724D01*
X550480Y26543D01*
X550491Y26362D01*
X550498Y26181D01*
X550500Y26000D01*
X550498Y25819D01*
X550491Y25638D01*
X550480Y25457D01*
X550465Y25276D01*
X550445Y25096D01*
X550421Y24916D01*
X550393Y24737D01*
X550360Y24559D01*
X550323Y24382D01*
X550282Y24205D01*
X550237Y24030D01*
X550187Y23855D01*
X550133Y23682D01*
X550075Y23511D01*
X550013Y23340D01*
X549946Y23172D01*
X549876Y23005D01*
X549802Y22839D01*
X549723Y22676D01*
X549641Y22515D01*
X549555Y22355D01*
X549465Y22198D01*
X549371Y22043D01*
X549274Y21890D01*
X549172Y21740D01*
X549068Y21592D01*
X548959Y21446D01*
X548848Y21304D01*
X548732Y21164D01*
X548614Y21027D01*
X548492Y20892D01*
X548367Y20761D01*
X548239Y20633D01*
X548108Y20508D01*
X547973Y20386D01*
X547836Y20268D01*
X547696Y20152D01*
X547554Y20041D01*
X547408Y19932D01*
X547260Y19828D01*
X547110Y19726D01*
X546957Y19629D01*
X546802Y19535D01*
X546645Y19445D01*
X546485Y19359D01*
X546324Y19277D01*
X546161Y19198D01*
X545995Y19124D01*
X545828Y19054D01*
X545660Y18987D01*
X545489Y18925D01*
X545318Y18867D01*
X545145Y18813D01*
X544970Y18763D01*
X544795Y18718D01*
X544618Y18677D01*
X544441Y18640D01*
X544263Y18607D01*
X544084Y18579D01*
X543904Y18555D01*
X543724Y18535D01*
X543543Y18520D01*
X543362Y18509D01*
X543181Y18502D01*
X543000Y18500D01*
D15*
X545000Y1475000D03*
D16*
X545000Y1482500D02*
X544819Y1482498D01*
X544638Y1482491D01*
X544457Y1482480D01*
X544276Y1482465D01*
X544096Y1482445D01*
X543916Y1482421D01*
X543737Y1482393D01*
X543559Y1482360D01*
X543382Y1482323D01*
X543205Y1482282D01*
X543030Y1482237D01*
X542855Y1482187D01*
X542682Y1482133D01*
X542511Y1482075D01*
X542340Y1482013D01*
X542172Y1481946D01*
X542005Y1481876D01*
X541839Y1481802D01*
X541676Y1481723D01*
X541515Y1481641D01*
X541355Y1481555D01*
X541198Y1481465D01*
X541043Y1481371D01*
X540890Y1481274D01*
X540740Y1481172D01*
X540592Y1481068D01*
X540446Y1480959D01*
X540304Y1480848D01*
X540164Y1480732D01*
X540027Y1480614D01*
X539892Y1480492D01*
X539761Y1480367D01*
X539633Y1480239D01*
X539508Y1480108D01*
X539386Y1479973D01*
X539268Y1479836D01*
X539152Y1479696D01*
X539041Y1479554D01*
X538932Y1479408D01*
X538828Y1479260D01*
X538726Y1479110D01*
X538629Y1478957D01*
X538535Y1478802D01*
X538445Y1478645D01*
X538359Y1478485D01*
X538277Y1478324D01*
X538198Y1478161D01*
X538124Y1477995D01*
X538054Y1477828D01*
X537987Y1477660D01*
X537925Y1477489D01*
X537867Y1477318D01*
X537813Y1477145D01*
X537763Y1476970D01*
X537718Y1476795D01*
X537677Y1476618D01*
X537640Y1476441D01*
X537607Y1476263D01*
X537579Y1476084D01*
X537555Y1475904D01*
X537535Y1475724D01*
X537520Y1475543D01*
X537509Y1475362D01*
X537502Y1475181D01*
X537500Y1475000D01*
X545000Y1482500D02*
X545181Y1482498D01*
X545362Y1482491D01*
X545543Y1482480D01*
X545724Y1482465D01*
X545904Y1482445D01*
X546084Y1482421D01*
X546263Y1482393D01*
X546441Y1482360D01*
X546618Y1482323D01*
X546795Y1482282D01*
X546970Y1482237D01*
X547145Y1482187D01*
X547318Y1482133D01*
X547489Y1482075D01*
X547660Y1482013D01*
X547828Y1481946D01*
X547995Y1481876D01*
X548161Y1481802D01*
X548324Y1481723D01*
X548485Y1481641D01*
X548645Y1481555D01*
X548802Y1481465D01*
X548957Y1481371D01*
X549110Y1481274D01*
X549260Y1481172D01*
X549408Y1481068D01*
X549554Y1480959D01*
X549696Y1480848D01*
X549836Y1480732D01*
X549973Y1480614D01*
X550108Y1480492D01*
X550239Y1480367D01*
X550367Y1480239D01*
X550492Y1480108D01*
X550614Y1479973D01*
X550732Y1479836D01*
X550848Y1479696D01*
X550959Y1479554D01*
X551068Y1479408D01*
X551172Y1479260D01*
X551274Y1479110D01*
X551371Y1478957D01*
X551465Y1478802D01*
X551555Y1478645D01*
X551641Y1478485D01*
X551723Y1478324D01*
X551802Y1478161D01*
X551876Y1477995D01*
X551946Y1477828D01*
X552013Y1477660D01*
X552075Y1477489D01*
X552133Y1477318D01*
X552187Y1477145D01*
X552237Y1476970D01*
X552282Y1476795D01*
X552323Y1476618D01*
X552360Y1476441D01*
X552393Y1476263D01*
X552421Y1476084D01*
X552445Y1475904D01*
X552465Y1475724D01*
X552480Y1475543D01*
X552491Y1475362D01*
X552498Y1475181D01*
X552500Y1475000D01*
X552498Y1474819D01*
X552491Y1474638D01*
X552480Y1474457D01*
X552465Y1474276D01*
X552445Y1474096D01*
X552421Y1473916D01*
X552393Y1473737D01*
X552360Y1473559D01*
X552323Y1473382D01*
X552282Y1473205D01*
X552237Y1473030D01*
X552187Y1472855D01*
X552133Y1472682D01*
X552075Y1472511D01*
X552013Y1472340D01*
X551946Y1472172D01*
X551876Y1472005D01*
X551802Y1471839D01*
X551723Y1471676D01*
X551641Y1471515D01*
X551555Y1471355D01*
X551465Y1471198D01*
X551371Y1471043D01*
X551274Y1470890D01*
X551172Y1470740D01*
X551068Y1470592D01*
X550959Y1470446D01*
X550848Y1470304D01*
X550732Y1470164D01*
X550614Y1470027D01*
X550492Y1469892D01*
X550367Y1469761D01*
X550239Y1469633D01*
X550108Y1469508D01*
X549973Y1469386D01*
X549836Y1469268D01*
X549696Y1469152D01*
X549554Y1469041D01*
X549408Y1468932D01*
X549260Y1468828D01*
X549110Y1468726D01*
X548957Y1468629D01*
X548802Y1468535D01*
X548645Y1468445D01*
X548485Y1468359D01*
X548324Y1468277D01*
X548161Y1468198D01*
X547995Y1468124D01*
X547828Y1468054D01*
X547660Y1467987D01*
X547489Y1467925D01*
X547318Y1467867D01*
X547145Y1467813D01*
X546970Y1467763D01*
X546795Y1467718D01*
X546618Y1467677D01*
X546441Y1467640D01*
X546263Y1467607D01*
X546084Y1467579D01*
X545904Y1467555D01*
X545724Y1467535D01*
X545543Y1467520D01*
X545362Y1467509D01*
X545181Y1467502D01*
X545000Y1467500D01*
X544819Y1467502D01*
X544638Y1467509D01*
X544457Y1467520D01*
X544276Y1467535D01*
X544096Y1467555D01*
X543916Y1467579D01*
X543737Y1467607D01*
X543559Y1467640D01*
X543382Y1467677D01*
X543205Y1467718D01*
X543030Y1467763D01*
X542855Y1467813D01*
X542682Y1467867D01*
X542511Y1467925D01*
X542340Y1467987D01*
X542172Y1468054D01*
X542005Y1468124D01*
X541839Y1468198D01*
X541676Y1468277D01*
X541515Y1468359D01*
X541355Y1468445D01*
X541198Y1468535D01*
X541043Y1468629D01*
X540890Y1468726D01*
X540740Y1468828D01*
X540592Y1468932D01*
X540446Y1469041D01*
X540304Y1469152D01*
X540164Y1469268D01*
X540027Y1469386D01*
X539892Y1469508D01*
X539761Y1469633D01*
X539633Y1469761D01*
X539508Y1469892D01*
X539386Y1470027D01*
X539268Y1470164D01*
X539152Y1470304D01*
X539041Y1470446D01*
X538932Y1470592D01*
X538828Y1470740D01*
X538726Y1470890D01*
X538629Y1471043D01*
X538535Y1471198D01*
X538445Y1471355D01*
X538359Y1471515D01*
X538277Y1471676D01*
X538198Y1471839D01*
X538124Y1472005D01*
X538054Y1472172D01*
X537987Y1472340D01*
X537925Y1472511D01*
X537867Y1472682D01*
X537813Y1472855D01*
X537763Y1473030D01*
X537718Y1473205D01*
X537677Y1473382D01*
X537640Y1473559D01*
X537607Y1473737D01*
X537579Y1473916D01*
X537555Y1474096D01*
X537535Y1474276D01*
X537520Y1474457D01*
X537509Y1474638D01*
X537502Y1474819D01*
X537500Y1475000D01*
D15*
X25000Y1475000D03*
D16*
X25000Y1482500D02*
X24819Y1482498D01*
X24638Y1482491D01*
X24457Y1482480D01*
X24276Y1482465D01*
X24096Y1482445D01*
X23916Y1482421D01*
X23737Y1482393D01*
X23559Y1482360D01*
X23382Y1482323D01*
X23205Y1482282D01*
X23030Y1482237D01*
X22855Y1482187D01*
X22682Y1482133D01*
X22511Y1482075D01*
X22340Y1482013D01*
X22172Y1481946D01*
X22005Y1481876D01*
X21839Y1481802D01*
X21676Y1481723D01*
X21515Y1481641D01*
X21355Y1481555D01*
X21198Y1481465D01*
X21043Y1481371D01*
X20890Y1481274D01*
X20740Y1481172D01*
X20592Y1481068D01*
X20446Y1480959D01*
X20304Y1480848D01*
X20164Y1480732D01*
X20027Y1480614D01*
X19892Y1480492D01*
X19761Y1480367D01*
X19633Y1480239D01*
X19508Y1480108D01*
X19386Y1479973D01*
X19268Y1479836D01*
X19152Y1479696D01*
X19041Y1479554D01*
X18932Y1479408D01*
X18828Y1479260D01*
X18726Y1479110D01*
X18629Y1478957D01*
X18535Y1478802D01*
X18445Y1478645D01*
X18359Y1478485D01*
X18277Y1478324D01*
X18198Y1478161D01*
X18124Y1477995D01*
X18054Y1477828D01*
X17987Y1477660D01*
X17925Y1477489D01*
X17867Y1477318D01*
X17813Y1477145D01*
X17763Y1476970D01*
X17718Y1476795D01*
X17677Y1476618D01*
X17640Y1476441D01*
X17607Y1476263D01*
X17579Y1476084D01*
X17555Y1475904D01*
X17535Y1475724D01*
X17520Y1475543D01*
X17509Y1475362D01*
X17502Y1475181D01*
X17500Y1475000D01*
X25000Y1482500D02*
X25181Y1482498D01*
X25362Y1482491D01*
X25543Y1482480D01*
X25724Y1482465D01*
X25904Y1482445D01*
X26084Y1482421D01*
X26263Y1482393D01*
X26441Y1482360D01*
X26618Y1482323D01*
X26795Y1482282D01*
X26970Y1482237D01*
X27145Y1482187D01*
X27318Y1482133D01*
X27489Y1482075D01*
X27660Y1482013D01*
X27828Y1481946D01*
X27995Y1481876D01*
X28161Y1481802D01*
X28324Y1481723D01*
X28485Y1481641D01*
X28645Y1481555D01*
X28802Y1481465D01*
X28957Y1481371D01*
X29110Y1481274D01*
X29260Y1481172D01*
X29408Y1481068D01*
X29554Y1480959D01*
X29696Y1480848D01*
X29836Y1480732D01*
X29973Y1480614D01*
X30108Y1480492D01*
X30239Y1480367D01*
X30367Y1480239D01*
X30492Y1480108D01*
X30614Y1479973D01*
X30732Y1479836D01*
X30848Y1479696D01*
X30959Y1479554D01*
X31068Y1479408D01*
X31172Y1479260D01*
X31274Y1479110D01*
X31371Y1478957D01*
X31465Y1478802D01*
X31555Y1478645D01*
X31641Y1478485D01*
X31723Y1478324D01*
X31802Y1478161D01*
X31876Y1477995D01*
X31946Y1477828D01*
X32013Y1477660D01*
X32075Y1477489D01*
X32133Y1477318D01*
X32187Y1477145D01*
X32237Y1476970D01*
X32282Y1476795D01*
X32323Y1476618D01*
X32360Y1476441D01*
X32393Y1476263D01*
X32421Y1476084D01*
X32445Y1475904D01*
X32465Y1475724D01*
X32480Y1475543D01*
X32491Y1475362D01*
X32498Y1475181D01*
X32500Y1475000D01*
X32498Y1474819D01*
X32491Y1474638D01*
X32480Y1474457D01*
X32465Y1474276D01*
X32445Y1474096D01*
X32421Y1473916D01*
X32393Y1473737D01*
X32360Y1473559D01*
X32323Y1473382D01*
X32282Y1473205D01*
X32237Y1473030D01*
X32187Y1472855D01*
X32133Y1472682D01*
X32075Y1472511D01*
X32013Y1472340D01*
X31946Y1472172D01*
X31876Y1472005D01*
X31802Y1471839D01*
X31723Y1471676D01*
X31641Y1471515D01*
X31555Y1471355D01*
X31465Y1471198D01*
X31371Y1471043D01*
X31274Y1470890D01*
X31172Y1470740D01*
X31068Y1470592D01*
X30959Y1470446D01*
X30848Y1470304D01*
X30732Y1470164D01*
X30614Y1470027D01*
X30492Y1469892D01*
X30367Y1469761D01*
X30239Y1469633D01*
X30108Y1469508D01*
X29973Y1469386D01*
X29836Y1469268D01*
X29696Y1469152D01*
X29554Y1469041D01*
X29408Y1468932D01*
X29260Y1468828D01*
X29110Y1468726D01*
X28957Y1468629D01*
X28802Y1468535D01*
X28645Y1468445D01*
X28485Y1468359D01*
X28324Y1468277D01*
X28161Y1468198D01*
X27995Y1468124D01*
X27828Y1468054D01*
X27660Y1467987D01*
X27489Y1467925D01*
X27318Y1467867D01*
X27145Y1467813D01*
X26970Y1467763D01*
X26795Y1467718D01*
X26618Y1467677D01*
X26441Y1467640D01*
X26263Y1467607D01*
X26084Y1467579D01*
X25904Y1467555D01*
X25724Y1467535D01*
X25543Y1467520D01*
X25362Y1467509D01*
X25181Y1467502D01*
X25000Y1467500D01*
X24819Y1467502D01*
X24638Y1467509D01*
X24457Y1467520D01*
X24276Y1467535D01*
X24096Y1467555D01*
X23916Y1467579D01*
X23737Y1467607D01*
X23559Y1467640D01*
X23382Y1467677D01*
X23205Y1467718D01*
X23030Y1467763D01*
X22855Y1467813D01*
X22682Y1467867D01*
X22511Y1467925D01*
X22340Y1467987D01*
X22172Y1468054D01*
X22005Y1468124D01*
X21839Y1468198D01*
X21676Y1468277D01*
X21515Y1468359D01*
X21355Y1468445D01*
X21198Y1468535D01*
X21043Y1468629D01*
X20890Y1468726D01*
X20740Y1468828D01*
X20592Y1468932D01*
X20446Y1469041D01*
X20304Y1469152D01*
X20164Y1469268D01*
X20027Y1469386D01*
X19892Y1469508D01*
X19761Y1469633D01*
X19633Y1469761D01*
X19508Y1469892D01*
X19386Y1470027D01*
X19268Y1470164D01*
X19152Y1470304D01*
X19041Y1470446D01*
X18932Y1470592D01*
X18828Y1470740D01*
X18726Y1470890D01*
X18629Y1471043D01*
X18535Y1471198D01*
X18445Y1471355D01*
X18359Y1471515D01*
X18277Y1471676D01*
X18198Y1471839D01*
X18124Y1472005D01*
X18054Y1472172D01*
X17987Y1472340D01*
X17925Y1472511D01*
X17867Y1472682D01*
X17813Y1472855D01*
X17763Y1473030D01*
X17718Y1473205D01*
X17677Y1473382D01*
X17640Y1473559D01*
X17607Y1473737D01*
X17579Y1473916D01*
X17555Y1474096D01*
X17535Y1474276D01*
X17520Y1474457D01*
X17509Y1474638D01*
X17502Y1474819D01*
X17500Y1475000D01*
D15*
X766400Y1247400D03*
D16*
X766400Y1254900D02*
X766219Y1254898D01*
X766038Y1254891D01*
X765857Y1254880D01*
X765676Y1254865D01*
X765496Y1254845D01*
X765316Y1254821D01*
X765137Y1254793D01*
X764959Y1254760D01*
X764782Y1254723D01*
X764605Y1254682D01*
X764430Y1254637D01*
X764255Y1254587D01*
X764082Y1254533D01*
X763911Y1254475D01*
X763740Y1254413D01*
X763572Y1254346D01*
X763405Y1254276D01*
X763239Y1254202D01*
X763076Y1254123D01*
X762915Y1254041D01*
X762755Y1253955D01*
X762598Y1253865D01*
X762443Y1253771D01*
X762290Y1253674D01*
X762140Y1253572D01*
X761992Y1253468D01*
X761846Y1253359D01*
X761704Y1253248D01*
X761564Y1253132D01*
X761427Y1253014D01*
X761292Y1252892D01*
X761161Y1252767D01*
X761033Y1252639D01*
X760908Y1252508D01*
X760786Y1252373D01*
X760668Y1252236D01*
X760552Y1252096D01*
X760441Y1251954D01*
X760332Y1251808D01*
X760228Y1251660D01*
X760126Y1251510D01*
X760029Y1251357D01*
X759935Y1251202D01*
X759845Y1251045D01*
X759759Y1250885D01*
X759677Y1250724D01*
X759598Y1250561D01*
X759524Y1250395D01*
X759454Y1250228D01*
X759387Y1250060D01*
X759325Y1249889D01*
X759267Y1249718D01*
X759213Y1249545D01*
X759163Y1249370D01*
X759118Y1249195D01*
X759077Y1249018D01*
X759040Y1248841D01*
X759007Y1248663D01*
X758979Y1248484D01*
X758955Y1248304D01*
X758935Y1248124D01*
X758920Y1247943D01*
X758909Y1247762D01*
X758902Y1247581D01*
X758900Y1247400D01*
X766400Y1254900D02*
X766581Y1254898D01*
X766762Y1254891D01*
X766943Y1254880D01*
X767124Y1254865D01*
X767304Y1254845D01*
X767484Y1254821D01*
X767663Y1254793D01*
X767841Y1254760D01*
X768018Y1254723D01*
X768195Y1254682D01*
X768370Y1254637D01*
X768545Y1254587D01*
X768718Y1254533D01*
X768889Y1254475D01*
X769060Y1254413D01*
X769228Y1254346D01*
X769395Y1254276D01*
X769561Y1254202D01*
X769724Y1254123D01*
X769885Y1254041D01*
X770045Y1253955D01*
X770202Y1253865D01*
X770357Y1253771D01*
X770510Y1253674D01*
X770660Y1253572D01*
X770808Y1253468D01*
X770954Y1253359D01*
X771096Y1253248D01*
X771236Y1253132D01*
X771373Y1253014D01*
X771508Y1252892D01*
X771639Y1252767D01*
X771767Y1252639D01*
X771892Y1252508D01*
X772014Y1252373D01*
X772132Y1252236D01*
X772248Y1252096D01*
X772359Y1251954D01*
X772468Y1251808D01*
X772572Y1251660D01*
X772674Y1251510D01*
X772771Y1251357D01*
X772865Y1251202D01*
X772955Y1251045D01*
X773041Y1250885D01*
X773123Y1250724D01*
X773202Y1250561D01*
X773276Y1250395D01*
X773346Y1250228D01*
X773413Y1250060D01*
X773475Y1249889D01*
X773533Y1249718D01*
X773587Y1249545D01*
X773637Y1249370D01*
X773682Y1249195D01*
X773723Y1249018D01*
X773760Y1248841D01*
X773793Y1248663D01*
X773821Y1248484D01*
X773845Y1248304D01*
X773865Y1248124D01*
X773880Y1247943D01*
X773891Y1247762D01*
X773898Y1247581D01*
X773900Y1247400D01*
X773898Y1247219D01*
X773891Y1247038D01*
X773880Y1246857D01*
X773865Y1246676D01*
X773845Y1246496D01*
X773821Y1246316D01*
X773793Y1246137D01*
X773760Y1245959D01*
X773723Y1245782D01*
X773682Y1245605D01*
X773637Y1245430D01*
X773587Y1245255D01*
X773533Y1245082D01*
X773475Y1244911D01*
X773413Y1244740D01*
X773346Y1244572D01*
X773276Y1244405D01*
X773202Y1244239D01*
X773123Y1244076D01*
X773041Y1243915D01*
X772955Y1243755D01*
X772865Y1243598D01*
X772771Y1243443D01*
X772674Y1243290D01*
X772572Y1243140D01*
X772468Y1242992D01*
X772359Y1242846D01*
X772248Y1242704D01*
X772132Y1242564D01*
X772014Y1242427D01*
X771892Y1242292D01*
X771767Y1242161D01*
X771639Y1242033D01*
X771508Y1241908D01*
X771373Y1241786D01*
X771236Y1241668D01*
X771096Y1241552D01*
X770954Y1241441D01*
X770808Y1241332D01*
X770660Y1241228D01*
X770510Y1241126D01*
X770357Y1241029D01*
X770202Y1240935D01*
X770045Y1240845D01*
X769885Y1240759D01*
X769724Y1240677D01*
X769561Y1240598D01*
X769395Y1240524D01*
X769228Y1240454D01*
X769060Y1240387D01*
X768889Y1240325D01*
X768718Y1240267D01*
X768545Y1240213D01*
X768370Y1240163D01*
X768195Y1240118D01*
X768018Y1240077D01*
X767841Y1240040D01*
X767663Y1240007D01*
X767484Y1239979D01*
X767304Y1239955D01*
X767124Y1239935D01*
X766943Y1239920D01*
X766762Y1239909D01*
X766581Y1239902D01*
X766400Y1239900D01*
X766219Y1239902D01*
X766038Y1239909D01*
X765857Y1239920D01*
X765676Y1239935D01*
X765496Y1239955D01*
X765316Y1239979D01*
X765137Y1240007D01*
X764959Y1240040D01*
X764782Y1240077D01*
X764605Y1240118D01*
X764430Y1240163D01*
X764255Y1240213D01*
X764082Y1240267D01*
X763911Y1240325D01*
X763740Y1240387D01*
X763572Y1240454D01*
X763405Y1240524D01*
X763239Y1240598D01*
X763076Y1240677D01*
X762915Y1240759D01*
X762755Y1240845D01*
X762598Y1240935D01*
X762443Y1241029D01*
X762290Y1241126D01*
X762140Y1241228D01*
X761992Y1241332D01*
X761846Y1241441D01*
X761704Y1241552D01*
X761564Y1241668D01*
X761427Y1241786D01*
X761292Y1241908D01*
X761161Y1242033D01*
X761033Y1242161D01*
X760908Y1242292D01*
X760786Y1242427D01*
X760668Y1242564D01*
X760552Y1242704D01*
X760441Y1242846D01*
X760332Y1242992D01*
X760228Y1243140D01*
X760126Y1243290D01*
X760029Y1243443D01*
X759935Y1243598D01*
X759845Y1243755D01*
X759759Y1243915D01*
X759677Y1244076D01*
X759598Y1244239D01*
X759524Y1244405D01*
X759454Y1244572D01*
X759387Y1244740D01*
X759325Y1244911D01*
X759267Y1245082D01*
X759213Y1245255D01*
X759163Y1245430D01*
X759118Y1245605D01*
X759077Y1245782D01*
X759040Y1245959D01*
X759007Y1246137D01*
X758979Y1246316D01*
X758955Y1246496D01*
X758935Y1246676D01*
X758920Y1246857D01*
X758909Y1247038D01*
X758902Y1247219D01*
X758900Y1247400D01*
D17*
X89500Y1017500D03*
X89500Y1012500D03*
X89500Y1007500D03*
X89500Y1002500D03*
X89500Y997500D03*
X89500Y992500D03*
X89500Y987500D03*
X89500Y982500D03*
X89500Y977500D03*
X89500Y972500D03*
X89500Y1022500D03*
X89500Y1027500D03*
X89500Y1032500D03*
X89500Y1037500D03*
X89500Y1042500D03*
X89500Y1047500D03*
X89500Y1052500D03*
X89500Y1057500D03*
X89500Y1062500D03*
D18*
X80000Y1092500D03*
X80000Y947500D03*
X31000Y941500D03*
X31000Y1098500D03*
D17*
X89500Y717500D03*
X89500Y712500D03*
X89500Y707500D03*
X89500Y702500D03*
X89500Y697500D03*
X89500Y692500D03*
X89500Y687500D03*
X89500Y682500D03*
X89500Y677500D03*
X89500Y672500D03*
X89500Y722500D03*
X89500Y727500D03*
X89500Y732500D03*
X89500Y737500D03*
X89500Y742500D03*
X89500Y747500D03*
X89500Y752500D03*
X89500Y757500D03*
X89500Y762500D03*
D18*
X80000Y792500D03*
X80000Y647500D03*
X31000Y641500D03*
X31000Y798500D03*
D17*
X89500Y417500D03*
X89500Y412500D03*
X89500Y407500D03*
X89500Y402500D03*
X89500Y397500D03*
X89500Y392500D03*
X89500Y387500D03*
X89500Y382500D03*
X89500Y377500D03*
X89500Y372500D03*
X89500Y422500D03*
X89500Y427500D03*
X89500Y432500D03*
X89500Y437500D03*
X89500Y442500D03*
X89500Y447500D03*
X89500Y452500D03*
X89500Y457500D03*
X89500Y462500D03*
D18*
X80000Y492500D03*
X80000Y347500D03*
X31000Y341500D03*
X31000Y498500D03*
D17*
X89500Y92500D03*
X89500Y87500D03*
X89500Y82500D03*
X89500Y77500D03*
X89500Y72500D03*
X89500Y67500D03*
X89500Y62500D03*
X89500Y57500D03*
X89500Y52500D03*
X89500Y47500D03*
X89500Y97500D03*
X89500Y102500D03*
X89500Y107500D03*
X89500Y112500D03*
X89500Y117500D03*
X89500Y122500D03*
X89500Y127500D03*
X89500Y132500D03*
X89500Y137500D03*
D18*
X80000Y167500D03*
X80000Y22500D03*
X31000Y16500D03*
X31000Y173500D03*
D19*
X1102500Y1311150D03*
X1154500Y1311150D03*
X1102500Y1323850D03*
X1102500Y1298450D03*
X1102500Y1285750D03*
X1154500Y1323850D03*
X1154500Y1298450D03*
X1154500Y1285750D03*
D20*
X308200Y1401200D03*
D21*
X236400Y1424000D03*
X236400Y1378400D03*
D22*
X249000Y340000D03*
X249000Y350000D03*
X109300Y932300D03*
X109300Y922300D03*
D23*
X923100Y1434900D03*
X923100Y1453900D03*
D24*
X1311800Y1461400D03*
X1330800Y1461400D03*
D25*
X894196Y1454000D02*
X882004Y1454000D01*
X817996Y1454000D02*
X805804Y1454000D01*
D12*
X1041500Y1454000D03*
X1041500Y1370000D03*
X1064000Y1370000D03*
X1086500Y1370000D03*
X1086500Y1454000D03*
X1151500Y1451000D03*
X1151500Y1367000D03*
X1174000Y1367000D03*
X1196500Y1367000D03*
X1196500Y1451000D03*
X1246500Y1456000D03*
X1246500Y1372000D03*
X1269000Y1372000D03*
X1291500Y1372000D03*
X1291500Y1456000D03*
D26*
X797000Y1360000D03*
X1370000Y1360000D03*
X495000Y1435000D03*
X70000Y1285000D03*
X70000Y260000D03*
X480000Y65000D03*
D27*
X276683Y439500D03*
X276683Y434500D03*
X276683Y429500D03*
X276683Y424500D03*
X276683Y419500D03*
X276683Y414500D03*
X276683Y409500D03*
X276683Y404500D03*
X276683Y399500D03*
X276683Y394500D03*
X276683Y389500D03*
X276683Y384500D03*
X276683Y379500D03*
X276683Y374500D03*
X276683Y369500D03*
X276683Y364500D03*
D28*
X295500Y345683D03*
X300500Y345683D03*
X305500Y345683D03*
X310500Y345683D03*
X315500Y345683D03*
X320500Y345683D03*
X325500Y345683D03*
X330500Y345683D03*
X335500Y345683D03*
X340500Y345683D03*
X345500Y345683D03*
X350500Y345683D03*
X355500Y345683D03*
X360500Y345683D03*
X365500Y345683D03*
X370500Y345683D03*
D27*
X389317Y364500D03*
X389317Y369500D03*
X389317Y374500D03*
X389317Y379500D03*
X389317Y384500D03*
X389317Y389500D03*
X389317Y394500D03*
X389317Y399500D03*
X389317Y404500D03*
X389317Y409500D03*
X389317Y414500D03*
X389317Y419500D03*
X389317Y424500D03*
X389317Y429500D03*
X389317Y434500D03*
X389317Y439500D03*
D28*
X370500Y458317D03*
X365500Y458317D03*
X360500Y458317D03*
X355500Y458317D03*
X350500Y458317D03*
X345500Y458317D03*
X340500Y458317D03*
X335500Y458317D03*
X330500Y458317D03*
X325500Y458317D03*
X320500Y458317D03*
X315500Y458317D03*
X310500Y458317D03*
X305500Y458317D03*
X300500Y458317D03*
X295500Y458317D03*
D29*
X1177000Y1324000D03*
X1043000Y1477000D03*
X1248000Y1475000D03*
X1149000Y1473000D03*
X287000Y1466000D03*
D30*
X542000Y450000D03*
X542000Y290000D03*
X1157000Y1250000D03*
X996000Y1250000D03*
D29*
X1078000Y1324000D03*
X1004000Y1330000D03*
X1353000Y1461000D03*
X222000Y1465000D03*
X286000Y1420000D03*
X308000Y1420000D03*
X308000Y1402000D03*
X308000Y1381000D03*
X285000Y1380000D03*
X285000Y1401000D03*
D30*
X438000Y349000D03*
X1078000Y1251000D03*
X435000Y321000D03*
X1104000Y1251000D03*
X522000Y380000D03*
X1051000Y1251000D03*
D29*
X1182000Y1286000D03*
X1216000Y1356000D03*
X1076000Y1298000D03*
X1105000Y1362000D03*
M02*
