G04 EAGLE Gerber RS-274X export*
G75*
%MOMM*%
%FSLAX34Y34*%
%LPD*%
%INCopper Layer 15*%
%IPPOS*%
%AMOC8*
5,1,8,0,0,1.08239X$1,22.5*%
G01*
%ADD10C,7.516000*%
%ADD11C,1.524000*%
%ADD12C,0.756400*%


D10*
X215000Y480000D03*
X375000Y480000D03*
D11*
X233300Y345000D03*
X258700Y345000D03*
X277700Y130000D03*
X252300Y130000D03*
X325000Y130000D03*
X185000Y130000D03*
D12*
X378000Y365000D03*
X379000Y280000D03*
X334000Y280000D03*
X221000Y245000D03*
X378000Y220000D03*
X377000Y135000D03*
X368000Y47000D03*
X382000Y81000D03*
X415000Y90000D03*
X221000Y45000D03*
X207000Y80000D03*
X175000Y89000D03*
X225000Y601000D03*
X206000Y562000D03*
X172000Y553000D03*
X417000Y556000D03*
X380000Y571000D03*
X366000Y610000D03*
X296000Y462000D03*
X245000Y329000D03*
X277000Y333000D03*
X292000Y369000D03*
X292000Y407000D03*
X318000Y406000D03*
X316000Y370000D03*
X315000Y319000D03*
X339000Y318000D03*
X357000Y335000D03*
X335000Y227000D03*
X335000Y194000D03*
X363000Y165000D03*
X304000Y129000D03*
X290000Y150000D03*
X277000Y190000D03*
X248000Y165000D03*
X266000Y212000D03*
X242000Y223000D03*
X230000Y208000D03*
X200000Y182000D03*
X165000Y130000D03*
X164000Y220000D03*
X204000Y220000D03*
X163000Y320000D03*
X203000Y320000D03*
X238000Y288000D03*
X263000Y302000D03*
X229000Y308000D03*
M02*
