G04 EAGLE Gerber RS-274X export*
G75*
%MOMM*%
%FSLAX34Y34*%
%LPD*%
%INCopper Layer 2*%
%IPPOS*%
%AMOC8*
5,1,8,0,0,1.08239X$1,22.5*%
G01*
%ADD10C,7.516000*%
%ADD11C,1.524000*%
%ADD12C,0.756400*%

G36*
X387782Y20172D02*
X387782Y20172D01*
X387853Y20174D01*
X387902Y20192D01*
X387954Y20200D01*
X388017Y20234D01*
X388084Y20259D01*
X388125Y20291D01*
X388171Y20316D01*
X388220Y20368D01*
X388276Y20412D01*
X388305Y20456D01*
X388340Y20494D01*
X388371Y20559D01*
X388409Y20619D01*
X388422Y20670D01*
X388444Y20717D01*
X388452Y20788D01*
X388470Y20858D01*
X388465Y20910D01*
X388471Y20961D01*
X388456Y21032D01*
X388450Y21103D01*
X388430Y21151D01*
X388419Y21202D01*
X388382Y21263D01*
X388354Y21329D01*
X388309Y21385D01*
X388293Y21413D01*
X388275Y21428D01*
X388249Y21460D01*
X386544Y23165D01*
X381863Y31274D01*
X379439Y40318D01*
X379439Y49682D01*
X381863Y58726D01*
X386544Y66835D01*
X393165Y73456D01*
X401274Y78137D01*
X410318Y80561D01*
X419682Y80561D01*
X428726Y78137D01*
X436835Y73456D01*
X438540Y71751D01*
X438598Y71709D01*
X438650Y71660D01*
X438697Y71638D01*
X438739Y71607D01*
X438808Y71586D01*
X438873Y71556D01*
X438925Y71550D01*
X438975Y71535D01*
X439046Y71537D01*
X439117Y71529D01*
X439168Y71540D01*
X439220Y71541D01*
X439288Y71566D01*
X439358Y71581D01*
X439403Y71608D01*
X439451Y71626D01*
X439507Y71671D01*
X439569Y71707D01*
X439603Y71747D01*
X439643Y71779D01*
X439682Y71840D01*
X439729Y71894D01*
X439748Y71942D01*
X439776Y71986D01*
X439794Y72056D01*
X439821Y72122D01*
X439829Y72194D01*
X439837Y72225D01*
X439835Y72248D01*
X439839Y72289D01*
X439839Y572711D01*
X439828Y572782D01*
X439826Y572853D01*
X439808Y572902D01*
X439800Y572954D01*
X439766Y573017D01*
X439741Y573084D01*
X439709Y573125D01*
X439684Y573171D01*
X439632Y573220D01*
X439588Y573276D01*
X439544Y573305D01*
X439506Y573340D01*
X439441Y573371D01*
X439381Y573409D01*
X439330Y573422D01*
X439283Y573444D01*
X439212Y573452D01*
X439142Y573470D01*
X439090Y573465D01*
X439039Y573471D01*
X438968Y573456D01*
X438897Y573450D01*
X438849Y573430D01*
X438798Y573419D01*
X438737Y573382D01*
X438671Y573354D01*
X438615Y573309D01*
X438587Y573293D01*
X438572Y573275D01*
X438540Y573249D01*
X436835Y571544D01*
X428726Y566863D01*
X419682Y564439D01*
X410318Y564439D01*
X401274Y566863D01*
X393165Y571544D01*
X386544Y578165D01*
X381863Y586274D01*
X379439Y595318D01*
X379439Y604682D01*
X381863Y613726D01*
X386544Y621835D01*
X388249Y623540D01*
X388291Y623598D01*
X388340Y623650D01*
X388362Y623697D01*
X388393Y623739D01*
X388414Y623808D01*
X388444Y623873D01*
X388450Y623925D01*
X388465Y623975D01*
X388463Y624046D01*
X388471Y624117D01*
X388460Y624168D01*
X388459Y624220D01*
X388434Y624288D01*
X388419Y624358D01*
X388392Y624403D01*
X388374Y624451D01*
X388329Y624507D01*
X388293Y624569D01*
X388253Y624603D01*
X388221Y624643D01*
X388160Y624682D01*
X388106Y624729D01*
X388058Y624748D01*
X388014Y624776D01*
X387944Y624794D01*
X387878Y624821D01*
X387806Y624829D01*
X387775Y624837D01*
X387752Y624835D01*
X387711Y624839D01*
X202289Y624839D01*
X202218Y624828D01*
X202147Y624826D01*
X202098Y624808D01*
X202046Y624800D01*
X201983Y624766D01*
X201916Y624741D01*
X201875Y624709D01*
X201829Y624684D01*
X201780Y624632D01*
X201724Y624588D01*
X201695Y624544D01*
X201660Y624506D01*
X201629Y624441D01*
X201591Y624381D01*
X201578Y624330D01*
X201556Y624283D01*
X201548Y624212D01*
X201530Y624142D01*
X201535Y624090D01*
X201529Y624039D01*
X201544Y623968D01*
X201550Y623897D01*
X201570Y623849D01*
X201581Y623798D01*
X201618Y623737D01*
X201646Y623671D01*
X201691Y623615D01*
X201707Y623587D01*
X201725Y623572D01*
X201751Y623540D01*
X203456Y621835D01*
X208137Y613726D01*
X210561Y604682D01*
X210561Y595318D01*
X208137Y586274D01*
X203456Y578165D01*
X196835Y571544D01*
X188726Y566863D01*
X179682Y564439D01*
X170318Y564439D01*
X161274Y566863D01*
X153165Y571544D01*
X151460Y573249D01*
X151402Y573291D01*
X151350Y573340D01*
X151303Y573362D01*
X151261Y573393D01*
X151192Y573414D01*
X151127Y573444D01*
X151075Y573450D01*
X151025Y573465D01*
X150954Y573463D01*
X150883Y573471D01*
X150832Y573460D01*
X150780Y573459D01*
X150712Y573434D01*
X150642Y573419D01*
X150597Y573392D01*
X150549Y573374D01*
X150493Y573329D01*
X150431Y573293D01*
X150397Y573253D01*
X150357Y573221D01*
X150318Y573160D01*
X150271Y573106D01*
X150252Y573058D01*
X150224Y573014D01*
X150206Y572944D01*
X150179Y572878D01*
X150171Y572806D01*
X150163Y572775D01*
X150165Y572752D01*
X150161Y572711D01*
X150161Y72289D01*
X150172Y72218D01*
X150174Y72147D01*
X150192Y72098D01*
X150200Y72046D01*
X150234Y71983D01*
X150259Y71916D01*
X150291Y71875D01*
X150316Y71829D01*
X150368Y71780D01*
X150412Y71724D01*
X150456Y71695D01*
X150494Y71660D01*
X150559Y71629D01*
X150619Y71591D01*
X150670Y71578D01*
X150717Y71556D01*
X150788Y71548D01*
X150858Y71530D01*
X150910Y71535D01*
X150961Y71529D01*
X151032Y71544D01*
X151103Y71550D01*
X151151Y71570D01*
X151202Y71581D01*
X151263Y71618D01*
X151329Y71646D01*
X151385Y71691D01*
X151413Y71707D01*
X151428Y71725D01*
X151460Y71751D01*
X153165Y73456D01*
X161274Y78137D01*
X170318Y80561D01*
X179682Y80561D01*
X188726Y78137D01*
X196835Y73456D01*
X203456Y66835D01*
X208137Y58726D01*
X210561Y49682D01*
X210561Y40318D01*
X208137Y31274D01*
X203456Y23165D01*
X201751Y21460D01*
X201709Y21402D01*
X201660Y21350D01*
X201638Y21303D01*
X201607Y21261D01*
X201586Y21192D01*
X201556Y21127D01*
X201550Y21075D01*
X201535Y21025D01*
X201537Y20954D01*
X201529Y20883D01*
X201540Y20832D01*
X201541Y20780D01*
X201566Y20712D01*
X201581Y20642D01*
X201608Y20597D01*
X201626Y20549D01*
X201671Y20493D01*
X201707Y20431D01*
X201747Y20397D01*
X201779Y20357D01*
X201840Y20318D01*
X201894Y20271D01*
X201942Y20252D01*
X201986Y20224D01*
X202056Y20206D01*
X202122Y20179D01*
X202194Y20171D01*
X202225Y20163D01*
X202248Y20165D01*
X202289Y20161D01*
X387711Y20161D01*
X387782Y20172D01*
G37*
%LPC*%
G36*
X369852Y440895D02*
X369852Y440895D01*
X359906Y443560D01*
X350989Y448708D01*
X343708Y455989D01*
X338560Y464906D01*
X335895Y474852D01*
X335895Y485148D01*
X338560Y495094D01*
X343708Y504011D01*
X350989Y511292D01*
X359906Y516440D01*
X369852Y519105D01*
X380148Y519105D01*
X390094Y516440D01*
X399011Y511292D01*
X406292Y504011D01*
X411440Y495094D01*
X414105Y485148D01*
X414105Y474852D01*
X411440Y464906D01*
X406292Y455989D01*
X399011Y448708D01*
X390094Y443560D01*
X380148Y440895D01*
X369852Y440895D01*
G37*
%LPD*%
%LPC*%
G36*
X209852Y440895D02*
X209852Y440895D01*
X199906Y443560D01*
X190989Y448708D01*
X183708Y455989D01*
X178560Y464906D01*
X175895Y474852D01*
X175895Y485148D01*
X178560Y495094D01*
X183708Y504011D01*
X190989Y511292D01*
X199906Y516440D01*
X209852Y519105D01*
X220148Y519105D01*
X230094Y516440D01*
X239011Y511292D01*
X246292Y504011D01*
X251440Y495094D01*
X254105Y485148D01*
X254105Y474852D01*
X251440Y464906D01*
X246292Y455989D01*
X239011Y448708D01*
X230094Y443560D01*
X220148Y440895D01*
X209852Y440895D01*
G37*
%LPD*%
%LPC*%
G36*
X256881Y335855D02*
X256881Y335855D01*
X253520Y337247D01*
X250947Y339820D01*
X249555Y343181D01*
X249555Y346819D01*
X250947Y350180D01*
X253520Y352753D01*
X256881Y354145D01*
X260519Y354145D01*
X263880Y352753D01*
X266453Y350180D01*
X267845Y346819D01*
X267845Y343181D01*
X266453Y339820D01*
X263880Y337247D01*
X260519Y335855D01*
X256881Y335855D01*
G37*
%LPD*%
%LPC*%
G36*
X231481Y335855D02*
X231481Y335855D01*
X228120Y337247D01*
X225547Y339820D01*
X224155Y343181D01*
X224155Y346819D01*
X225547Y350180D01*
X228120Y352753D01*
X231481Y354145D01*
X235119Y354145D01*
X238480Y352753D01*
X241053Y350180D01*
X242445Y346819D01*
X242445Y343181D01*
X241053Y339820D01*
X238480Y337247D01*
X235119Y335855D01*
X231481Y335855D01*
G37*
%LPD*%
%LPC*%
G36*
X250481Y120855D02*
X250481Y120855D01*
X247120Y122247D01*
X244547Y124820D01*
X243155Y128181D01*
X243155Y131819D01*
X244547Y135180D01*
X247120Y137753D01*
X250481Y139145D01*
X254119Y139145D01*
X257480Y137753D01*
X260053Y135180D01*
X261445Y131819D01*
X261445Y128181D01*
X260053Y124820D01*
X257480Y122247D01*
X254119Y120855D01*
X250481Y120855D01*
G37*
%LPD*%
%LPC*%
G36*
X183181Y120855D02*
X183181Y120855D01*
X179820Y122247D01*
X177247Y124820D01*
X175855Y128181D01*
X175855Y131819D01*
X177247Y135180D01*
X179820Y137753D01*
X183181Y139145D01*
X186819Y139145D01*
X190180Y137753D01*
X192753Y135180D01*
X194145Y131819D01*
X194145Y128181D01*
X192753Y124820D01*
X190180Y122247D01*
X186819Y120855D01*
X183181Y120855D01*
G37*
%LPD*%
%LPC*%
G36*
X323181Y120855D02*
X323181Y120855D01*
X319820Y122247D01*
X317247Y124820D01*
X315855Y128181D01*
X315855Y131819D01*
X317247Y135180D01*
X319820Y137753D01*
X323181Y139145D01*
X326819Y139145D01*
X330180Y137753D01*
X332753Y135180D01*
X334145Y131819D01*
X334145Y128181D01*
X332753Y124820D01*
X330180Y122247D01*
X326819Y120855D01*
X323181Y120855D01*
G37*
%LPD*%
%LPC*%
G36*
X275881Y120855D02*
X275881Y120855D01*
X272520Y122247D01*
X269947Y124820D01*
X268555Y128181D01*
X268555Y131819D01*
X269947Y135180D01*
X272520Y137753D01*
X275881Y139145D01*
X279519Y139145D01*
X282880Y137753D01*
X285453Y135180D01*
X286845Y131819D01*
X286845Y128181D01*
X285453Y124820D01*
X282880Y122247D01*
X279519Y120855D01*
X275881Y120855D01*
G37*
%LPD*%
%LPC*%
G36*
X414802Y550693D02*
X414802Y550693D01*
X411693Y553802D01*
X411693Y558198D01*
X414802Y561307D01*
X419198Y561307D01*
X422307Y558198D01*
X422307Y553802D01*
X419198Y550693D01*
X414802Y550693D01*
G37*
%LPD*%
%LPC*%
G36*
X169802Y547693D02*
X169802Y547693D01*
X166693Y550802D01*
X166693Y555198D01*
X169802Y558307D01*
X174198Y558307D01*
X177307Y555198D01*
X177307Y550802D01*
X174198Y547693D01*
X169802Y547693D01*
G37*
%LPD*%
%LPC*%
G36*
X293802Y456693D02*
X293802Y456693D01*
X290693Y459802D01*
X290693Y464198D01*
X293802Y467307D01*
X298198Y467307D01*
X301307Y464198D01*
X301307Y459802D01*
X298198Y456693D01*
X293802Y456693D01*
G37*
%LPD*%
%LPC*%
G36*
X289802Y401693D02*
X289802Y401693D01*
X286693Y404802D01*
X286693Y409198D01*
X289802Y412307D01*
X294198Y412307D01*
X297307Y409198D01*
X297307Y404802D01*
X294198Y401693D01*
X289802Y401693D01*
G37*
%LPD*%
%LPC*%
G36*
X315802Y400693D02*
X315802Y400693D01*
X312693Y403802D01*
X312693Y408198D01*
X315802Y411307D01*
X320198Y411307D01*
X323307Y408198D01*
X323307Y403802D01*
X320198Y400693D01*
X315802Y400693D01*
G37*
%LPD*%
%LPC*%
G36*
X313802Y364693D02*
X313802Y364693D01*
X310693Y367802D01*
X310693Y372198D01*
X313802Y375307D01*
X318198Y375307D01*
X321307Y372198D01*
X321307Y367802D01*
X318198Y364693D01*
X313802Y364693D01*
G37*
%LPD*%
%LPC*%
G36*
X289802Y363693D02*
X289802Y363693D01*
X286693Y366802D01*
X286693Y371198D01*
X289802Y374307D01*
X294198Y374307D01*
X297307Y371198D01*
X297307Y366802D01*
X294198Y363693D01*
X289802Y363693D01*
G37*
%LPD*%
%LPC*%
G36*
X375802Y359693D02*
X375802Y359693D01*
X372693Y362802D01*
X372693Y367198D01*
X375802Y370307D01*
X380198Y370307D01*
X383307Y367198D01*
X383307Y362802D01*
X380198Y359693D01*
X375802Y359693D01*
G37*
%LPD*%
%LPC*%
G36*
X354802Y329693D02*
X354802Y329693D01*
X351693Y332802D01*
X351693Y337198D01*
X354802Y340307D01*
X359198Y340307D01*
X362307Y337198D01*
X362307Y332802D01*
X359198Y329693D01*
X354802Y329693D01*
G37*
%LPD*%
%LPC*%
G36*
X274802Y327693D02*
X274802Y327693D01*
X271693Y330802D01*
X271693Y335198D01*
X274802Y338307D01*
X279198Y338307D01*
X282307Y335198D01*
X282307Y330802D01*
X279198Y327693D01*
X274802Y327693D01*
G37*
%LPD*%
%LPC*%
G36*
X242802Y323693D02*
X242802Y323693D01*
X239693Y326802D01*
X239693Y331198D01*
X242802Y334307D01*
X247198Y334307D01*
X250307Y331198D01*
X250307Y326802D01*
X247198Y323693D01*
X242802Y323693D01*
G37*
%LPD*%
%LPC*%
G36*
X200802Y314693D02*
X200802Y314693D01*
X197693Y317802D01*
X197693Y322198D01*
X200802Y325307D01*
X205198Y325307D01*
X208307Y322198D01*
X208307Y317802D01*
X205198Y314693D01*
X200802Y314693D01*
G37*
%LPD*%
%LPC*%
G36*
X160802Y314693D02*
X160802Y314693D01*
X157693Y317802D01*
X157693Y322198D01*
X160802Y325307D01*
X165198Y325307D01*
X168307Y322198D01*
X168307Y317802D01*
X165198Y314693D01*
X160802Y314693D01*
G37*
%LPD*%
%LPC*%
G36*
X312802Y313693D02*
X312802Y313693D01*
X309693Y316802D01*
X309693Y321198D01*
X312802Y324307D01*
X317198Y324307D01*
X320307Y321198D01*
X320307Y316802D01*
X317198Y313693D01*
X312802Y313693D01*
G37*
%LPD*%
%LPC*%
G36*
X336802Y312693D02*
X336802Y312693D01*
X333693Y315802D01*
X333693Y320198D01*
X336802Y323307D01*
X341198Y323307D01*
X344307Y320198D01*
X344307Y315802D01*
X341198Y312693D01*
X336802Y312693D01*
G37*
%LPD*%
%LPC*%
G36*
X226802Y302693D02*
X226802Y302693D01*
X223693Y305802D01*
X223693Y310198D01*
X226802Y313307D01*
X231198Y313307D01*
X234307Y310198D01*
X234307Y305802D01*
X231198Y302693D01*
X226802Y302693D01*
G37*
%LPD*%
%LPC*%
G36*
X260802Y296693D02*
X260802Y296693D01*
X257693Y299802D01*
X257693Y304198D01*
X260802Y307307D01*
X265198Y307307D01*
X268307Y304198D01*
X268307Y299802D01*
X265198Y296693D01*
X260802Y296693D01*
G37*
%LPD*%
%LPC*%
G36*
X235802Y282693D02*
X235802Y282693D01*
X232693Y285802D01*
X232693Y290198D01*
X235802Y293307D01*
X240198Y293307D01*
X243307Y290198D01*
X243307Y285802D01*
X240198Y282693D01*
X235802Y282693D01*
G37*
%LPD*%
%LPC*%
G36*
X376802Y274693D02*
X376802Y274693D01*
X373693Y277802D01*
X373693Y282198D01*
X376802Y285307D01*
X381198Y285307D01*
X384307Y282198D01*
X384307Y277802D01*
X381198Y274693D01*
X376802Y274693D01*
G37*
%LPD*%
%LPC*%
G36*
X331802Y274693D02*
X331802Y274693D01*
X328693Y277802D01*
X328693Y282198D01*
X331802Y285307D01*
X336198Y285307D01*
X339307Y282198D01*
X339307Y277802D01*
X336198Y274693D01*
X331802Y274693D01*
G37*
%LPD*%
%LPC*%
G36*
X218802Y239693D02*
X218802Y239693D01*
X215693Y242802D01*
X215693Y247198D01*
X218802Y250307D01*
X223198Y250307D01*
X226307Y247198D01*
X226307Y242802D01*
X223198Y239693D01*
X218802Y239693D01*
G37*
%LPD*%
%LPC*%
G36*
X332802Y221693D02*
X332802Y221693D01*
X329693Y224802D01*
X329693Y229198D01*
X332802Y232307D01*
X337198Y232307D01*
X340307Y229198D01*
X340307Y224802D01*
X337198Y221693D01*
X332802Y221693D01*
G37*
%LPD*%
%LPC*%
G36*
X239802Y217693D02*
X239802Y217693D01*
X236693Y220802D01*
X236693Y225198D01*
X239802Y228307D01*
X244198Y228307D01*
X247307Y225198D01*
X247307Y220802D01*
X244198Y217693D01*
X239802Y217693D01*
G37*
%LPD*%
%LPC*%
G36*
X375802Y214693D02*
X375802Y214693D01*
X372693Y217802D01*
X372693Y222198D01*
X375802Y225307D01*
X380198Y225307D01*
X383307Y222198D01*
X383307Y217802D01*
X380198Y214693D01*
X375802Y214693D01*
G37*
%LPD*%
%LPC*%
G36*
X201802Y214693D02*
X201802Y214693D01*
X198693Y217802D01*
X198693Y222198D01*
X201802Y225307D01*
X206198Y225307D01*
X209307Y222198D01*
X209307Y217802D01*
X206198Y214693D01*
X201802Y214693D01*
G37*
%LPD*%
%LPC*%
G36*
X161802Y214693D02*
X161802Y214693D01*
X158693Y217802D01*
X158693Y222198D01*
X161802Y225307D01*
X166198Y225307D01*
X169307Y222198D01*
X169307Y217802D01*
X166198Y214693D01*
X161802Y214693D01*
G37*
%LPD*%
%LPC*%
G36*
X263802Y206693D02*
X263802Y206693D01*
X260693Y209802D01*
X260693Y214198D01*
X263802Y217307D01*
X268198Y217307D01*
X271307Y214198D01*
X271307Y209802D01*
X268198Y206693D01*
X263802Y206693D01*
G37*
%LPD*%
%LPC*%
G36*
X227802Y202693D02*
X227802Y202693D01*
X224693Y205802D01*
X224693Y210198D01*
X227802Y213307D01*
X232198Y213307D01*
X235307Y210198D01*
X235307Y205802D01*
X232198Y202693D01*
X227802Y202693D01*
G37*
%LPD*%
%LPC*%
G36*
X332802Y188693D02*
X332802Y188693D01*
X329693Y191802D01*
X329693Y196198D01*
X332802Y199307D01*
X337198Y199307D01*
X340307Y196198D01*
X340307Y191802D01*
X337198Y188693D01*
X332802Y188693D01*
G37*
%LPD*%
%LPC*%
G36*
X274802Y184693D02*
X274802Y184693D01*
X271693Y187802D01*
X271693Y192198D01*
X274802Y195307D01*
X279198Y195307D01*
X282307Y192198D01*
X282307Y187802D01*
X279198Y184693D01*
X274802Y184693D01*
G37*
%LPD*%
%LPC*%
G36*
X197802Y176693D02*
X197802Y176693D01*
X194693Y179802D01*
X194693Y184198D01*
X197802Y187307D01*
X202198Y187307D01*
X205307Y184198D01*
X205307Y179802D01*
X202198Y176693D01*
X197802Y176693D01*
G37*
%LPD*%
%LPC*%
G36*
X360802Y159693D02*
X360802Y159693D01*
X357693Y162802D01*
X357693Y167198D01*
X360802Y170307D01*
X365198Y170307D01*
X368307Y167198D01*
X368307Y162802D01*
X365198Y159693D01*
X360802Y159693D01*
G37*
%LPD*%
%LPC*%
G36*
X245802Y159693D02*
X245802Y159693D01*
X242693Y162802D01*
X242693Y167198D01*
X245802Y170307D01*
X250198Y170307D01*
X253307Y167198D01*
X253307Y162802D01*
X250198Y159693D01*
X245802Y159693D01*
G37*
%LPD*%
%LPC*%
G36*
X287802Y144693D02*
X287802Y144693D01*
X284693Y147802D01*
X284693Y152198D01*
X287802Y155307D01*
X292198Y155307D01*
X295307Y152198D01*
X295307Y147802D01*
X292198Y144693D01*
X287802Y144693D01*
G37*
%LPD*%
%LPC*%
G36*
X374802Y129693D02*
X374802Y129693D01*
X371693Y132802D01*
X371693Y137198D01*
X374802Y140307D01*
X379198Y140307D01*
X382307Y137198D01*
X382307Y132802D01*
X379198Y129693D01*
X374802Y129693D01*
G37*
%LPD*%
%LPC*%
G36*
X363802Y604693D02*
X363802Y604693D01*
X360693Y607802D01*
X360693Y612198D01*
X363802Y615307D01*
X368198Y615307D01*
X371307Y612198D01*
X371307Y607802D01*
X368198Y604693D01*
X363802Y604693D01*
G37*
%LPD*%
%LPC*%
G36*
X222802Y595693D02*
X222802Y595693D01*
X219693Y598802D01*
X219693Y603198D01*
X222802Y606307D01*
X227198Y606307D01*
X230307Y603198D01*
X230307Y598802D01*
X227198Y595693D01*
X222802Y595693D01*
G37*
%LPD*%
%LPC*%
G36*
X377802Y565693D02*
X377802Y565693D01*
X374693Y568802D01*
X374693Y573198D01*
X377802Y576307D01*
X382198Y576307D01*
X385307Y573198D01*
X385307Y568802D01*
X382198Y565693D01*
X377802Y565693D01*
G37*
%LPD*%
%LPC*%
G36*
X203802Y556693D02*
X203802Y556693D01*
X200693Y559802D01*
X200693Y564198D01*
X203802Y567307D01*
X208198Y567307D01*
X211307Y564198D01*
X211307Y559802D01*
X208198Y556693D01*
X203802Y556693D01*
G37*
%LPD*%
%LPC*%
G36*
X162802Y124693D02*
X162802Y124693D01*
X159693Y127802D01*
X159693Y132198D01*
X162802Y135307D01*
X167198Y135307D01*
X170307Y132198D01*
X170307Y127802D01*
X167198Y124693D01*
X162802Y124693D01*
G37*
%LPD*%
%LPC*%
G36*
X301802Y123693D02*
X301802Y123693D01*
X298693Y126802D01*
X298693Y131198D01*
X301802Y134307D01*
X306198Y134307D01*
X309307Y131198D01*
X309307Y126802D01*
X306198Y123693D01*
X301802Y123693D01*
G37*
%LPD*%
%LPC*%
G36*
X412802Y84693D02*
X412802Y84693D01*
X409693Y87802D01*
X409693Y92198D01*
X412802Y95307D01*
X417198Y95307D01*
X420307Y92198D01*
X420307Y87802D01*
X417198Y84693D01*
X412802Y84693D01*
G37*
%LPD*%
%LPC*%
G36*
X172802Y83693D02*
X172802Y83693D01*
X169693Y86802D01*
X169693Y91198D01*
X172802Y94307D01*
X177198Y94307D01*
X180307Y91198D01*
X180307Y86802D01*
X177198Y83693D01*
X172802Y83693D01*
G37*
%LPD*%
%LPC*%
G36*
X379802Y75693D02*
X379802Y75693D01*
X376693Y78802D01*
X376693Y83198D01*
X379802Y86307D01*
X384198Y86307D01*
X387307Y83198D01*
X387307Y78802D01*
X384198Y75693D01*
X379802Y75693D01*
G37*
%LPD*%
%LPC*%
G36*
X204802Y74693D02*
X204802Y74693D01*
X201693Y77802D01*
X201693Y82198D01*
X204802Y85307D01*
X209198Y85307D01*
X212307Y82198D01*
X212307Y77802D01*
X209198Y74693D01*
X204802Y74693D01*
G37*
%LPD*%
%LPC*%
G36*
X365802Y41693D02*
X365802Y41693D01*
X362693Y44802D01*
X362693Y49198D01*
X365802Y52307D01*
X370198Y52307D01*
X373307Y49198D01*
X373307Y44802D01*
X370198Y41693D01*
X365802Y41693D01*
G37*
%LPD*%
%LPC*%
G36*
X218802Y39693D02*
X218802Y39693D01*
X215693Y42802D01*
X215693Y47198D01*
X218802Y50307D01*
X223198Y50307D01*
X226307Y47198D01*
X226307Y42802D01*
X223198Y39693D01*
X218802Y39693D01*
G37*
%LPD*%
D10*
X215000Y480000D03*
X375000Y480000D03*
D11*
X233300Y345000D03*
X258700Y345000D03*
X277700Y130000D03*
X252300Y130000D03*
X325000Y130000D03*
X185000Y130000D03*
D12*
X378000Y365000D03*
X379000Y280000D03*
X334000Y280000D03*
X221000Y245000D03*
X378000Y220000D03*
X377000Y135000D03*
X368000Y47000D03*
X382000Y81000D03*
X415000Y90000D03*
X221000Y45000D03*
X207000Y80000D03*
X175000Y89000D03*
X225000Y601000D03*
X206000Y562000D03*
X172000Y553000D03*
X417000Y556000D03*
X380000Y571000D03*
X366000Y610000D03*
X296000Y462000D03*
X245000Y329000D03*
X277000Y333000D03*
X292000Y369000D03*
X292000Y407000D03*
X318000Y406000D03*
X316000Y370000D03*
X315000Y319000D03*
X339000Y318000D03*
X357000Y335000D03*
X335000Y227000D03*
X335000Y194000D03*
X363000Y165000D03*
X304000Y129000D03*
X290000Y150000D03*
X277000Y190000D03*
X248000Y165000D03*
X266000Y212000D03*
X242000Y223000D03*
X230000Y208000D03*
X200000Y182000D03*
X165000Y130000D03*
X164000Y220000D03*
X204000Y220000D03*
X163000Y320000D03*
X203000Y320000D03*
X238000Y288000D03*
X263000Y302000D03*
X229000Y308000D03*
M02*
