G04 EAGLE Gerber RS-274X export*
G75*
%MOMM*%
%FSLAX34Y34*%
%LPD*%
%INSolderpaste Top*%
%IPPOS*%
%AMOC8*
5,1,8,0,0,1.08239X$1,22.5*%
G01*
%ADD10R,0.600000X0.700000*%
%ADD11R,1.300000X1.500000*%
%ADD12R,0.838000X0.270000*%
%ADD13R,0.270000X0.838000*%
%ADD14R,2.600000X2.600000*%
%ADD15R,0.700000X0.600000*%
%ADD16R,2.350000X1.500000*%
%ADD17R,4.900000X1.600000*%
%ADD18R,2.300000X0.700000*%
%ADD19R,4.900000X1.580000*%


D10*
X255000Y260000D03*
X265000Y260000D03*
X255000Y245000D03*
X265000Y245000D03*
X335000Y245000D03*
X345000Y245000D03*
X335000Y255000D03*
X345000Y255000D03*
X279400Y204200D03*
X289400Y204200D03*
X290000Y279800D03*
X280000Y279800D03*
X310900Y279800D03*
X320900Y279800D03*
X300000Y480000D03*
X290000Y480000D03*
D11*
X304500Y445000D03*
X285500Y445000D03*
D12*
X280544Y259750D03*
X280544Y253250D03*
X280544Y246750D03*
X280544Y240250D03*
D13*
X290250Y230544D03*
X296750Y230544D03*
X303250Y230544D03*
X309750Y230544D03*
D12*
X319456Y240250D03*
X319456Y246750D03*
X319456Y253250D03*
X319456Y259750D03*
D13*
X309750Y269456D03*
X303250Y269456D03*
X296750Y269456D03*
X290250Y269456D03*
D14*
X300000Y250000D03*
D10*
X222000Y260000D03*
X232000Y260000D03*
X222000Y271000D03*
X232000Y271000D03*
D15*
X244000Y260000D03*
X244000Y270000D03*
D10*
X233000Y245000D03*
X243000Y245000D03*
D16*
X425450Y322500D03*
D17*
X411200Y280000D03*
X411200Y365000D03*
D16*
X425450Y177800D03*
D17*
X411200Y135300D03*
X411200Y220300D03*
D18*
X171500Y271000D03*
D19*
X184500Y301000D03*
X184500Y241000D03*
M02*
